M48
;Layer_Color=9474304
;FILE_FORMAT=2:4
INCH,LZ
;TYPE=PLATED
T1F00S00C0.0280
T2F00S00C0.1660
;TYPE=NON_PLATED
T3F00S00C0.1250
T4F00S00C0.2500
%
T01
X0371Y03735
X0486Y03475
T02
X05Y05
T03
X0433Y03383
X03383Y0433
X0567Y03383
X06617Y0433
Y0567
X03383
X0433Y06617
X0567
T04
X044343Y044343
X05Y042
X051531Y046304
X055657Y044343
X058Y05
X053696Y051531
X055657Y055657
X05Y058
X048469Y053696
X044343Y055657
X042Y05
X046304Y048469
M30
