G04 Layer_Physical_Order=2*
G04 Layer_Color=16711680*
%FSTAX25Y25*%
%MOIN*%
G70*
G01*
G75*
%ADD10C,0.02500*%
%ADD81C,0.01500*%
%ADD83C,0.05000*%
%ADD84C,0.25000*%
%ADD85C,0.06500*%
%ADD86R,0.06890X0.06890*%
%ADD87C,0.06890*%
%ADD88O,0.19000X0.19100*%
%ADD89C,0.35000*%
%ADD90C,0.05000*%
%ADD91C,0.04000*%
D10*
X0551646Y0643854D02*
G03*
X05525Y06435I0000854J0000854D01*
G01*
X0502425Y0284827D02*
G03*
X0495354Y0287756I-0007071J-0007071D01*
G01*
X0566091Y0306323D02*
G03*
X055902Y0303394I0J-001D01*
G01*
X0606517Y0347017D02*
G03*
X0603588Y0339946I0007071J-0007071D01*
G01*
X0637429Y0419429D02*
G03*
X06345Y0412358I0007071J-0007071D01*
G01*
X0646Y04915D02*
G03*
X0645Y0489086I0002414J-0002414D01*
G01*
X06285Y0545142D02*
G03*
X0631429Y0538071I001J0D01*
G01*
X0589Y0613642D02*
G03*
X0591929Y0606571I001J0D01*
G01*
X0474571Y0677429D02*
G03*
X0481642Y06745I0007071J0007071D01*
G01*
X0533Y06625D02*
X0551647Y0643854D01*
X048624Y0287756D02*
X0495354D01*
X0502425Y0284827D02*
X0510663Y0276589D01*
X0566091Y0306323D02*
X0572151D01*
X055093Y0295305D02*
X055902Y0303394D01*
X0606517Y0347017D02*
X0616Y03565D01*
X0603588Y0337683D02*
Y0339946D01*
X0637429Y0419429D02*
X0641Y0423D01*
X06345Y0398D02*
Y0412358D01*
X0645Y0467D02*
Y0489086D01*
X06285Y0545142D02*
Y05585D01*
X0631429Y0538071D02*
X0635Y05345D01*
X0589Y0613642D02*
Y0618D01*
X0591929Y0606571D02*
X0603Y05955D01*
X0481642Y06745D02*
X04895D01*
X0465Y0687D02*
X0474571Y0677429D01*
D81*
X041376Y023526D02*
X045974D01*
X04045Y0226D02*
X041376Y023526D01*
X04295Y02255D02*
Y0225925D01*
X0423425Y0232D02*
X04295Y0225925D01*
X0416635Y0232D02*
X0423425D01*
X04115Y02235D02*
Y0226865D01*
X0416635Y0232D01*
D83*
X04072Y03073D02*
X04785Y0236D01*
X03575Y03073D02*
X04072D01*
D84*
X0481069Y0412431D02*
D03*
X04245Y0389D02*
D03*
X0367932Y0412431D02*
D03*
Y0525568D02*
D03*
X04245Y0549D02*
D03*
X0481069Y0525568D02*
D03*
X03445Y0469D02*
D03*
X05045D02*
D03*
X0439807Y0432045D02*
D03*
X0387545Y0453693D02*
D03*
X0409193Y0505955D02*
D03*
X0461455Y0484307D02*
D03*
D85*
X054251Y0270957D02*
D03*
X047Y0267756D02*
D03*
X0604003Y0311923D02*
D03*
X0643722Y0373192D02*
D03*
X0661743Y0447888D02*
D03*
X0657408Y0521883D02*
D03*
X0577733Y0648431D02*
D03*
X0511905Y068746D02*
D03*
X04365Y0703685D02*
D03*
X04445Y0226D02*
D03*
X04045D02*
D03*
X0628222Y0591377D02*
D03*
X04785Y0236D02*
D03*
X02955Y03425D02*
D03*
D86*
X04195Y02255D02*
D03*
D87*
X04295D02*
D03*
D88*
X04915Y06307D02*
D03*
X05862Y0536D02*
D03*
Y0402D02*
D03*
X04915Y03073D02*
D03*
X03575D02*
D03*
X02628Y0402D02*
D03*
Y0536D02*
D03*
X03575Y06307D02*
D03*
D89*
X04245Y0469D02*
D03*
D90*
X045974Y023526D02*
D03*
D91*
X0603588Y0337683D02*
D03*
X0616Y03565D02*
D03*
X06345Y0398D02*
D03*
X0641Y0423D02*
D03*
X0645Y0467D02*
D03*
X0646Y04915D02*
D03*
X0635Y05345D02*
D03*
X06285Y05585D02*
D03*
X0603Y05955D02*
D03*
X0589Y0618D02*
D03*
X05525Y06435D02*
D03*
X04895Y06745D02*
D03*
X0465Y0687D02*
D03*
X048624Y0287756D02*
D03*
X0572151Y0306323D02*
D03*
X055093Y0295305D02*
D03*
X0510663Y0276589D02*
D03*
X0533Y06625D02*
D03*
X04115Y02235D02*
D03*
M02*
