M48
;Layer_Color=9474304
;FILE_FORMAT=2:4
INCH,LZ
;TYPE=PLATED
T1F00S00C0.0200
T2F00S00C0.0250
T3F00S00C0.0400
T4F00S00C0.0500
T5F00S00C0.1285
T6F00S00C0.1660
;TYPE=NON_PLATED
T7F00S00C0.2500
%
T01
X048624Y028776
X051066Y027659
X055093Y029531
X057215Y030632
X04115Y02235
X060359Y033768
X0616Y03565
X06345Y0398
X0641Y0423
X0645Y0467
X0646Y04915
X0635Y05345
X06285Y05585
X0603Y05955
X0589Y0618
X0465Y0687
X04895Y06745
X0533Y06625
X05525Y06435
T02
X045974Y023526
T03
X04785Y0236
X047Y026776
X054251Y027096
X0604Y031192
X04445Y0226
X04045
X02955Y03425
X064372Y037319
X066174Y044789
X065741Y052188
X062822Y059138
X04365Y070368
X05119Y068746
X057773Y064843
T04
X04195Y02255
X04295
T05
X04915Y03073
X03575
X02628Y0402
X05862
Y0536
X02628
X03575Y06307
X04915
T06
X04245Y0469
T07
X036793Y041243
X038754Y045369
X043981Y043204
X04245Y0389
X048107Y041243
X05045Y0469
X048107Y052557
X046146Y048431
X040919Y050596
X04245Y0549
X036793Y052557
X03445Y0469
M30
