G04 Layer_Color=8388736*
%FSTAX25Y25*%
%MOIN*%
G70*
G01*
G75*
G04:AMPARAMS|DCode=17|XSize=20mil|YSize=50mil|CornerRadius=5mil|HoleSize=0mil|Usage=FLASHONLY|Rotation=70.000|XOffset=0mil|YOffset=0mil|HoleType=Round|Shape=RoundedRectangle|*
%AMROUNDEDRECTD17*
21,1,0.02000,0.04000,0,0,70.0*
21,1,0.01000,0.05000,0,0,70.0*
1,1,0.01000,0.02050,-0.00214*
1,1,0.01000,0.01708,-0.01154*
1,1,0.01000,-0.02050,0.00214*
1,1,0.01000,-0.01708,0.01154*
%
%ADD17ROUNDEDRECTD17*%
G04:AMPARAMS|DCode=18|XSize=20mil|YSize=50mil|CornerRadius=5mil|HoleSize=0mil|Usage=FLASHONLY|Rotation=90.000|XOffset=0mil|YOffset=0mil|HoleType=Round|Shape=RoundedRectangle|*
%AMROUNDEDRECTD18*
21,1,0.02000,0.04000,0,0,90.0*
21,1,0.01000,0.05000,0,0,90.0*
1,1,0.01000,0.02000,0.00500*
1,1,0.01000,0.02000,-0.00500*
1,1,0.01000,-0.02000,-0.00500*
1,1,0.01000,-0.02000,0.00500*
%
%ADD18ROUNDEDRECTD18*%
G04:AMPARAMS|DCode=19|XSize=20mil|YSize=50mil|CornerRadius=5mil|HoleSize=0mil|Usage=FLASHONLY|Rotation=50.000|XOffset=0mil|YOffset=0mil|HoleType=Round|Shape=RoundedRectangle|*
%AMROUNDEDRECTD19*
21,1,0.02000,0.04000,0,0,50.0*
21,1,0.01000,0.05000,0,0,50.0*
1,1,0.01000,0.01853,-0.00903*
1,1,0.01000,0.01211,-0.01669*
1,1,0.01000,-0.01853,0.00903*
1,1,0.01000,-0.01211,0.01669*
%
%ADD19ROUNDEDRECTD19*%
G04:AMPARAMS|DCode=20|XSize=20mil|YSize=50mil|CornerRadius=5mil|HoleSize=0mil|Usage=FLASHONLY|Rotation=30.000|XOffset=0mil|YOffset=0mil|HoleType=Round|Shape=RoundedRectangle|*
%AMROUNDEDRECTD20*
21,1,0.02000,0.04000,0,0,30.0*
21,1,0.01000,0.05000,0,0,30.0*
1,1,0.01000,0.01433,-0.01482*
1,1,0.01000,0.00567,-0.01982*
1,1,0.01000,-0.01433,0.01482*
1,1,0.01000,-0.00567,0.01982*
%
%ADD20ROUNDEDRECTD20*%
G04:AMPARAMS|DCode=21|XSize=20mil|YSize=50mil|CornerRadius=5mil|HoleSize=0mil|Usage=FLASHONLY|Rotation=350.000|XOffset=0mil|YOffset=0mil|HoleType=Round|Shape=RoundedRectangle|*
%AMROUNDEDRECTD21*
21,1,0.02000,0.04000,0,0,350.0*
21,1,0.01000,0.05000,0,0,350.0*
1,1,0.01000,0.00145,-0.02056*
1,1,0.01000,-0.00840,-0.01883*
1,1,0.01000,-0.00145,0.02056*
1,1,0.01000,0.00840,0.01883*
%
%ADD21ROUNDEDRECTD21*%
G04:AMPARAMS|DCode=22|XSize=20mil|YSize=50mil|CornerRadius=5mil|HoleSize=0mil|Usage=FLASHONLY|Rotation=10.000|XOffset=0mil|YOffset=0mil|HoleType=Round|Shape=RoundedRectangle|*
%AMROUNDEDRECTD22*
21,1,0.02000,0.04000,0,0,10.0*
21,1,0.01000,0.05000,0,0,10.0*
1,1,0.01000,0.00840,-0.01883*
1,1,0.01000,-0.00145,-0.02056*
1,1,0.01000,-0.00840,0.01883*
1,1,0.01000,0.00145,0.02056*
%
%ADD22ROUNDEDRECTD22*%
G04:AMPARAMS|DCode=73|XSize=20mil|YSize=50mil|CornerRadius=5mil|HoleSize=0mil|Usage=FLASHONLY|Rotation=310.000|XOffset=0mil|YOffset=0mil|HoleType=Round|Shape=RoundedRectangle|*
%AMROUNDEDRECTD73*
21,1,0.02000,0.04000,0,0,310.0*
21,1,0.01000,0.05000,0,0,310.0*
1,1,0.01000,-0.01211,-0.01669*
1,1,0.01000,-0.01853,-0.00903*
1,1,0.01000,0.01211,0.01669*
1,1,0.01000,0.01853,0.00903*
%
%ADD73ROUNDEDRECTD73*%
G04:AMPARAMS|DCode=74|XSize=20mil|YSize=50mil|CornerRadius=5mil|HoleSize=0mil|Usage=FLASHONLY|Rotation=290.000|XOffset=0mil|YOffset=0mil|HoleType=Round|Shape=RoundedRectangle|*
%AMROUNDEDRECTD74*
21,1,0.02000,0.04000,0,0,290.0*
21,1,0.01000,0.05000,0,0,290.0*
1,1,0.01000,-0.01708,-0.01154*
1,1,0.01000,-0.02050,-0.00214*
1,1,0.01000,0.01708,0.01154*
1,1,0.01000,0.02050,0.00214*
%
%ADD74ROUNDEDRECTD74*%
G04:AMPARAMS|DCode=75|XSize=20mil|YSize=50mil|CornerRadius=5mil|HoleSize=0mil|Usage=FLASHONLY|Rotation=330.000|XOffset=0mil|YOffset=0mil|HoleType=Round|Shape=RoundedRectangle|*
%AMROUNDEDRECTD75*
21,1,0.02000,0.04000,0,0,330.0*
21,1,0.01000,0.05000,0,0,330.0*
1,1,0.01000,-0.00567,-0.01982*
1,1,0.01000,-0.01433,-0.01482*
1,1,0.01000,0.00567,0.01982*
1,1,0.01000,0.01433,0.01482*
%
%ADD75ROUNDEDRECTD75*%
G04:AMPARAMS|DCode=99|XSize=76.9mil|YSize=51.31mil|CornerRadius=14.83mil|HoleSize=0mil|Usage=FLASHONLY|Rotation=200.000|XOffset=0mil|YOffset=0mil|HoleType=Round|Shape=RoundedRectangle|*
%AMROUNDEDRECTD99*
21,1,0.07690,0.02165,0,0,200.0*
21,1,0.04724,0.05131,0,0,200.0*
1,1,0.02965,-0.02590,0.00210*
1,1,0.02965,0.01849,0.01825*
1,1,0.02965,0.02590,-0.00210*
1,1,0.02965,-0.01849,-0.01825*
%
%ADD99ROUNDEDRECTD99*%
G04:AMPARAMS|DCode=100|XSize=38mil|YSize=58mil|CornerRadius=11.5mil|HoleSize=0mil|Usage=FLASHONLY|Rotation=20.000|XOffset=0mil|YOffset=0mil|HoleType=Round|Shape=RoundedRectangle|*
%AMROUNDEDRECTD100*
21,1,0.03800,0.03500,0,0,20.0*
21,1,0.01500,0.05800,0,0,20.0*
1,1,0.02300,0.01303,-0.01388*
1,1,0.02300,-0.00106,-0.01901*
1,1,0.02300,-0.01303,0.01388*
1,1,0.02300,0.00106,0.01901*
%
%ADD100ROUNDEDRECTD100*%
G04:AMPARAMS|DCode=101|XSize=108mil|YSize=113.12mil|CornerRadius=29mil|HoleSize=0mil|Usage=FLASHONLY|Rotation=20.000|XOffset=0mil|YOffset=0mil|HoleType=Round|Shape=RoundedRectangle|*
%AMROUNDEDRECTD101*
21,1,0.10800,0.05512,0,0,20.0*
21,1,0.05000,0.11312,0,0,20.0*
1,1,0.05800,0.03292,-0.01735*
1,1,0.05800,-0.01407,-0.03445*
1,1,0.05800,-0.03292,0.01735*
1,1,0.05800,0.01407,0.03445*
%
%ADD101ROUNDEDRECTD101*%
G04:AMPARAMS|DCode=102|XSize=38mil|YSize=58mil|CornerRadius=11.5mil|HoleSize=0mil|Usage=FLASHONLY|Rotation=110.000|XOffset=0mil|YOffset=0mil|HoleType=Round|Shape=RoundedRectangle|*
%AMROUNDEDRECTD102*
21,1,0.03800,0.03500,0,0,110.0*
21,1,0.01500,0.05800,0,0,110.0*
1,1,0.02300,0.01388,0.01303*
1,1,0.02300,0.01901,-0.00106*
1,1,0.02300,-0.01388,-0.01303*
1,1,0.02300,-0.01901,0.00106*
%
%ADD102ROUNDEDRECTD102*%
G04:AMPARAMS|DCode=103|XSize=108mil|YSize=113.12mil|CornerRadius=29mil|HoleSize=0mil|Usage=FLASHONLY|Rotation=110.000|XOffset=0mil|YOffset=0mil|HoleType=Round|Shape=RoundedRectangle|*
%AMROUNDEDRECTD103*
21,1,0.10800,0.05512,0,0,110.0*
21,1,0.05000,0.11312,0,0,110.0*
1,1,0.05800,0.01735,0.03292*
1,1,0.05800,0.03445,-0.01407*
1,1,0.05800,-0.01735,-0.03292*
1,1,0.05800,-0.03445,0.01407*
%
%ADD103ROUNDEDRECTD103*%
G04:AMPARAMS|DCode=104|XSize=57.21mil|YSize=39.5mil|CornerRadius=11.87mil|HoleSize=0mil|Usage=FLASHONLY|Rotation=110.000|XOffset=0mil|YOffset=0mil|HoleType=Round|Shape=RoundedRectangle|*
%AMROUNDEDRECTD104*
21,1,0.05721,0.01575,0,0,110.0*
21,1,0.03347,0.03950,0,0,110.0*
1,1,0.02375,0.00168,0.01842*
1,1,0.02375,0.01312,-0.01303*
1,1,0.02375,-0.00168,-0.01842*
1,1,0.02375,-0.01312,0.01303*
%
%ADD104ROUNDEDRECTD104*%
G04:AMPARAMS|DCode=105|XSize=28mil|YSize=58mil|CornerRadius=9mil|HoleSize=0mil|Usage=FLASHONLY|Rotation=250.000|XOffset=0mil|YOffset=0mil|HoleType=Round|Shape=RoundedRectangle|*
%AMROUNDEDRECTD105*
21,1,0.02800,0.04000,0,0,250.0*
21,1,0.01000,0.05800,0,0,250.0*
1,1,0.01800,-0.02050,0.00214*
1,1,0.01800,-0.01708,0.01154*
1,1,0.01800,0.02050,-0.00214*
1,1,0.01800,0.01708,-0.01154*
%
%ADD105ROUNDEDRECTD105*%
G04:AMPARAMS|DCode=106|XSize=28mil|YSize=58mil|CornerRadius=9mil|HoleSize=0mil|Usage=FLASHONLY|Rotation=270.000|XOffset=0mil|YOffset=0mil|HoleType=Round|Shape=RoundedRectangle|*
%AMROUNDEDRECTD106*
21,1,0.02800,0.04000,0,0,270.0*
21,1,0.01000,0.05800,0,0,270.0*
1,1,0.01800,-0.02000,-0.00500*
1,1,0.01800,-0.02000,0.00500*
1,1,0.01800,0.02000,0.00500*
1,1,0.01800,0.02000,-0.00500*
%
%ADD106ROUNDEDRECTD106*%
G04:AMPARAMS|DCode=107|XSize=28mil|YSize=58mil|CornerRadius=9mil|HoleSize=0mil|Usage=FLASHONLY|Rotation=230.000|XOffset=0mil|YOffset=0mil|HoleType=Round|Shape=RoundedRectangle|*
%AMROUNDEDRECTD107*
21,1,0.02800,0.04000,0,0,230.0*
21,1,0.01000,0.05800,0,0,230.0*
1,1,0.01800,-0.01853,0.00903*
1,1,0.01800,-0.01211,0.01669*
1,1,0.01800,0.01853,-0.00903*
1,1,0.01800,0.01211,-0.01669*
%
%ADD107ROUNDEDRECTD107*%
G04:AMPARAMS|DCode=108|XSize=28mil|YSize=58mil|CornerRadius=9mil|HoleSize=0mil|Usage=FLASHONLY|Rotation=210.000|XOffset=0mil|YOffset=0mil|HoleType=Round|Shape=RoundedRectangle|*
%AMROUNDEDRECTD108*
21,1,0.02800,0.04000,0,0,210.0*
21,1,0.01000,0.05800,0,0,210.0*
1,1,0.01800,-0.01433,0.01482*
1,1,0.01800,-0.00567,0.01982*
1,1,0.01800,0.01433,-0.01482*
1,1,0.01800,0.00567,-0.01982*
%
%ADD108ROUNDEDRECTD108*%
G04:AMPARAMS|DCode=109|XSize=28mil|YSize=58mil|CornerRadius=9mil|HoleSize=0mil|Usage=FLASHONLY|Rotation=170.000|XOffset=0mil|YOffset=0mil|HoleType=Round|Shape=RoundedRectangle|*
%AMROUNDEDRECTD109*
21,1,0.02800,0.04000,0,0,170.0*
21,1,0.01000,0.05800,0,0,170.0*
1,1,0.01800,-0.00145,0.02056*
1,1,0.01800,0.00840,0.01883*
1,1,0.01800,0.00145,-0.02056*
1,1,0.01800,-0.00840,-0.01883*
%
%ADD109ROUNDEDRECTD109*%
G04:AMPARAMS|DCode=110|XSize=28mil|YSize=58mil|CornerRadius=9mil|HoleSize=0mil|Usage=FLASHONLY|Rotation=190.000|XOffset=0mil|YOffset=0mil|HoleType=Round|Shape=RoundedRectangle|*
%AMROUNDEDRECTD110*
21,1,0.02800,0.04000,0,0,190.0*
21,1,0.01000,0.05800,0,0,190.0*
1,1,0.01800,-0.00840,0.01883*
1,1,0.01800,0.00145,0.02056*
1,1,0.01800,0.00840,-0.01883*
1,1,0.01800,-0.00145,-0.02056*
%
%ADD110ROUNDEDRECTD110*%
G04:AMPARAMS|DCode=111|XSize=57.21mil|YSize=39.5mil|CornerRadius=11.87mil|HoleSize=0mil|Usage=FLASHONLY|Rotation=90.000|XOffset=0mil|YOffset=0mil|HoleType=Round|Shape=RoundedRectangle|*
%AMROUNDEDRECTD111*
21,1,0.05721,0.01575,0,0,90.0*
21,1,0.03347,0.03950,0,0,90.0*
1,1,0.02375,0.00787,0.01673*
1,1,0.02375,0.00787,-0.01673*
1,1,0.02375,-0.00787,-0.01673*
1,1,0.02375,-0.00787,0.01673*
%
%ADD111ROUNDEDRECTD111*%
G04:AMPARAMS|DCode=112|XSize=57.21mil|YSize=39.5mil|CornerRadius=11.87mil|HoleSize=0mil|Usage=FLASHONLY|Rotation=130.000|XOffset=0mil|YOffset=0mil|HoleType=Round|Shape=RoundedRectangle|*
%AMROUNDEDRECTD112*
21,1,0.05721,0.01575,0,0,130.0*
21,1,0.03347,0.03950,0,0,130.0*
1,1,0.02375,-0.00472,0.01788*
1,1,0.02375,0.01679,-0.00776*
1,1,0.02375,0.00472,-0.01788*
1,1,0.02375,-0.01679,0.00776*
%
%ADD112ROUNDEDRECTD112*%
G04:AMPARAMS|DCode=113|XSize=57.21mil|YSize=39.5mil|CornerRadius=11.87mil|HoleSize=0mil|Usage=FLASHONLY|Rotation=150.000|XOffset=0mil|YOffset=0mil|HoleType=Round|Shape=RoundedRectangle|*
%AMROUNDEDRECTD113*
21,1,0.05721,0.01575,0,0,150.0*
21,1,0.03347,0.03950,0,0,150.0*
1,1,0.02375,-0.01055,0.01519*
1,1,0.02375,0.01843,-0.00155*
1,1,0.02375,0.01055,-0.01519*
1,1,0.02375,-0.01843,0.00155*
%
%ADD113ROUNDEDRECTD113*%
G04:AMPARAMS|DCode=114|XSize=57.21mil|YSize=39.5mil|CornerRadius=11.87mil|HoleSize=0mil|Usage=FLASHONLY|Rotation=170.000|XOffset=0mil|YOffset=0mil|HoleType=Round|Shape=RoundedRectangle|*
%AMROUNDEDRECTD114*
21,1,0.05721,0.01575,0,0,170.0*
21,1,0.03347,0.03950,0,0,170.0*
1,1,0.02375,-0.01511,0.01066*
1,1,0.02375,0.01784,0.00485*
1,1,0.02375,0.01511,-0.01066*
1,1,0.02375,-0.01784,-0.00485*
%
%ADD114ROUNDEDRECTD114*%
G04:AMPARAMS|DCode=115|XSize=57.21mil|YSize=39.5mil|CornerRadius=11.87mil|HoleSize=0mil|Usage=FLASHONLY|Rotation=190.000|XOffset=0mil|YOffset=0mil|HoleType=Round|Shape=RoundedRectangle|*
%AMROUNDEDRECTD115*
21,1,0.05721,0.01575,0,0,190.0*
21,1,0.03347,0.03950,0,0,190.0*
1,1,0.02375,-0.01784,0.00485*
1,1,0.02375,0.01511,0.01066*
1,1,0.02375,0.01784,-0.00485*
1,1,0.02375,-0.01511,-0.01066*
%
%ADD115ROUNDEDRECTD115*%
G04:AMPARAMS|DCode=116|XSize=57.21mil|YSize=39.5mil|CornerRadius=11.87mil|HoleSize=0mil|Usage=FLASHONLY|Rotation=230.000|XOffset=0mil|YOffset=0mil|HoleType=Round|Shape=RoundedRectangle|*
%AMROUNDEDRECTD116*
21,1,0.05721,0.01575,0,0,230.0*
21,1,0.03347,0.03950,0,0,230.0*
1,1,0.02375,-0.01679,-0.00776*
1,1,0.02375,0.00472,0.01788*
1,1,0.02375,0.01679,0.00776*
1,1,0.02375,-0.00472,-0.01788*
%
%ADD116ROUNDEDRECTD116*%
G04:AMPARAMS|DCode=117|XSize=57.21mil|YSize=39.5mil|CornerRadius=11.87mil|HoleSize=0mil|Usage=FLASHONLY|Rotation=250.000|XOffset=0mil|YOffset=0mil|HoleType=Round|Shape=RoundedRectangle|*
%AMROUNDEDRECTD117*
21,1,0.05721,0.01575,0,0,250.0*
21,1,0.03347,0.03950,0,0,250.0*
1,1,0.02375,-0.01312,-0.01303*
1,1,0.02375,-0.00168,0.01842*
1,1,0.02375,0.01312,0.01303*
1,1,0.02375,0.00168,-0.01842*
%
%ADD117ROUNDEDRECTD117*%
G04:AMPARAMS|DCode=118|XSize=43.43mil|YSize=39.5mil|CornerRadius=11.87mil|HoleSize=0mil|Usage=FLASHONLY|Rotation=0.000|XOffset=0mil|YOffset=0mil|HoleType=Round|Shape=RoundedRectangle|*
%AMROUNDEDRECTD118*
21,1,0.04343,0.01575,0,0,0.0*
21,1,0.01968,0.03950,0,0,0.0*
1,1,0.02375,0.00984,-0.00787*
1,1,0.02375,-0.00984,-0.00787*
1,1,0.02375,-0.00984,0.00787*
1,1,0.02375,0.00984,0.00787*
%
%ADD118ROUNDEDRECTD118*%
G04:AMPARAMS|DCode=119|XSize=31.62mil|YSize=45.4mil|CornerRadius=9.9mil|HoleSize=0mil|Usage=FLASHONLY|Rotation=270.000|XOffset=0mil|YOffset=0mil|HoleType=Round|Shape=RoundedRectangle|*
%AMROUNDEDRECTD119*
21,1,0.03162,0.02559,0,0,270.0*
21,1,0.01181,0.04540,0,0,270.0*
1,1,0.01981,-0.01279,-0.00591*
1,1,0.01981,-0.01279,0.00591*
1,1,0.01981,0.01279,0.00591*
1,1,0.01981,0.01279,-0.00591*
%
%ADD119ROUNDEDRECTD119*%
G04:AMPARAMS|DCode=120|XSize=38mil|YSize=58mil|CornerRadius=11.5mil|HoleSize=0mil|Usage=FLASHONLY|Rotation=90.000|XOffset=0mil|YOffset=0mil|HoleType=Round|Shape=RoundedRectangle|*
%AMROUNDEDRECTD120*
21,1,0.03800,0.03500,0,0,90.0*
21,1,0.01500,0.05800,0,0,90.0*
1,1,0.02300,0.01750,0.00750*
1,1,0.02300,0.01750,-0.00750*
1,1,0.02300,-0.01750,-0.00750*
1,1,0.02300,-0.01750,0.00750*
%
%ADD120ROUNDEDRECTD120*%
G04:AMPARAMS|DCode=121|XSize=108mil|YSize=113.12mil|CornerRadius=29mil|HoleSize=0mil|Usage=FLASHONLY|Rotation=90.000|XOffset=0mil|YOffset=0mil|HoleType=Round|Shape=RoundedRectangle|*
%AMROUNDEDRECTD121*
21,1,0.10800,0.05512,0,0,90.0*
21,1,0.05000,0.11312,0,0,90.0*
1,1,0.05800,0.02756,0.02500*
1,1,0.05800,0.02756,-0.02500*
1,1,0.05800,-0.02756,-0.02500*
1,1,0.05800,-0.02756,0.02500*
%
%ADD121ROUNDEDRECTD121*%
G04:AMPARAMS|DCode=122|XSize=38mil|YSize=58mil|CornerRadius=11.5mil|HoleSize=0mil|Usage=FLASHONLY|Rotation=130.000|XOffset=0mil|YOffset=0mil|HoleType=Round|Shape=RoundedRectangle|*
%AMROUNDEDRECTD122*
21,1,0.03800,0.03500,0,0,130.0*
21,1,0.01500,0.05800,0,0,130.0*
1,1,0.02300,0.00859,0.01699*
1,1,0.02300,0.01823,0.00550*
1,1,0.02300,-0.00859,-0.01699*
1,1,0.02300,-0.01823,-0.00550*
%
%ADD122ROUNDEDRECTD122*%
G04:AMPARAMS|DCode=123|XSize=108mil|YSize=113.12mil|CornerRadius=29mil|HoleSize=0mil|Usage=FLASHONLY|Rotation=130.000|XOffset=0mil|YOffset=0mil|HoleType=Round|Shape=RoundedRectangle|*
%AMROUNDEDRECTD123*
21,1,0.10800,0.05512,0,0,130.0*
21,1,0.05000,0.11312,0,0,130.0*
1,1,0.05800,0.00504,0.03687*
1,1,0.05800,0.03718,-0.00144*
1,1,0.05800,-0.00504,-0.03687*
1,1,0.05800,-0.03718,0.00144*
%
%ADD123ROUNDEDRECTD123*%
G04:AMPARAMS|DCode=124|XSize=38mil|YSize=58mil|CornerRadius=11.5mil|HoleSize=0mil|Usage=FLASHONLY|Rotation=150.000|XOffset=0mil|YOffset=0mil|HoleType=Round|Shape=RoundedRectangle|*
%AMROUNDEDRECTD124*
21,1,0.03800,0.03500,0,0,150.0*
21,1,0.01500,0.05800,0,0,150.0*
1,1,0.02300,0.00226,0.01891*
1,1,0.02300,0.01524,0.01141*
1,1,0.02300,-0.00226,-0.01891*
1,1,0.02300,-0.01524,-0.01141*
%
%ADD124ROUNDEDRECTD124*%
G04:AMPARAMS|DCode=125|XSize=108mil|YSize=113.12mil|CornerRadius=29mil|HoleSize=0mil|Usage=FLASHONLY|Rotation=150.000|XOffset=0mil|YOffset=0mil|HoleType=Round|Shape=RoundedRectangle|*
%AMROUNDEDRECTD125*
21,1,0.10800,0.05512,0,0,150.0*
21,1,0.05000,0.11312,0,0,150.0*
1,1,0.05800,-0.00787,0.03637*
1,1,0.05800,0.03543,0.01137*
1,1,0.05800,0.00787,-0.03637*
1,1,0.05800,-0.03543,-0.01137*
%
%ADD125ROUNDEDRECTD125*%
G04:AMPARAMS|DCode=126|XSize=38mil|YSize=58mil|CornerRadius=11.5mil|HoleSize=0mil|Usage=FLASHONLY|Rotation=170.000|XOffset=0mil|YOffset=0mil|HoleType=Round|Shape=RoundedRectangle|*
%AMROUNDEDRECTD126*
21,1,0.03800,0.03500,0,0,170.0*
21,1,0.01500,0.05800,0,0,170.0*
1,1,0.02300,-0.00435,0.01854*
1,1,0.02300,0.01043,0.01593*
1,1,0.02300,0.00435,-0.01854*
1,1,0.02300,-0.01043,-0.01593*
%
%ADD126ROUNDEDRECTD126*%
G04:AMPARAMS|DCode=127|XSize=108mil|YSize=113.12mil|CornerRadius=29mil|HoleSize=0mil|Usage=FLASHONLY|Rotation=170.000|XOffset=0mil|YOffset=0mil|HoleType=Round|Shape=RoundedRectangle|*
%AMROUNDEDRECTD127*
21,1,0.10800,0.05512,0,0,170.0*
21,1,0.05000,0.11312,0,0,170.0*
1,1,0.05800,-0.01984,0.03148*
1,1,0.05800,0.02941,0.02280*
1,1,0.05800,0.01984,-0.03148*
1,1,0.05800,-0.02941,-0.02280*
%
%ADD127ROUNDEDRECTD127*%
G04:AMPARAMS|DCode=128|XSize=38mil|YSize=58mil|CornerRadius=11.5mil|HoleSize=0mil|Usage=FLASHONLY|Rotation=190.000|XOffset=0mil|YOffset=0mil|HoleType=Round|Shape=RoundedRectangle|*
%AMROUNDEDRECTD128*
21,1,0.03800,0.03500,0,0,190.0*
21,1,0.01500,0.05800,0,0,190.0*
1,1,0.02300,-0.01043,0.01593*
1,1,0.02300,0.00435,0.01854*
1,1,0.02300,0.01043,-0.01593*
1,1,0.02300,-0.00435,-0.01854*
%
%ADD128ROUNDEDRECTD128*%
G04:AMPARAMS|DCode=129|XSize=108mil|YSize=113.12mil|CornerRadius=29mil|HoleSize=0mil|Usage=FLASHONLY|Rotation=190.000|XOffset=0mil|YOffset=0mil|HoleType=Round|Shape=RoundedRectangle|*
%AMROUNDEDRECTD129*
21,1,0.10800,0.05512,0,0,190.0*
21,1,0.05000,0.11312,0,0,190.0*
1,1,0.05800,-0.02941,0.02280*
1,1,0.05800,0.01984,0.03148*
1,1,0.05800,0.02941,-0.02280*
1,1,0.05800,-0.01984,-0.03148*
%
%ADD129ROUNDEDRECTD129*%
G04:AMPARAMS|DCode=130|XSize=38mil|YSize=58mil|CornerRadius=11.5mil|HoleSize=0mil|Usage=FLASHONLY|Rotation=230.000|XOffset=0mil|YOffset=0mil|HoleType=Round|Shape=RoundedRectangle|*
%AMROUNDEDRECTD130*
21,1,0.03800,0.03500,0,0,230.0*
21,1,0.01500,0.05800,0,0,230.0*
1,1,0.02300,-0.01823,0.00550*
1,1,0.02300,-0.00859,0.01699*
1,1,0.02300,0.01823,-0.00550*
1,1,0.02300,0.00859,-0.01699*
%
%ADD130ROUNDEDRECTD130*%
G04:AMPARAMS|DCode=131|XSize=108mil|YSize=113.12mil|CornerRadius=29mil|HoleSize=0mil|Usage=FLASHONLY|Rotation=230.000|XOffset=0mil|YOffset=0mil|HoleType=Round|Shape=RoundedRectangle|*
%AMROUNDEDRECTD131*
21,1,0.10800,0.05512,0,0,230.0*
21,1,0.05000,0.11312,0,0,230.0*
1,1,0.05800,-0.03718,-0.00144*
1,1,0.05800,-0.00504,0.03687*
1,1,0.05800,0.03718,0.00144*
1,1,0.05800,0.00504,-0.03687*
%
%ADD131ROUNDEDRECTD131*%
G04:AMPARAMS|DCode=132|XSize=38mil|YSize=58mil|CornerRadius=11.5mil|HoleSize=0mil|Usage=FLASHONLY|Rotation=250.000|XOffset=0mil|YOffset=0mil|HoleType=Round|Shape=RoundedRectangle|*
%AMROUNDEDRECTD132*
21,1,0.03800,0.03500,0,0,250.0*
21,1,0.01500,0.05800,0,0,250.0*
1,1,0.02300,-0.01901,-0.00106*
1,1,0.02300,-0.01388,0.01303*
1,1,0.02300,0.01901,0.00106*
1,1,0.02300,0.01388,-0.01303*
%
%ADD132ROUNDEDRECTD132*%
G04:AMPARAMS|DCode=133|XSize=108mil|YSize=113.12mil|CornerRadius=29mil|HoleSize=0mil|Usage=FLASHONLY|Rotation=250.000|XOffset=0mil|YOffset=0mil|HoleType=Round|Shape=RoundedRectangle|*
%AMROUNDEDRECTD133*
21,1,0.10800,0.05512,0,0,250.0*
21,1,0.05000,0.11312,0,0,250.0*
1,1,0.05800,-0.03445,-0.01407*
1,1,0.05800,-0.01735,0.03292*
1,1,0.05800,0.03445,0.01407*
1,1,0.05800,0.01735,-0.03292*
%
%ADD133ROUNDEDRECTD133*%
G04:AMPARAMS|DCode=134|XSize=38mil|YSize=58mil|CornerRadius=11.5mil|HoleSize=0mil|Usage=FLASHONLY|Rotation=0.000|XOffset=0mil|YOffset=0mil|HoleType=Round|Shape=RoundedRectangle|*
%AMROUNDEDRECTD134*
21,1,0.03800,0.03500,0,0,0.0*
21,1,0.01500,0.05800,0,0,0.0*
1,1,0.02300,0.00750,-0.01750*
1,1,0.02300,-0.00750,-0.01750*
1,1,0.02300,-0.00750,0.01750*
1,1,0.02300,0.00750,0.01750*
%
%ADD134ROUNDEDRECTD134*%
G04:AMPARAMS|DCode=135|XSize=108mil|YSize=113.12mil|CornerRadius=29mil|HoleSize=0mil|Usage=FLASHONLY|Rotation=0.000|XOffset=0mil|YOffset=0mil|HoleType=Round|Shape=RoundedRectangle|*
%AMROUNDEDRECTD135*
21,1,0.10800,0.05512,0,0,0.0*
21,1,0.05000,0.11312,0,0,0.0*
1,1,0.05800,0.02500,-0.02756*
1,1,0.05800,-0.02500,-0.02756*
1,1,0.05800,-0.02500,0.02756*
1,1,0.05800,0.02500,0.02756*
%
%ADD135ROUNDEDRECTD135*%
G04:AMPARAMS|DCode=136|XSize=38mil|YSize=58mil|CornerRadius=11.5mil|HoleSize=0mil|Usage=FLASHONLY|Rotation=40.000|XOffset=0mil|YOffset=0mil|HoleType=Round|Shape=RoundedRectangle|*
%AMROUNDEDRECTD136*
21,1,0.03800,0.03500,0,0,40.0*
21,1,0.01500,0.05800,0,0,40.0*
1,1,0.02300,0.01699,-0.00859*
1,1,0.02300,0.00550,-0.01823*
1,1,0.02300,-0.01699,0.00859*
1,1,0.02300,-0.00550,0.01823*
%
%ADD136ROUNDEDRECTD136*%
G04:AMPARAMS|DCode=137|XSize=108mil|YSize=113.12mil|CornerRadius=29mil|HoleSize=0mil|Usage=FLASHONLY|Rotation=40.000|XOffset=0mil|YOffset=0mil|HoleType=Round|Shape=RoundedRectangle|*
%AMROUNDEDRECTD137*
21,1,0.10800,0.05512,0,0,40.0*
21,1,0.05000,0.11312,0,0,40.0*
1,1,0.05800,0.03687,-0.00504*
1,1,0.05800,-0.00144,-0.03718*
1,1,0.05800,-0.03687,0.00504*
1,1,0.05800,0.00144,0.03718*
%
%ADD137ROUNDEDRECTD137*%
G04:AMPARAMS|DCode=138|XSize=38mil|YSize=58mil|CornerRadius=11.5mil|HoleSize=0mil|Usage=FLASHONLY|Rotation=60.000|XOffset=0mil|YOffset=0mil|HoleType=Round|Shape=RoundedRectangle|*
%AMROUNDEDRECTD138*
21,1,0.03800,0.03500,0,0,60.0*
21,1,0.01500,0.05800,0,0,60.0*
1,1,0.02300,0.01891,-0.00226*
1,1,0.02300,0.01141,-0.01524*
1,1,0.02300,-0.01891,0.00226*
1,1,0.02300,-0.01141,0.01524*
%
%ADD138ROUNDEDRECTD138*%
G04:AMPARAMS|DCode=139|XSize=108mil|YSize=113.12mil|CornerRadius=29mil|HoleSize=0mil|Usage=FLASHONLY|Rotation=60.000|XOffset=0mil|YOffset=0mil|HoleType=Round|Shape=RoundedRectangle|*
%AMROUNDEDRECTD139*
21,1,0.10800,0.05512,0,0,60.0*
21,1,0.05000,0.11312,0,0,60.0*
1,1,0.05800,0.03637,0.00787*
1,1,0.05800,0.01137,-0.03543*
1,1,0.05800,-0.03637,-0.00787*
1,1,0.05800,-0.01137,0.03543*
%
%ADD139ROUNDEDRECTD139*%
G04:AMPARAMS|DCode=140|XSize=38mil|YSize=58mil|CornerRadius=11.5mil|HoleSize=0mil|Usage=FLASHONLY|Rotation=80.000|XOffset=0mil|YOffset=0mil|HoleType=Round|Shape=RoundedRectangle|*
%AMROUNDEDRECTD140*
21,1,0.03800,0.03500,0,0,80.0*
21,1,0.01500,0.05800,0,0,80.0*
1,1,0.02300,0.01854,0.00435*
1,1,0.02300,0.01593,-0.01043*
1,1,0.02300,-0.01854,-0.00435*
1,1,0.02300,-0.01593,0.01043*
%
%ADD140ROUNDEDRECTD140*%
G04:AMPARAMS|DCode=141|XSize=108mil|YSize=113.12mil|CornerRadius=29mil|HoleSize=0mil|Usage=FLASHONLY|Rotation=80.000|XOffset=0mil|YOffset=0mil|HoleType=Round|Shape=RoundedRectangle|*
%AMROUNDEDRECTD141*
21,1,0.10800,0.05512,0,0,80.0*
21,1,0.05000,0.11312,0,0,80.0*
1,1,0.05800,0.03148,0.01984*
1,1,0.05800,0.02280,-0.02941*
1,1,0.05800,-0.03148,-0.01984*
1,1,0.05800,-0.02280,0.02941*
%
%ADD141ROUNDEDRECTD141*%
G04:AMPARAMS|DCode=142|XSize=38mil|YSize=58mil|CornerRadius=11.5mil|HoleSize=0mil|Usage=FLASHONLY|Rotation=100.000|XOffset=0mil|YOffset=0mil|HoleType=Round|Shape=RoundedRectangle|*
%AMROUNDEDRECTD142*
21,1,0.03800,0.03500,0,0,100.0*
21,1,0.01500,0.05800,0,0,100.0*
1,1,0.02300,0.01593,0.01043*
1,1,0.02300,0.01854,-0.00435*
1,1,0.02300,-0.01593,-0.01043*
1,1,0.02300,-0.01854,0.00435*
%
%ADD142ROUNDEDRECTD142*%
G04:AMPARAMS|DCode=143|XSize=108mil|YSize=113.12mil|CornerRadius=29mil|HoleSize=0mil|Usage=FLASHONLY|Rotation=100.000|XOffset=0mil|YOffset=0mil|HoleType=Round|Shape=RoundedRectangle|*
%AMROUNDEDRECTD143*
21,1,0.10800,0.05512,0,0,100.0*
21,1,0.05000,0.11312,0,0,100.0*
1,1,0.05800,0.02280,0.02941*
1,1,0.05800,0.03148,-0.01984*
1,1,0.05800,-0.02280,-0.02941*
1,1,0.05800,-0.03148,0.01984*
%
%ADD143ROUNDEDRECTD143*%
G04:AMPARAMS|DCode=144|XSize=38mil|YSize=58mil|CornerRadius=11.5mil|HoleSize=0mil|Usage=FLASHONLY|Rotation=140.000|XOffset=0mil|YOffset=0mil|HoleType=Round|Shape=RoundedRectangle|*
%AMROUNDEDRECTD144*
21,1,0.03800,0.03500,0,0,140.0*
21,1,0.01500,0.05800,0,0,140.0*
1,1,0.02300,0.00550,0.01823*
1,1,0.02300,0.01699,0.00859*
1,1,0.02300,-0.00550,-0.01823*
1,1,0.02300,-0.01699,-0.00859*
%
%ADD144ROUNDEDRECTD144*%
G04:AMPARAMS|DCode=145|XSize=108mil|YSize=113.12mil|CornerRadius=29mil|HoleSize=0mil|Usage=FLASHONLY|Rotation=140.000|XOffset=0mil|YOffset=0mil|HoleType=Round|Shape=RoundedRectangle|*
%AMROUNDEDRECTD145*
21,1,0.10800,0.05512,0,0,140.0*
21,1,0.05000,0.11312,0,0,140.0*
1,1,0.05800,-0.00144,0.03718*
1,1,0.05800,0.03687,0.00504*
1,1,0.05800,0.00144,-0.03718*
1,1,0.05800,-0.03687,-0.00504*
%
%ADD145ROUNDEDRECTD145*%
G04:AMPARAMS|DCode=146|XSize=38mil|YSize=58mil|CornerRadius=11.5mil|HoleSize=0mil|Usage=FLASHONLY|Rotation=160.000|XOffset=0mil|YOffset=0mil|HoleType=Round|Shape=RoundedRectangle|*
%AMROUNDEDRECTD146*
21,1,0.03800,0.03500,0,0,160.0*
21,1,0.01500,0.05800,0,0,160.0*
1,1,0.02300,-0.00106,0.01901*
1,1,0.02300,0.01303,0.01388*
1,1,0.02300,0.00106,-0.01901*
1,1,0.02300,-0.01303,-0.01388*
%
%ADD146ROUNDEDRECTD146*%
G04:AMPARAMS|DCode=147|XSize=108mil|YSize=113.12mil|CornerRadius=29mil|HoleSize=0mil|Usage=FLASHONLY|Rotation=160.000|XOffset=0mil|YOffset=0mil|HoleType=Round|Shape=RoundedRectangle|*
%AMROUNDEDRECTD147*
21,1,0.10800,0.05512,0,0,160.0*
21,1,0.05000,0.11312,0,0,160.0*
1,1,0.05800,-0.01407,0.03445*
1,1,0.05800,0.03292,0.01735*
1,1,0.05800,0.01407,-0.03445*
1,1,0.05800,-0.03292,-0.01735*
%
%ADD147ROUNDEDRECTD147*%
G04:AMPARAMS|DCode=148|XSize=76.9mil|YSize=51.31mil|CornerRadius=14.83mil|HoleSize=0mil|Usage=FLASHONLY|Rotation=0.000|XOffset=0mil|YOffset=0mil|HoleType=Round|Shape=RoundedRectangle|*
%AMROUNDEDRECTD148*
21,1,0.07690,0.02165,0,0,0.0*
21,1,0.04724,0.05131,0,0,0.0*
1,1,0.02965,0.02362,-0.01083*
1,1,0.02965,-0.02362,-0.01083*
1,1,0.02965,-0.02362,0.01083*
1,1,0.02965,0.02362,0.01083*
%
%ADD148ROUNDEDRECTD148*%
G04:AMPARAMS|DCode=149|XSize=76.9mil|YSize=51.31mil|CornerRadius=14.83mil|HoleSize=0mil|Usage=FLASHONLY|Rotation=40.000|XOffset=0mil|YOffset=0mil|HoleType=Round|Shape=RoundedRectangle|*
%AMROUNDEDRECTD149*
21,1,0.07690,0.02165,0,0,40.0*
21,1,0.04724,0.05131,0,0,40.0*
1,1,0.02965,0.02506,0.00689*
1,1,0.02965,-0.01114,-0.02348*
1,1,0.02965,-0.02506,-0.00689*
1,1,0.02965,0.01114,0.02348*
%
%ADD149ROUNDEDRECTD149*%
G04:AMPARAMS|DCode=150|XSize=76.9mil|YSize=51.31mil|CornerRadius=14.83mil|HoleSize=0mil|Usage=FLASHONLY|Rotation=60.000|XOffset=0mil|YOffset=0mil|HoleType=Round|Shape=RoundedRectangle|*
%AMROUNDEDRECTD150*
21,1,0.07690,0.02165,0,0,60.0*
21,1,0.04724,0.05131,0,0,60.0*
1,1,0.02965,0.02119,0.01504*
1,1,0.02965,-0.00244,-0.02587*
1,1,0.02965,-0.02119,-0.01504*
1,1,0.02965,0.00244,0.02587*
%
%ADD150ROUNDEDRECTD150*%
G04:AMPARAMS|DCode=151|XSize=76.9mil|YSize=51.31mil|CornerRadius=14.83mil|HoleSize=0mil|Usage=FLASHONLY|Rotation=80.000|XOffset=0mil|YOffset=0mil|HoleType=Round|Shape=RoundedRectangle|*
%AMROUNDEDRECTD151*
21,1,0.07690,0.02165,0,0,80.0*
21,1,0.04724,0.05131,0,0,80.0*
1,1,0.02965,0.01476,0.02138*
1,1,0.02965,0.00656,-0.02514*
1,1,0.02965,-0.01476,-0.02138*
1,1,0.02965,-0.00656,0.02514*
%
%ADD151ROUNDEDRECTD151*%
G04:AMPARAMS|DCode=152|XSize=76.9mil|YSize=51.31mil|CornerRadius=14.83mil|HoleSize=0mil|Usage=FLASHONLY|Rotation=100.000|XOffset=0mil|YOffset=0mil|HoleType=Round|Shape=RoundedRectangle|*
%AMROUNDEDRECTD152*
21,1,0.07690,0.02165,0,0,100.0*
21,1,0.04724,0.05131,0,0,100.0*
1,1,0.02965,0.00656,0.02514*
1,1,0.02965,0.01476,-0.02138*
1,1,0.02965,-0.00656,-0.02514*
1,1,0.02965,-0.01476,0.02138*
%
%ADD152ROUNDEDRECTD152*%
G04:AMPARAMS|DCode=153|XSize=76.9mil|YSize=51.31mil|CornerRadius=14.83mil|HoleSize=0mil|Usage=FLASHONLY|Rotation=140.000|XOffset=0mil|YOffset=0mil|HoleType=Round|Shape=RoundedRectangle|*
%AMROUNDEDRECTD153*
21,1,0.07690,0.02165,0,0,140.0*
21,1,0.04724,0.05131,0,0,140.0*
1,1,0.02965,-0.01114,0.02348*
1,1,0.02965,0.02506,-0.00689*
1,1,0.02965,0.01114,-0.02348*
1,1,0.02965,-0.02506,0.00689*
%
%ADD153ROUNDEDRECTD153*%
G04:AMPARAMS|DCode=154|XSize=76.9mil|YSize=51.31mil|CornerRadius=14.83mil|HoleSize=0mil|Usage=FLASHONLY|Rotation=160.000|XOffset=0mil|YOffset=0mil|HoleType=Round|Shape=RoundedRectangle|*
%AMROUNDEDRECTD154*
21,1,0.07690,0.02165,0,0,160.0*
21,1,0.04724,0.05131,0,0,160.0*
1,1,0.02965,-0.01849,0.01825*
1,1,0.02965,0.02590,0.00210*
1,1,0.02965,0.01849,-0.01825*
1,1,0.02965,-0.02590,-0.00210*
%
%ADD154ROUNDEDRECTD154*%
G04:AMPARAMS|DCode=155|XSize=57.21mil|YSize=39.5mil|CornerRadius=11.87mil|HoleSize=0mil|Usage=FLASHONLY|Rotation=210.000|XOffset=0mil|YOffset=0mil|HoleType=Round|Shape=RoundedRectangle|*
%AMROUNDEDRECTD155*
21,1,0.05721,0.01575,0,0,210.0*
21,1,0.03347,0.03950,0,0,210.0*
1,1,0.02375,-0.01843,-0.00155*
1,1,0.02375,0.01055,0.01519*
1,1,0.02375,0.01843,0.00155*
1,1,0.02375,-0.01055,-0.01519*
%
%ADD155ROUNDEDRECTD155*%
G04:AMPARAMS|DCode=156|XSize=38mil|YSize=58mil|CornerRadius=11.5mil|HoleSize=0mil|Usage=FLASHONLY|Rotation=210.000|XOffset=0mil|YOffset=0mil|HoleType=Round|Shape=RoundedRectangle|*
%AMROUNDEDRECTD156*
21,1,0.03800,0.03500,0,0,210.0*
21,1,0.01500,0.05800,0,0,210.0*
1,1,0.02300,-0.01524,0.01141*
1,1,0.02300,-0.00226,0.01891*
1,1,0.02300,0.01524,-0.01141*
1,1,0.02300,0.00226,-0.01891*
%
%ADD156ROUNDEDRECTD156*%
G04:AMPARAMS|DCode=157|XSize=108mil|YSize=113.12mil|CornerRadius=29mil|HoleSize=0mil|Usage=FLASHONLY|Rotation=210.000|XOffset=0mil|YOffset=0mil|HoleType=Round|Shape=RoundedRectangle|*
%AMROUNDEDRECTD157*
21,1,0.10800,0.05512,0,0,210.0*
21,1,0.05000,0.11312,0,0,210.0*
1,1,0.05800,-0.03543,0.01137*
1,1,0.05800,0.00787,0.03637*
1,1,0.05800,0.03543,-0.01137*
1,1,0.05800,-0.00787,-0.03637*
%
%ADD157ROUNDEDRECTD157*%
G04:AMPARAMS|DCode=158|XSize=38mil|YSize=58mil|CornerRadius=11.5mil|HoleSize=0mil|Usage=FLASHONLY|Rotation=120.000|XOffset=0mil|YOffset=0mil|HoleType=Round|Shape=RoundedRectangle|*
%AMROUNDEDRECTD158*
21,1,0.03800,0.03500,0,0,120.0*
21,1,0.01500,0.05800,0,0,120.0*
1,1,0.02300,0.01141,0.01524*
1,1,0.02300,0.01891,0.00226*
1,1,0.02300,-0.01141,-0.01524*
1,1,0.02300,-0.01891,-0.00226*
%
%ADD158ROUNDEDRECTD158*%
G04:AMPARAMS|DCode=159|XSize=108mil|YSize=113.12mil|CornerRadius=29mil|HoleSize=0mil|Usage=FLASHONLY|Rotation=120.000|XOffset=0mil|YOffset=0mil|HoleType=Round|Shape=RoundedRectangle|*
%AMROUNDEDRECTD159*
21,1,0.10800,0.05512,0,0,120.0*
21,1,0.05000,0.11312,0,0,120.0*
1,1,0.05800,0.01137,0.03543*
1,1,0.05800,0.03637,-0.00787*
1,1,0.05800,-0.01137,-0.03543*
1,1,0.05800,-0.03637,0.00787*
%
%ADD159ROUNDEDRECTD159*%
G04:AMPARAMS|DCode=160|XSize=76.9mil|YSize=51.31mil|CornerRadius=14.83mil|HoleSize=0mil|Usage=FLASHONLY|Rotation=120.000|XOffset=0mil|YOffset=0mil|HoleType=Round|Shape=RoundedRectangle|*
%AMROUNDEDRECTD160*
21,1,0.07690,0.02165,0,0,120.0*
21,1,0.04724,0.05131,0,0,120.0*
1,1,0.02965,-0.00244,0.02587*
1,1,0.02965,0.02119,-0.01504*
1,1,0.02965,0.00244,-0.02587*
1,1,0.02965,-0.02119,0.01504*
%
%ADD160ROUNDEDRECTD160*%
G04:AMPARAMS|DCode=161|XSize=28mil|YSize=58mil|CornerRadius=9mil|HoleSize=0mil|Usage=FLASHONLY|Rotation=130.000|XOffset=0mil|YOffset=0mil|HoleType=Round|Shape=RoundedRectangle|*
%AMROUNDEDRECTD161*
21,1,0.02800,0.04000,0,0,130.0*
21,1,0.01000,0.05800,0,0,130.0*
1,1,0.01800,0.01211,0.01669*
1,1,0.01800,0.01853,0.00903*
1,1,0.01800,-0.01211,-0.01669*
1,1,0.01800,-0.01853,-0.00903*
%
%ADD161ROUNDEDRECTD161*%
G04:AMPARAMS|DCode=162|XSize=28mil|YSize=58mil|CornerRadius=9mil|HoleSize=0mil|Usage=FLASHONLY|Rotation=110.000|XOffset=0mil|YOffset=0mil|HoleType=Round|Shape=RoundedRectangle|*
%AMROUNDEDRECTD162*
21,1,0.02800,0.04000,0,0,110.0*
21,1,0.01000,0.05800,0,0,110.0*
1,1,0.01800,0.01708,0.01154*
1,1,0.01800,0.02050,0.00214*
1,1,0.01800,-0.01708,-0.01154*
1,1,0.01800,-0.02050,-0.00214*
%
%ADD162ROUNDEDRECTD162*%
G04:AMPARAMS|DCode=163|XSize=28mil|YSize=58mil|CornerRadius=9mil|HoleSize=0mil|Usage=FLASHONLY|Rotation=150.000|XOffset=0mil|YOffset=0mil|HoleType=Round|Shape=RoundedRectangle|*
%AMROUNDEDRECTD163*
21,1,0.02800,0.04000,0,0,150.0*
21,1,0.01000,0.05800,0,0,150.0*
1,1,0.01800,0.00567,0.01982*
1,1,0.01800,0.01433,0.01482*
1,1,0.01800,-0.00567,-0.01982*
1,1,0.01800,-0.01433,-0.01482*
%
%ADD163ROUNDEDRECTD163*%
G04:AMPARAMS|DCode=164|XSize=110.36mil|YSize=51.31mil|CornerRadius=14.83mil|HoleSize=0mil|Usage=FLASHONLY|Rotation=270.000|XOffset=0mil|YOffset=0mil|HoleType=Round|Shape=RoundedRectangle|*
%AMROUNDEDRECTD164*
21,1,0.11036,0.02165,0,0,270.0*
21,1,0.08071,0.05131,0,0,270.0*
1,1,0.02965,-0.01083,-0.04035*
1,1,0.02965,-0.01083,0.04035*
1,1,0.02965,0.01083,0.04035*
1,1,0.02965,0.01083,-0.04035*
%
%ADD164ROUNDEDRECTD164*%
G04:AMPARAMS|DCode=165|XSize=47.37mil|YSize=29.65mil|CornerRadius=9.41mil|HoleSize=0mil|Usage=FLASHONLY|Rotation=180.000|XOffset=0mil|YOffset=0mil|HoleType=Round|Shape=RoundedRectangle|*
%AMROUNDEDRECTD165*
21,1,0.04737,0.01083,0,0,180.0*
21,1,0.02854,0.02965,0,0,180.0*
1,1,0.01883,-0.01427,0.00541*
1,1,0.01883,0.01427,0.00541*
1,1,0.01883,0.01427,-0.00541*
1,1,0.01883,-0.01427,-0.00541*
%
%ADD165ROUNDEDRECTD165*%
%ADD166C,0.25800*%
%ADD167C,0.07300*%
%ADD168R,0.07690X0.07690*%
%ADD169C,0.07690*%
%ADD170O,0.19800X0.19900*%
%ADD171C,0.35800*%
%ADD172C,0.05800*%
%ADD173C,0.04800*%
G36*
X0439074Y0694151D02*
X0439194Y069414D01*
X0439313Y0694122D01*
X0439432Y0694096D01*
X0439548Y0694064D01*
X0439662Y0694024D01*
X0439774Y0693978D01*
X0439883Y0693925D01*
X0439988Y0693866D01*
X0440089Y06938D01*
X0440187Y0693729D01*
X044028Y0693651D01*
X0440368Y0693568D01*
X044045Y069348D01*
X0440528Y0693388D01*
X0440599Y069329D01*
X0440665Y0693189D01*
X0440725Y0693083D01*
X0440777Y0692975D01*
X0440824Y0692863D01*
X0440863Y0692749D01*
X0440896Y0692632D01*
X0440921Y0692514D01*
X0440939Y0692395D01*
X044095Y0692274D01*
X0440954Y0692154D01*
Y0691169D01*
X0440952Y0691129D01*
X0440952Y0691088D01*
X0440951Y0691068D01*
X044095Y0691048D01*
X0440946Y0691008D01*
X0440943Y0690967D01*
X0440941Y0690948D01*
X0440939Y0690928D01*
X0440933Y0690888D01*
X0440928Y0690847D01*
X0440924Y0690828D01*
X0440921Y0690809D01*
X0440912Y0690769D01*
X0440905Y0690729D01*
X04409Y069071D01*
X0440896Y069069D01*
X0440884Y0690651D01*
X0440874Y0690612D01*
X0440868Y0690593D01*
X0440863Y0690574D01*
X044085Y0690535D01*
X0440837Y0690497D01*
X044083Y0690478D01*
X0440824Y069046D01*
X0440808Y0690422D01*
X0440793Y0690384D01*
X0440785Y0690366D01*
X0440777Y0690348D01*
X044076Y0690311D01*
X0440742Y0690274D01*
X0439758Y0688306D01*
X043974Y0688272D01*
X0439722Y0688236D01*
X0439711Y0688218D01*
X0439702Y0688201D01*
X0439711Y0688184D01*
X0439722Y0688165D01*
X043974Y068813D01*
X0439758Y0688096D01*
X0440742Y0686127D01*
X044076Y068609D01*
X0440777Y0686054D01*
X0440785Y0686035D01*
X0440793Y0686018D01*
X0440808Y0685979D01*
X0440824Y0685942D01*
X044083Y0685923D01*
X0440837Y0685905D01*
X044085Y0685866D01*
X0440863Y0685828D01*
X0440868Y0685808D01*
X0440874Y068579D01*
X0440884Y0685751D01*
X0440896Y0685711D01*
X04409Y0685692D01*
X0440905Y0685673D01*
X0440912Y0685633D01*
X0440921Y0685593D01*
X0440924Y0685574D01*
X0440928Y0685554D01*
X0440933Y0685514D01*
X0440939Y0685473D01*
X0440941Y0685454D01*
X0440943Y0685434D01*
X0440946Y0685394D01*
X044095Y0685353D01*
X0440951Y0685333D01*
X0440952Y0685314D01*
X0440952Y0685273D01*
X0440954Y0685232D01*
Y0684248D01*
X044095Y0684127D01*
X0440939Y0684007D01*
X0440921Y0683887D01*
X0440896Y0683769D01*
X0440863Y0683653D01*
X0440824Y0683538D01*
X0440777Y0683427D01*
X0440725Y0683318D01*
X0440665Y0683213D01*
X0440599Y0683111D01*
X0440528Y0683014D01*
X044045Y0682921D01*
X0440368Y0682833D01*
X044028Y068275D01*
X0440187Y0682673D01*
X0440089Y0682601D01*
X0439988Y0682536D01*
X0439883Y0682476D01*
X0439774Y0682423D01*
X0439662Y0682377D01*
X0439548Y0682338D01*
X0439432Y0682305D01*
X0439313Y068228D01*
X0439194Y0682262D01*
X0439074Y0682251D01*
X0438953Y0682247D01*
X0433047D01*
X0432926Y0682251D01*
X0432806Y0682262D01*
X0432687Y068228D01*
X0432568Y0682305D01*
X0432452Y0682338D01*
X0432338Y0682377D01*
X0432226Y0682423D01*
X0432117Y0682476D01*
X0432012Y0682536D01*
X0431911Y0682601D01*
X0431813Y0682673D01*
X043172Y068275D01*
X0431632Y0682833D01*
X043155Y0682921D01*
X0431472Y0683014D01*
X04314Y0683111D01*
X0431335Y0683213D01*
X0431276Y0683318D01*
X0431223Y0683427D01*
X0431176Y0683538D01*
X0431137Y0683653D01*
X0431105Y0683769D01*
X0431079Y0683887D01*
X0431061Y0684007D01*
X043105Y0684127D01*
X0431046Y0684248D01*
Y0685232D01*
X0431048Y0685273D01*
X0431048Y0685314D01*
X0431049Y0685333D01*
X043105Y0685353D01*
X0431054Y0685394D01*
X0431057Y0685434D01*
X0431059Y0685454D01*
X0431061Y0685473D01*
X0431067Y0685514D01*
X0431072Y0685554D01*
X0431076Y0685574D01*
X0431079Y0685593D01*
X0431088Y0685633D01*
X0431095Y0685673D01*
X04311Y0685692D01*
X0431105Y0685711D01*
X0431115Y0685751D01*
X0431126Y068579D01*
X0431132Y0685808D01*
X0431137Y0685828D01*
X043115Y0685866D01*
X0431163Y0685905D01*
X043117Y0685923D01*
X0431176Y0685942D01*
X0431192Y0685979D01*
X0431207Y0686017D01*
X0431215Y0686035D01*
X0431223Y0686054D01*
X0431241Y068609D01*
X0431258Y0686127D01*
X0432242Y0688096D01*
X043226Y068813D01*
X0432278Y0688165D01*
X0432289Y0688184D01*
X0432298Y0688201D01*
X0432289Y0688218D01*
X0432278Y0688236D01*
X043226Y0688272D01*
X0432242Y0688306D01*
X0431258Y0690274D01*
X0431241Y0690311D01*
X0431223Y0690348D01*
X0431215Y0690366D01*
X0431207Y0690384D01*
X0431192Y0690422D01*
X0431176Y069046D01*
X043117Y0690478D01*
X0431163Y0690497D01*
X043115Y0690535D01*
X0431137Y0690574D01*
X0431132Y0690593D01*
X0431126Y0690612D01*
X0431115Y0690651D01*
X0431105Y069069D01*
X04311Y069071D01*
X0431095Y0690729D01*
X0431088Y0690769D01*
X0431079Y0690809D01*
X0431076Y0690828D01*
X0431072Y0690847D01*
X0431067Y0690888D01*
X0431061Y0690928D01*
X0431059Y0690948D01*
X0431057Y0690967D01*
X0431054Y0691008D01*
X043105Y0691048D01*
X0431049Y0691068D01*
X0431048Y0691088D01*
X0431048Y0691128D01*
X0431046Y0691169D01*
Y0692154D01*
X043105Y0692274D01*
X0431061Y0692395D01*
X0431079Y0692514D01*
X0431105Y0692632D01*
X0431137Y0692749D01*
X0431176Y0692863D01*
X0431223Y0692975D01*
X0431276Y0693083D01*
X0431335Y0693189D01*
X04314Y069329D01*
X0431472Y0693388D01*
X043155Y069348D01*
X0431632Y0693568D01*
X043172Y0693651D01*
X0431813Y0693729D01*
X0431911Y06938D01*
X0432012Y0693866D01*
X0432117Y0693925D01*
X0432226Y0693978D01*
X0432338Y0694024D01*
X0432452Y0694064D01*
X0432568Y0694096D01*
X0432687Y0694122D01*
X0432806Y069414D01*
X0432926Y0694151D01*
X0433047Y0694154D01*
X0438953D01*
X0439074Y0694151D01*
D02*
G37*
G36*
X050481Y0679804D02*
X0504931Y0679794D01*
X0504964Y067979D01*
X0505051Y0679778D01*
X050511Y0679766D01*
X0505169Y0679754D01*
X0505286Y0679723D01*
X0505362Y0679698D01*
X0505401Y0679685D01*
X0505401Y0679685D01*
X051095Y0677666D01*
X0511005Y0677643D01*
X0511062Y0677621D01*
X0511172Y0677569D01*
X0511172D01*
X0511172Y0677569D01*
X0511181Y0677564D01*
X0511278Y0677511D01*
X051138Y0677447D01*
X0511436Y0677407D01*
X0511478Y0677377D01*
X0511511Y0677351D01*
X0511572Y0677301D01*
X0511661Y0677219D01*
X0511661Y0677219D01*
D01*
X0511664Y0677216D01*
X0511745Y0677132D01*
X0511824Y067704D01*
X0511897Y0676944D01*
X0511964Y0676843D01*
X0512025Y0676739D01*
X0512079Y0676631D01*
D01*
X0512079Y0676631D01*
X0512086Y0676615D01*
X0512127Y067652D01*
X0512168Y0676406D01*
Y0676406D01*
X0512168Y0676406D01*
X0512172Y0676392D01*
X0512202Y067629D01*
X0512229Y0676172D01*
X0512249Y0676053D01*
X0512261Y0675933D01*
X0512266Y0675812D01*
X0512264Y0675695D01*
X0512264Y0675691D01*
X0512263Y0675673D01*
X0512255Y0675571D01*
X0512238Y0675451D01*
X0512215Y0675332D01*
X0512184Y0675216D01*
X0512146Y0675101D01*
D01*
X0512146Y0675101D01*
X0512146Y0675101D01*
X0511809Y0674176D01*
X0511794Y0674138D01*
X051178Y06741D01*
X0511772Y0674082D01*
X0511764Y0674064D01*
X0511747Y0674027D01*
X051173Y067399D01*
X0511722Y0673972D01*
X0511713Y0673954D01*
X0511693Y0673918D01*
X0511675Y0673882D01*
X0511664Y0673866D01*
X0511655Y0673848D01*
X0511633Y0673814D01*
X0511612Y0673779D01*
X0511601Y0673763D01*
X0511591Y0673746D01*
X0511567Y0673712D01*
X0511544Y0673679D01*
X0511532Y0673664D01*
X051152Y0673648D01*
X0511495Y0673616D01*
X051147Y0673584D01*
X0511457Y0673569D01*
X0511444Y0673554D01*
X0511417Y0673524D01*
X051139Y0673493D01*
X0511376Y0673479D01*
X0511363Y0673465D01*
X0511334Y0673436D01*
X0511305Y0673407D01*
X0509706Y0671894D01*
X0509677Y0671868D01*
X0509648Y0671841D01*
X0509632Y0671828D01*
X0509617Y0671815D01*
X050962Y0671795D01*
X0509624Y0671775D01*
X0509629Y0671736D01*
X0509635Y0671697D01*
X0509886Y066951D01*
X050989Y0669469D01*
X0509894Y0669429D01*
X0509895Y0669409D01*
X0509896Y066939D01*
X0509897Y0669349D01*
X0509899Y0669308D01*
X0509899Y0669289D01*
X0509899Y0669269D01*
X0509898Y0669228D01*
X0509897Y0669187D01*
X0509896Y0669168D01*
X0509895Y0669148D01*
X0509891Y0669108D01*
X0509888Y0669067D01*
X0509885Y0669047D01*
X0509883Y0669028D01*
X0509877Y0668987D01*
X0509871Y0668947D01*
X0509867Y0668928D01*
X0509864Y0668908D01*
X0509856Y0668869D01*
X0509847Y0668829D01*
X0509842Y066881D01*
X0509838Y066879D01*
X0509827Y0668751D01*
X0509817Y0668712D01*
X050981Y0668693D01*
X0509805Y0668674D01*
X0509792Y0668636D01*
X0509779Y0668597D01*
X0509442Y0667672D01*
X0509397Y066756D01*
X0509346Y0667451D01*
Y0667451D01*
X0509346Y0667451D01*
X0509288Y0667344D01*
X0509224Y0667242D01*
X0509181Y0667183D01*
X0509153Y0667144D01*
X0509136Y0667122D01*
X0509077Y066705D01*
X0508995Y0666961D01*
X0508909Y0666877D01*
X0508817Y0666798D01*
X050877Y0666763D01*
X050872Y0666725D01*
X050867Y0666692D01*
X050862Y0666658D01*
X0508515Y0666597D01*
X0508409Y0666544D01*
X0508407Y0666543D01*
D01*
X0508407Y0666543D01*
X0508296Y0666495D01*
X0508243Y0666476D01*
X0508183Y0666454D01*
X0508115Y0666434D01*
X0508067Y066642D01*
X0507949Y0666393D01*
X050783Y0666374D01*
X0507709Y0666361D01*
X0507589Y0666356D01*
X0507468Y0666358D01*
X0507347Y0666367D01*
X0507228Y0666384D01*
X0507109Y0666407D01*
X0506992Y0666438D01*
X0506878Y0666476D01*
X0501328Y0668496D01*
X0501328Y0668496D01*
X050128Y0668515D01*
X0501216Y0668541D01*
X0501106Y0668592D01*
X0501Y066865D01*
X0500898Y0668715D01*
X0500898Y0668715D01*
X0500898Y0668715D01*
X0500884Y0668725D01*
X05008Y0668785D01*
X0500706Y0668861D01*
X0500617Y0668943D01*
X0500617Y0668943D01*
X0500617Y0668943D01*
X0500611Y0668949D01*
X0500533Y066903D01*
X0500454Y0669121D01*
X0500381Y0669218D01*
X0500381Y0669218D01*
D01*
X0500381Y0669218D01*
X0500314Y0669318D01*
X0500253Y0669423D01*
X0500199Y0669531D01*
X0500151Y0669642D01*
X050011Y0669755D01*
X0500076Y0669871D01*
X0500076Y0669872D01*
Y0669872D01*
X0500074Y0669881D01*
X0500049Y0669989D01*
X050003Y0670109D01*
X0500017Y0670229D01*
X0500012Y0670349D01*
Y067035D01*
Y067035D01*
X0500012Y0670358D01*
X0500014Y067047D01*
X0500023Y0670591D01*
X050004Y0670711D01*
X0500063Y0670829D01*
X0500063Y0670829D01*
Y0670829D01*
X0500094Y0670946D01*
X0500132Y0671061D01*
X0500469Y0671986D01*
X0500484Y0672023D01*
X0500498Y0672061D01*
X0500506Y067208D01*
X0500514Y0672098D01*
X0500531Y0672135D01*
X0500548Y0672172D01*
X0500557Y0672189D01*
X0500565Y0672207D01*
X0500585Y0672243D01*
X0500603Y0672279D01*
X0500614Y0672296D01*
X0500623Y0672313D01*
X0500644Y0672347D01*
X0500666Y0672383D01*
X0500677Y0672399D01*
X0500687Y0672416D01*
X0500711Y0672449D01*
X0500734Y0672482D01*
X0500746Y0672498D01*
X0500758Y0672514D01*
X0500783Y0672546D01*
X0500808Y0672578D01*
X0500821Y0672592D01*
X0500834Y0672608D01*
X0500861Y0672638D01*
X0500888Y0672669D01*
X0500902Y0672683D01*
X0500915Y0672697D01*
X0500945Y0672725D01*
X0500973Y0672754D01*
X0502571Y0674267D01*
X0502601Y0674294D01*
X050263Y067432D01*
X0502646Y0674334D01*
X0502661Y0674347D01*
X0502658Y0674366D01*
X0502654Y0674387D01*
X0502649Y0674426D01*
X0502643Y0674465D01*
X0502392Y0676651D01*
X0502388Y0676692D01*
X0502384Y0676732D01*
X0502383Y0676752D01*
X0502382Y0676772D01*
X0502381Y0676813D01*
X0502379Y0676853D01*
X0502379Y0676873D01*
X0502379Y0676893D01*
X050238Y0676933D01*
X0502381Y0676974D01*
X0502383Y0676994D01*
X0502383Y0677013D01*
X0502387Y0677054D01*
X050239Y0677095D01*
X0502393Y0677114D01*
X0502395Y0677134D01*
X0502401Y0677174D01*
X0502407Y0677214D01*
X0502411Y0677234D01*
X0502414Y0677253D01*
X0502423Y0677293D01*
X0502431Y0677333D01*
X0502436Y0677352D01*
X050244Y0677371D01*
X0502451Y067741D01*
X0502461Y067745D01*
X0502468Y0677469D01*
X0502473Y0677487D01*
X0502487Y0677526D01*
X0502499Y0677564D01*
X0502836Y0678489D01*
X0502881Y0678602D01*
X0502932Y0678711D01*
Y0678711D01*
X0502932Y0678711D01*
X050299Y0678817D01*
X0503054Y067892D01*
X0503097Y0678979D01*
X0503125Y0679018D01*
X0503142Y067904D01*
X0503201Y0679112D01*
X0503269Y0679186D01*
X0503282Y0679201D01*
X0503282Y0679201D01*
X0503282Y0679201D01*
X0503369Y0679285D01*
X0503461Y0679363D01*
X0503508Y0679399D01*
X0503558Y0679436D01*
X0503658Y0679503D01*
X0503763Y0679564D01*
X0503871Y0679619D01*
D01*
X0503871Y0679619D01*
X0503982Y0679666D01*
X0504013Y0679678D01*
X0504095Y0679707D01*
X0504163Y0679727D01*
X0504211Y0679741D01*
X0504329Y0679768D01*
X0504448Y0679788D01*
X0504543Y0679798D01*
X0504569Y0679801D01*
X0504579Y0679801D01*
X0504689Y0679806D01*
X050481Y0679804D01*
D02*
G37*
G36*
X0567743Y0643816D02*
X0567864Y0643809D01*
X0567984Y0643794D01*
X0568103Y0643772D01*
X056822Y0643742D01*
X0568335Y0643706D01*
X0568448Y0643663D01*
X0568558Y0643613D01*
X0568665Y0643556D01*
X0568768Y0643493D01*
X0568867Y0643424D01*
X0568962Y064335D01*
X0568962Y0643349D01*
X0573486Y0639553D01*
X0573576Y0639473D01*
X0573576Y0639473D01*
D01*
X0573662Y0639387D01*
X0573741Y0639296D01*
X0573816Y0639201D01*
X0573847Y0639155D01*
X0573884Y0639101D01*
X0573905Y0639067D01*
X0573946Y0638998D01*
X0573973Y0638946D01*
X0574002Y0638891D01*
X0574042Y0638802D01*
X0574051Y063878D01*
X0574094Y0638667D01*
X0574107Y0638623D01*
X0574129Y0638552D01*
X0574158Y0638434D01*
X0574179Y0638315D01*
X0574193Y0638195D01*
X05742Y0638074D01*
Y0638074D01*
D01*
Y0638074D01*
X05742Y0637954D01*
X0574192Y0637833D01*
X0574177Y0637713D01*
X0574155Y0637594D01*
X0574126Y0637477D01*
X0574089Y0637362D01*
X0574046Y0637249D01*
X0573996Y0637139D01*
X0573996Y0637139D01*
Y0637139D01*
X0573994Y0637135D01*
X057394Y0637032D01*
X0573877Y0636929D01*
X0573835Y0636868D01*
X0573808Y0636829D01*
X0573783Y0636799D01*
X0573733Y0636734D01*
X0573733Y0636734D01*
X05731Y0635981D01*
X0573073Y063595D01*
X0573046Y0635919D01*
X0573033Y0635905D01*
X057302Y063589D01*
X0572991Y0635861D01*
X0572962Y0635832D01*
X0572948Y0635819D01*
X0572934Y0635805D01*
X0572903Y0635778D01*
X0572873Y0635751D01*
X0572858Y0635738D01*
X0572843Y0635725D01*
X0572811Y06357D01*
X0572779Y0635675D01*
X0572763Y0635663D01*
X0572748Y0635651D01*
X0572714Y0635628D01*
X0572681Y0635604D01*
X0572664Y0635594D01*
X0572648Y0635583D01*
X0572613Y0635562D01*
X0572578Y063554D01*
X0572561Y0635531D01*
X0572544Y0635521D01*
X0572508Y0635502D01*
X0572472Y0635482D01*
X0572455Y0635474D01*
X0572437Y0635465D01*
X05724Y0635448D01*
X0572363Y0635431D01*
X0570344Y0634556D01*
X0570307Y0634541D01*
X0570271Y0634526D01*
X0570251Y0634519D01*
X0570233Y0634511D01*
X0570229Y0634492D01*
X0570225Y0634471D01*
X0570217Y0634433D01*
X0570209Y0634395D01*
X0569697Y0632254D01*
X0569687Y0632214D01*
X0569677Y0632175D01*
X0569671Y0632156D01*
X0569666Y0632137D01*
X0569653Y0632099D01*
X056964Y063206D01*
X0569633Y0632041D01*
X0569627Y0632023D01*
X0569612Y0631985D01*
X0569597Y0631947D01*
X0569589Y0631929D01*
X0569582Y0631911D01*
X0569564Y0631874D01*
X0569547Y0631837D01*
X0569538Y0631819D01*
X0569529Y0631802D01*
X056951Y0631766D01*
X0569491Y063173D01*
X0569481Y0631713D01*
X0569471Y0631696D01*
X0569449Y0631661D01*
X0569428Y0631627D01*
X0569417Y063161D01*
X0569406Y0631594D01*
X0569382Y0631561D01*
X0569359Y0631527D01*
X0569347Y0631512D01*
X0569335Y0631496D01*
X0569309Y0631464D01*
X0569284Y0631432D01*
X0568651Y0630679D01*
X0568651Y0630679D01*
X0568571Y0630588D01*
X0568571Y0630588D01*
D01*
X0568485Y0630503D01*
X0568441Y0630465D01*
X0568394Y0630423D01*
X0568299Y0630349D01*
X0568299Y0630349D01*
X0568299Y0630349D01*
X0568261Y0630323D01*
X0568199Y0630281D01*
X0568199Y0630281D01*
D01*
X0568095Y0630219D01*
X0567988Y0630163D01*
X0567903Y0630125D01*
X0567878Y0630114D01*
X0567878Y0630114D01*
X0567878Y0630114D01*
X0567765Y0630071D01*
X0567649Y0630035D01*
X0567586Y063002D01*
X0567532Y0630007D01*
X0567413Y0629986D01*
X0567413D01*
X0567413Y0629986D01*
X0567373Y0629981D01*
X0567293Y0629971D01*
X0567172Y0629964D01*
X0567172D01*
D01*
X0567051Y0629965D01*
X0567005Y0629968D01*
X0566931Y0629973D01*
X0566811Y0629988D01*
X0566692Y063001D01*
X0566575Y0630039D01*
X0566459Y0630076D01*
X0566459Y0630076D01*
X0566459Y0630076D01*
X0566371Y0630109D01*
X0566347Y0630119D01*
X0566347Y0630119D01*
X0566347Y0630119D01*
X0566292Y0630143D01*
X0566236Y0630169D01*
X0566236Y0630169D01*
X0566236Y0630169D01*
X0566201Y0630187D01*
X056613Y0630225D01*
X056613Y0630225D01*
X056613D01*
X0566026Y0630288D01*
X0565999Y0630307D01*
X0565927Y0630357D01*
X0565832Y0630432D01*
X0561308Y0634228D01*
X0561308Y0634228D01*
X0561218Y0634308D01*
X0561218Y0634308D01*
D01*
X0561133Y0634394D01*
X0561053Y0634485D01*
X0560979Y063458D01*
X0560957Y0634612D01*
X0560911Y063468D01*
X0560848Y0634784D01*
X0560793Y0634891D01*
X0560762Y0634959D01*
X0560743Y0635001D01*
X0560717Y0635072D01*
X0560701Y0635114D01*
X0560665Y063523D01*
X0560637Y0635347D01*
X0560615Y0635466D01*
X0560601Y0635586D01*
X0560594Y0635707D01*
Y0635707D01*
D01*
X0560595Y0635828D01*
X0560602Y0635949D01*
X0560617Y0636068D01*
X056064Y0636187D01*
X0560669Y0636305D01*
X0560705Y063642D01*
X0560722Y0636463D01*
X0560748Y0636533D01*
X0560776Y0636593D01*
X0560799Y0636643D01*
X0560828Y0636699D01*
X0560855Y063675D01*
X0560918Y0636853D01*
X0560948Y0636896D01*
X0560987Y0636952D01*
X0561042Y0637021D01*
X0561062Y0637047D01*
X0561694Y0637801D01*
X0561722Y0637831D01*
X0561748Y0637862D01*
X0561762Y0637876D01*
X0561775Y0637891D01*
X0561804Y063792D01*
X0561832Y0637949D01*
X0561847Y0637962D01*
X0561861Y0637976D01*
X0561891Y0638003D01*
X0561921Y0638031D01*
X0561937Y0638043D01*
X0561951Y0638056D01*
X0561983Y0638081D01*
X0562015Y0638107D01*
X0562031Y0638118D01*
X0562047Y063813D01*
X0562081Y0638154D01*
X0562114Y0638177D01*
X056213Y0638187D01*
X0562146Y0638199D01*
X0562182Y063822D01*
X0562216Y0638241D01*
X0562233Y0638251D01*
X056225Y0638261D01*
X0562286Y063828D01*
X0562322Y0638299D01*
X056234Y0638308D01*
X0562357Y0638317D01*
X0562395Y0638333D01*
X0562431Y0638351D01*
X0564451Y0639226D01*
X0564487Y063924D01*
X0564524Y0639256D01*
X0564544Y0639263D01*
X0564562Y063927D01*
X0564566Y0639289D01*
X0564569Y063931D01*
X0564578Y0639348D01*
X0564586Y0639387D01*
X0565097Y0641528D01*
X0565108Y0641567D01*
X0565118Y0641607D01*
X0565124Y0641625D01*
X0565129Y0641644D01*
X0565142Y0641683D01*
X0565154Y0641722D01*
X0565161Y064174D01*
X0565168Y0641759D01*
X0565183Y0641796D01*
X0565197Y0641835D01*
X0565206Y0641853D01*
X0565213Y0641871D01*
X056523Y0641907D01*
X0565247Y0641945D01*
X0565257Y0641962D01*
X0565265Y064198D01*
X0565285Y0642016D01*
X0565304Y0642052D01*
X0565314Y0642068D01*
X0565324Y0642086D01*
X0565346Y064212D01*
X0565367Y0642155D01*
X0565378Y0642171D01*
X0565389Y0642188D01*
X0565412Y064222D01*
X0565436Y0642254D01*
X0565448Y0642269D01*
X0565459Y0642285D01*
X0565485Y0642317D01*
X0565511Y0642349D01*
X0566143Y0643103D01*
X0566224Y0643193D01*
X0566309Y0643278D01*
X05664Y0643358D01*
X0566496Y0643432D01*
X0566595Y0643501D01*
X0566699Y0643563D01*
X0566806Y0643619D01*
X0566917Y0643668D01*
X056703Y064371D01*
X0567145Y0643746D01*
X0567263Y0643774D01*
X0567382Y0643796D01*
X0567502Y064381D01*
X0567622Y0643817D01*
X0567743Y0643816D01*
D02*
G37*
G36*
X0616664Y0590596D02*
X061667Y0590596D01*
X0616791Y0590583D01*
X061691Y0590562D01*
X0616955Y0590551D01*
X0617027Y0590534D01*
X0617108Y059051D01*
X0617143Y0590499D01*
X0617185Y0590484D01*
X0617256Y0590458D01*
X0617319Y059043D01*
X0617367Y0590409D01*
X0617475Y0590354D01*
X0617552Y0590309D01*
X0617579Y0590293D01*
X0617679Y0590225D01*
X0617775Y0590152D01*
X0617866Y0590072D01*
X0617952Y0589988D01*
D01*
X0617952Y0589988D01*
X0618034Y0589898D01*
X0618049Y0589879D01*
X0618109Y0589804D01*
X0618179Y0589705D01*
X0618242Y0589602D01*
X0621195Y0584488D01*
X0621195Y0584488D01*
X0621221Y0584439D01*
X0621252Y0584381D01*
X0621303Y0584271D01*
X062132Y0584228D01*
X0621347Y0584159D01*
X0621372Y0584081D01*
X0621384Y0584044D01*
X0621414Y0583927D01*
X0621422Y0583888D01*
X0621437Y0583808D01*
X0621451Y0583704D01*
X0621453Y0583688D01*
X0621461Y0583568D01*
X0621463Y0583447D01*
X0621457Y0583332D01*
X0621457Y0583326D01*
X0621443Y0583206D01*
X062144Y0583185D01*
X0621423Y0583087D01*
X0621395Y0582969D01*
X062136Y0582854D01*
X0621318Y058274D01*
X0621291Y0582678D01*
X062127Y0582629D01*
X0621242Y0582574D01*
X0621215Y0582522D01*
X0621153Y0582418D01*
X0621086Y0582318D01*
X0621012Y0582222D01*
X0620933Y058213D01*
X0620848Y0582044D01*
D01*
X0620848Y0582044D01*
X0620839Y0582035D01*
X0620759Y0581963D01*
X0620688Y0581907D01*
X0620664Y0581888D01*
X0620647Y0581876D01*
X0620566Y0581818D01*
X0620463Y0581754D01*
X0620462Y0581754D01*
X061961Y0581262D01*
X0619575Y0581243D01*
X0619539Y0581223D01*
X0619521Y0581214D01*
X0619504Y0581205D01*
X0619467Y0581188D01*
X061943Y058117D01*
X0619412Y0581163D01*
X0619394Y0581154D01*
X0619356Y058114D01*
X0619318Y0581124D01*
X06193Y0581117D01*
X0619282Y058111D01*
X0619243Y0581098D01*
X0619204Y0581084D01*
X0619185Y0581079D01*
X0619167Y0581073D01*
X0619127Y0581063D01*
X0619088Y0581052D01*
X0619069Y0581048D01*
X061905Y0581043D01*
X0619009Y0581035D01*
X061897Y0581027D01*
X061895Y0581024D01*
X0618931Y058102D01*
X0618891Y0581015D01*
X061885Y0581009D01*
X061883Y0581007D01*
X0618811Y0581004D01*
X0618771Y0581002D01*
X061873Y0580998D01*
X0616533Y0580866D01*
X0616494Y0580865D01*
X0616454Y0580863D01*
X0616433Y0580863D01*
X0616413Y0580862D01*
X0616403Y0580846D01*
X0616393Y0580827D01*
X0616371Y0580794D01*
X0616351Y0580761D01*
X0615138Y0578924D01*
X0615114Y0578891D01*
X0615092Y0578857D01*
X061508Y0578841D01*
X0615068Y0578825D01*
X0615043Y0578793D01*
X0615018Y0578761D01*
X0615005Y0578746D01*
X0614993Y0578731D01*
X0614966Y0578701D01*
X0614939Y057867D01*
X0614925Y0578656D01*
X0614912Y0578641D01*
X0614883Y0578613D01*
X0614854Y0578583D01*
X061484Y057857D01*
X0614826Y0578556D01*
X0614795Y057853D01*
X0614765Y0578503D01*
X0614749Y057849D01*
X0614734Y0578477D01*
X0614702Y0578452D01*
X061467Y0578427D01*
X0614654Y0578416D01*
X0614639Y0578404D01*
X0614605Y0578381D01*
X0614572Y0578357D01*
X0614555Y0578347D01*
X0614538Y0578336D01*
X0614503Y0578315D01*
X0614469Y0578294D01*
X0613616Y0577802D01*
X0613616Y0577802D01*
X061351Y0577744D01*
X061351D01*
X061351Y0577744D01*
X0613492Y0577736D01*
X06134Y0577694D01*
X0613288Y057765D01*
X0613288Y057765D01*
D01*
X0613172Y0577613D01*
X0613116Y0577598D01*
X0613056Y0577583D01*
X061301Y0577574D01*
X0612937Y057756D01*
X0612859Y0577549D01*
X0612817Y0577544D01*
X0612697Y0577535D01*
X0612576Y0577534D01*
X0612576D01*
X0612576D01*
X0612455Y057754D01*
X0612335Y0577553D01*
X0612216Y0577574D01*
X0612132Y0577594D01*
X0612098Y0577602D01*
X0611982Y0577636D01*
X0611901Y0577667D01*
X0611869Y0577678D01*
X0611758Y0577727D01*
X0611651Y0577782D01*
X0611546Y0577843D01*
X0611446Y0577911D01*
X061135Y0577985D01*
X0611283Y0578043D01*
X0611259Y0578064D01*
X0611256Y0578067D01*
X0611173Y0578148D01*
X0611092Y0578238D01*
X0611016Y0578333D01*
X0610947Y0578431D01*
X0610898Y057851D01*
X0610883Y0578534D01*
X060793Y0583648D01*
X06079Y0583706D01*
X0607873Y0583755D01*
X0607822Y0583864D01*
X0607795Y0583933D01*
X0607778Y0583977D01*
X0607766Y0584014D01*
X0607741Y0584092D01*
X0607719Y0584179D01*
X0607711Y0584209D01*
X0607688Y0584328D01*
X0607672Y0584448D01*
X0607664Y0584568D01*
X0607663Y0584689D01*
X0607668Y0584803D01*
X0607669Y058481D01*
X0607682Y058493D01*
X0607703Y0585049D01*
X0607713Y0585094D01*
X060773Y0585167D01*
X0607765Y0585282D01*
X0607807Y0585396D01*
X0607855Y0585507D01*
X060791Y0585614D01*
X0607972Y0585718D01*
X060804Y0585818D01*
X0608113Y0585914D01*
X0608192Y0586006D01*
X0608277Y0586092D01*
X0608367Y0586173D01*
X0608442Y0586233D01*
X0608461Y0586248D01*
X060856Y0586318D01*
X0608599Y0586342D01*
X0608663Y0586382D01*
X0608663Y0586382D01*
X0609515Y0586874D01*
X0609551Y0586893D01*
X0609586Y0586913D01*
X0609604Y0586922D01*
X0609621Y0586931D01*
X0609659Y0586948D01*
X0609695Y0586966D01*
X0609713Y0586973D01*
X0609731Y0586982D01*
X0609769Y0586997D01*
X0609807Y0587012D01*
X0609826Y0587019D01*
X0609844Y0587026D01*
X0609882Y0587038D01*
X0609921Y0587051D01*
X060994Y0587057D01*
X0609959Y0587063D01*
X0609999Y0587073D01*
X0610038Y0587084D01*
X0610057Y0587088D01*
X0610076Y0587093D01*
X0610116Y0587101D01*
X0610156Y0587109D01*
X0610175Y0587112D01*
X0610194Y0587116D01*
X0610235Y0587121D01*
X0610275Y0587127D01*
X0610295Y0587129D01*
X0610314Y0587132D01*
X0610355Y0587135D01*
X0610396Y0587138D01*
X0612593Y058727D01*
X0612632Y0587271D01*
X0612671Y0587273D01*
X0612692Y0587273D01*
X0612712Y0587274D01*
X0612722Y058729D01*
X0612733Y0587309D01*
X0612754Y0587341D01*
X0612775Y0587375D01*
X0613987Y0589212D01*
X0614011Y0589245D01*
X0614034Y0589279D01*
X0614045Y0589294D01*
X0614057Y0589311D01*
X0614082Y0589343D01*
X0614107Y0589375D01*
X061412Y058939D01*
X0614132Y0589405D01*
X061416Y0589435D01*
X0614186Y0589466D01*
X06142Y058948D01*
X0614213Y0589495D01*
X0614243Y0589523D01*
X0614271Y0589552D01*
X0614286Y0589566D01*
X06143Y0589579D01*
X0614331Y0589607D01*
X0614361Y0589634D01*
X0614376Y0589646D01*
X0614391Y0589659D01*
X0614423Y0589684D01*
X0614455Y0589709D01*
X0614471Y058972D01*
X0614487Y0589732D01*
X0614521Y0589755D01*
X0614554Y0589779D01*
X0614571Y0589789D01*
X0614587Y05898D01*
X0614622Y0589821D01*
X0614657Y0589842D01*
X0615509Y0590334D01*
X0615509Y0590334D01*
X0615615Y0590392D01*
X0615725Y0590442D01*
X0615769Y0590459D01*
X0615838Y0590486D01*
X0615916Y0590512D01*
X0615953Y0590523D01*
X0615983Y0590531D01*
X061607Y0590554D01*
X0616165Y0590572D01*
X0616188Y0590577D01*
X0616207Y0590579D01*
X0616308Y0590592D01*
X061642Y05906D01*
X0616429Y0590601D01*
X061655Y0590602D01*
X0616664Y0590596D01*
D02*
G37*
G36*
X0645483Y0525281D02*
X0645587Y0525277D01*
X0645707Y0525266D01*
X0645826Y0525247D01*
X0645944Y052522D01*
X0645944Y052522D01*
X0645944D01*
X0646003Y0525204D01*
X0646061Y0525187D01*
X0646061Y0525187D01*
X0646061D01*
X0646067Y0525185D01*
X0646174Y0525147D01*
X0646286Y05251D01*
X0646342Y0525072D01*
X0646394Y0525046D01*
X064647Y0525003D01*
X0646499Y0524986D01*
X06466Y052492D01*
D01*
X06466Y052492D01*
X0646697Y0524848D01*
X0646789Y052477D01*
X0646868Y0524694D01*
X0646877Y0524686D01*
X0646877Y0524686D01*
X0646877Y0524686D01*
X0646889Y0524673D01*
X0646959Y0524598D01*
X0647036Y0524504D01*
X0647053Y0524481D01*
X0647107Y0524406D01*
X0647172Y0524304D01*
X064723Y0524199D01*
X0647283Y052409D01*
X0647318Y0524002D01*
X0647328Y0523978D01*
X0647367Y0523863D01*
D01*
X0647367Y0523863D01*
X0647398Y0523747D01*
X0647423Y0523628D01*
X0647423Y0523628D01*
X0648448Y0517813D01*
X0648466Y0517693D01*
X0648476Y0517572D01*
X0648479Y0517452D01*
X0648474Y0517331D01*
X0648463Y0517211D01*
X064846Y0517192D01*
X0648444Y0517091D01*
X0648418Y0516973D01*
X0648384Y0516857D01*
X0648374Y0516827D01*
X0648344Y0516743D01*
X0648297Y0516632D01*
X0648243Y0516523D01*
X0648183Y0516419D01*
X0648143Y0516358D01*
X0648117Y0516318D01*
X0648045Y0516221D01*
X0647967Y0516128D01*
X0647883Y0516041D01*
X0647795Y0515959D01*
X0647701Y0515882D01*
X0647604Y0515811D01*
X0647539Y0515769D01*
X0647502Y0515746D01*
X0647455Y051572D01*
X0647396Y0515687D01*
X0647287Y0515635D01*
X0647175Y051559D01*
X064706Y0515551D01*
X0646944Y0515519D01*
X0646825Y0515495D01*
X0646825Y0515495D01*
X0645856Y0515324D01*
X0645816Y0515318D01*
X0645776Y0515311D01*
X0645756Y0515309D01*
X0645737Y0515306D01*
X0645696Y0515303D01*
X0645655Y0515299D01*
X0645636Y0515298D01*
X0645616Y0515296D01*
X0645576Y0515295D01*
X0645535Y0515294D01*
X0645515Y0515294D01*
X0645495Y0515293D01*
X0645455Y0515295D01*
X0645414Y0515296D01*
X0645394Y0515297D01*
X0645374Y0515298D01*
X0645333Y0515302D01*
X0645293Y0515305D01*
X0645274Y0515308D01*
X0645254Y051531D01*
X0645214Y0515316D01*
X0645174Y0515322D01*
X0645154Y0515325D01*
X0645135Y0515329D01*
X0645095Y0515337D01*
X0645055Y0515345D01*
X0645036Y051535D01*
X0645017Y0515355D01*
X0644978Y0515366D01*
X0644938Y0515376D01*
X0642829Y0516004D01*
X0642791Y0516016D01*
X0642754Y0516028D01*
X0642734Y0516035D01*
X0642715Y0516041D01*
X06427Y0516029D01*
X0642684Y0516015D01*
X0642652Y0515992D01*
X0642622Y0515967D01*
X0640854Y0514656D01*
X0640821Y0514633D01*
X0640787Y0514609D01*
X0640771Y0514598D01*
X0640755Y0514587D01*
X064072Y0514566D01*
X0640686Y0514544D01*
X0640668Y0514535D01*
X0640651Y0514524D01*
X0640615Y0514505D01*
X064058Y0514485D01*
X0640562Y0514477D01*
X0640545Y0514468D01*
X0640508Y0514451D01*
X0640471Y0514433D01*
X0640453Y0514426D01*
X0640435Y0514418D01*
X0640396Y0514403D01*
X0640359Y0514388D01*
X064034Y0514382D01*
X0640322Y0514374D01*
X0640282Y0514362D01*
X0640244Y0514349D01*
X0640225Y0514344D01*
X0640206Y0514338D01*
X0640167Y0514328D01*
X0640128Y0514317D01*
X0640108Y0514313D01*
X0640089Y0514309D01*
X0640049Y0514301D01*
X0640009Y0514293D01*
X063904Y0514122D01*
X063892Y0514105D01*
X06388Y0514094D01*
X0638679Y0514091D01*
X0638558Y0514096D01*
X0638438Y0514108D01*
X0638319Y0514127D01*
X0638201Y0514153D01*
X0638085Y0514186D01*
X063797Y0514226D01*
X0637859Y0514273D01*
X0637751Y0514327D01*
X0637646Y0514387D01*
X0637545Y0514453D01*
X0637448Y0514526D01*
X0637356Y0514604D01*
X0637268Y0514687D01*
X0637186Y0514776D01*
X0637109Y0514869D01*
X0637038Y0514967D01*
X0636973Y0515069D01*
X0636915Y0515174D01*
X0636862Y0515283D01*
X0636817Y0515395D01*
X0636778Y051551D01*
X0636747Y0515627D01*
X0636722Y0515745D01*
X0635697Y0521561D01*
X0635697Y0521561D01*
X0635694Y0521578D01*
X0635679Y052168D01*
X063567Y0521791D01*
X0635669Y0521801D01*
X0635666Y0521922D01*
Y0521922D01*
Y0521922D01*
X0635671Y0522042D01*
X0635682Y0522163D01*
X0635701Y0522282D01*
X0635728Y05224D01*
X0635747Y0522467D01*
X0635761Y0522516D01*
X0635773Y052255D01*
X0635801Y052263D01*
X0635829Y0522696D01*
X0635848Y0522742D01*
X0635902Y052285D01*
X0635962Y0522955D01*
X0635996Y0523008D01*
X0636028Y0523056D01*
X0636076Y052312D01*
X06361Y0523153D01*
X0636178Y0523245D01*
X0636262Y0523333D01*
D01*
X0636262Y0523333D01*
X063635Y0523415D01*
X0636444Y0523491D01*
X0636542Y0523562D01*
X0636643Y0523627D01*
X0636749Y0523686D01*
X0636806Y0523713D01*
X0636858Y0523738D01*
X0636904Y0523757D01*
X063697Y0523784D01*
X0637046Y0523809D01*
X0637085Y0523822D01*
X0637116Y0523831D01*
X0637201Y0523854D01*
X0637295Y0523874D01*
X063732Y0523879D01*
X0638289Y052405D01*
X0638329Y0524055D01*
X0638369Y0524062D01*
X0638389Y0524064D01*
X0638409Y0524067D01*
X0638449Y052407D01*
X063849Y0524075D01*
X0638509Y0524076D01*
X0638529Y0524077D01*
X063857Y0524078D01*
X063861Y052408D01*
X063863Y052408D01*
X063865Y052408D01*
X063869Y0524078D01*
X0638731Y0524078D01*
X0638751Y0524076D01*
X0638771Y0524076D01*
X0638812Y0524072D01*
X0638852Y0524068D01*
X0638871Y0524066D01*
X0638891Y0524064D01*
X0638931Y0524057D01*
X0638972Y0524052D01*
X0638991Y0524048D01*
X063901Y0524045D01*
X063905Y0524036D01*
X063909Y0524028D01*
X0639109Y0524023D01*
X0639128Y0524019D01*
X0639167Y0524007D01*
X0639207Y0523997D01*
X0641316Y052337D01*
X0641354Y0523357D01*
X0641391Y0523346D01*
X0641411Y0523338D01*
X064143Y0523332D01*
X0641445Y0523344D01*
X0641461Y0523358D01*
X0641493Y0523382D01*
X0641524Y0523406D01*
X0643291Y0524717D01*
X0643325Y052474D01*
X0643358Y0524764D01*
X0643374Y0524775D01*
X064339Y0524786D01*
X0643425Y0524807D01*
X064346Y0524829D01*
X0643477Y0524839D01*
X0643494Y0524849D01*
X064353Y0524868D01*
X0643565Y0524888D01*
X0643583Y0524897D01*
X06436Y0524906D01*
X0643637Y0524922D01*
X0643674Y052494D01*
X0643692Y0524948D01*
X064371Y0524956D01*
X0643749Y052497D01*
X0643786Y0524986D01*
X0643805Y0524992D01*
X0643823Y0524999D01*
X0643863Y0525011D01*
X0643901Y0525024D01*
X064392Y0525029D01*
X0643938Y0525035D01*
X0643978Y0525045D01*
X0644017Y0525056D01*
X0644037Y052506D01*
X0644056Y0525065D01*
X0644096Y0525072D01*
X0644136Y0525081D01*
X0645105Y0525251D01*
X0645173Y0525261D01*
X0645225Y0525269D01*
X0645255Y0525271D01*
X0645345Y0525279D01*
X0645455Y0525281D01*
X0645466Y0525282D01*
X0645466D01*
X0645466D01*
X0645483Y0525281D01*
D02*
G37*
G36*
X0237131Y0492561D02*
X0237626Y0492356D01*
X0238072Y0492058D01*
X0238452Y0491678D01*
X023875Y0491232D01*
X0238955Y0490737D01*
X023906Y049021D01*
Y0489942D01*
Y0488347D01*
Y0488042D01*
X0238941Y0487444D01*
X0238708Y0486881D01*
X0238369Y0486374D01*
X0237938Y0485943D01*
X0237431Y0485604D01*
X0236868Y0485371D01*
X023627Y0485252D01*
X0234153D01*
Y0488247D01*
Y0488247D01*
X0234153Y0488248D01*
X0234153Y0488248D01*
X0234154Y0488248D01*
X0236417D01*
X0236562Y0488262D01*
X023683Y0488373D01*
X0237036Y0488579D01*
X0237147Y0488847D01*
X0237161Y0488992D01*
Y0489016D01*
X0237149Y048914D01*
X0237054Y0489368D01*
X0236879Y0489543D01*
X0236651Y0489638D01*
X0236527Y048965D01*
X0232151D01*
X0232017Y0489637D01*
X0231768Y0489534D01*
X0231578Y0489344D01*
X0231475Y0489095D01*
X0231462Y0488961D01*
X0231476Y0488823D01*
X0231581Y0488568D01*
X0231777Y0488373D01*
X0232032Y0488268D01*
X023217Y0488254D01*
X0232565D01*
Y0485247D01*
X0232569Y0485242D01*
X0226352D01*
Y0492055D01*
X0228252D01*
Y0488153D01*
X0230439D01*
Y0488246D01*
X02303Y0488378D01*
X023006Y0488678D01*
X0229863Y0489007D01*
X0229713Y0489361D01*
X0229663Y0489546D01*
X0229608Y048975D01*
X0229567Y049017D01*
X0229597Y0490591D01*
X0229698Y0491001D01*
X0229782Y0491195D01*
X0229782D01*
X0229852Y0491356D01*
X0230034Y0491656D01*
X0230257Y0491927D01*
X0230515Y0492166D01*
X0230659Y0492266D01*
X0230795Y049236D01*
X0231093Y0492506D01*
X023141Y0492605D01*
X0231737Y0492655D01*
X0231903Y0492655D01*
X0236336Y0492655D01*
Y0492666D01*
X0236604D01*
X0237131Y0492561D01*
D02*
G37*
G36*
X0643191Y0456664D02*
X0643309Y0456661D01*
X0643429Y0456651D01*
X0643531Y0456636D01*
X0643549Y0456634D01*
X0644518Y0456463D01*
X0644558Y0456455D01*
X0644598Y0456447D01*
X0644617Y0456442D01*
X0644636Y0456438D01*
X0644676Y0456428D01*
X0644715Y0456418D01*
X0644734Y0456412D01*
X0644753Y0456407D01*
X0644792Y0456393D01*
X0644831Y0456381D01*
X0644849Y0456374D01*
X0644868Y0456368D01*
X0644905Y0456353D01*
X0644943Y0456338D01*
X0644961Y045633D01*
X0644979Y0456322D01*
X0645016Y0456305D01*
X0645053Y0456288D01*
X0645071Y0456279D01*
X0645089Y045627D01*
X0645124Y045625D01*
X064516Y0456231D01*
X0645177Y0456221D01*
X0645194Y0456212D01*
X0645228Y045619D01*
X0645263Y0456168D01*
X064528Y0456157D01*
X0645296Y0456147D01*
X0645329Y0456123D01*
X0645363Y0456099D01*
X064713Y0454788D01*
X0647161Y0454764D01*
X0647193Y045474D01*
X0647209Y0454726D01*
X0647224Y0454714D01*
X0647242Y045472D01*
X0647262Y0454728D01*
X0647301Y045474D01*
X0647337Y0454752D01*
X0649447Y0455379D01*
X0649486Y045539D01*
X0649525Y0455401D01*
X0649545Y0455405D01*
X0649564Y045541D01*
X0649604Y0455418D01*
X0649644Y0455427D01*
X0649663Y045543D01*
X0649682Y0455434D01*
X0649722Y045544D01*
X0649763Y0455446D01*
X0649783Y0455448D01*
X0649802Y0455451D01*
X0649842Y0455454D01*
X0649883Y0455458D01*
X0649903Y0455458D01*
X0649923Y045546D01*
X0649964Y0455461D01*
X0650004Y0455462D01*
X0650024Y0455462D01*
X0650043Y0455462D01*
X0650084Y045546D01*
X0650125Y0455459D01*
X0650145Y0455458D01*
X0650164Y0455457D01*
X0650204Y0455453D01*
X0650245Y0455449D01*
X0650265Y0455446D01*
X0650284Y0455444D01*
X0650324Y0455438D01*
X0650365Y0455432D01*
X0651334Y0455261D01*
X0651403Y0455247D01*
X0651452Y0455236D01*
X0651516Y0455219D01*
X0651569Y0455205D01*
X0651684Y0455166D01*
X0651796Y0455121D01*
X0651905Y0455068D01*
X0651905D01*
X0651905Y0455068D01*
X065201Y045501D01*
X0652112Y0454945D01*
X0652156Y0454913D01*
X065221Y0454874D01*
X0652243Y0454846D01*
X0652304Y0454797D01*
X0652392Y0454715D01*
X0652437Y0454668D01*
X0652475Y0454627D01*
X0652553Y0454535D01*
X0652626Y0454438D01*
X0652692Y0454337D01*
X0652752Y0454232D01*
X0652752Y0454232D01*
D01*
X0652806Y0454124D01*
X0652853Y0454012D01*
X0652865Y0453979D01*
X0652893Y0453899D01*
X0652912Y0453832D01*
X0652926Y0453782D01*
X0652952Y0453664D01*
X0652971Y0453545D01*
X0652983Y0453425D01*
X0652987Y0453313D01*
X0652988Y0453304D01*
Y0453304D01*
Y0453304D01*
X0652985Y0453183D01*
X0652975Y0453063D01*
X065297Y0453028D01*
X0652957Y0452943D01*
X0652957Y0452943D01*
X0651932Y0447127D01*
X0651932Y0447127D01*
Y0447127D01*
X0651907Y0447009D01*
X0651875Y0446892D01*
X0651849Y0446813D01*
X0651837Y0446778D01*
X0651837Y0446778D01*
D01*
X0651791Y0446666D01*
X0651777Y0446637D01*
X0651739Y0446557D01*
X0651681Y0446451D01*
X0651615Y0446349D01*
X0651545Y0446251D01*
X0651545Y0446251D01*
X0651545Y0446251D01*
X0651468Y0446158D01*
X0651409Y0446095D01*
X0651385Y0446069D01*
X0651385Y0446069D01*
X0651385Y0446069D01*
X0651298Y0445986D01*
X0651241Y0445937D01*
X0651206Y0445908D01*
X0651206Y0445908D01*
D01*
X0651204Y0445906D01*
X0651109Y0445836D01*
X0651008Y0445769D01*
X0651008Y0445769D01*
X0651008Y0445769D01*
X0650903Y0445709D01*
X0650829Y0445673D01*
X0650795Y0445656D01*
X0650683Y0445609D01*
X0650683Y0445609D01*
X0650683Y0445609D01*
X0650656Y0445599D01*
X0650569Y0445568D01*
X0650453Y0445535D01*
X0650335Y0445509D01*
X0650335Y0445509D01*
X0650335D01*
X065033Y0445508D01*
X0650216Y044549D01*
X0650095Y0445478D01*
X0649975Y0445474D01*
X0649975D01*
X0649975D01*
X064996Y0445474D01*
X0649854Y0445477D01*
X0649733Y0445487D01*
X0649614Y0445504D01*
X0649614D01*
X0649614Y0445504D01*
X0648644Y0445675D01*
X0648605Y0445683D01*
X0648564Y0445691D01*
X0648545Y0445696D01*
X0648526Y04457D01*
X0648487Y044571D01*
X0648447Y044572D01*
X0648428Y0445726D01*
X0648409Y0445731D01*
X0648371Y0445744D01*
X0648332Y0445757D01*
X0648314Y0445764D01*
X0648295Y044577D01*
X0648257Y0445785D01*
X0648219Y04458D01*
X0648201Y0445808D01*
X0648183Y0445816D01*
X0648146Y0445833D01*
X0648109Y044585D01*
X0648092Y0445859D01*
X0648074Y0445868D01*
X0648038Y0445888D01*
X0648002Y0445906D01*
X0647985Y0445917D01*
X0647968Y0445926D01*
X0647934Y0445948D01*
X0647899Y0445969D01*
X0647883Y0445981D01*
X0647866Y0445991D01*
X0647833Y0446015D01*
X06478Y0446038D01*
X0646032Y044735D01*
X0646001Y0447374D01*
X064597Y0447398D01*
X0645954Y0447411D01*
X0645938Y0447424D01*
X064592Y0447417D01*
X06459Y044741D01*
X0645862Y0447398D01*
X0645825Y0447386D01*
X0643716Y0446759D01*
X0643676Y0446748D01*
X0643637Y0446737D01*
X0643618Y0446733D01*
X0643599Y0446728D01*
X0643559Y044672D01*
X0643519Y0446711D01*
X06435Y0446708D01*
X064348Y0446704D01*
X064344Y0446698D01*
X06434Y0446692D01*
X064338Y044669D01*
X0643361Y0446687D01*
X064332Y0446684D01*
X0643279Y044668D01*
X064326Y0446679D01*
X064324Y0446678D01*
X0643199Y0446677D01*
X0643159Y0446676D01*
X0643139Y0446676D01*
X0643119Y0446676D01*
X0643079Y0446677D01*
X0643038Y0446678D01*
X0643018Y044668D01*
X0642998Y0446681D01*
X0642958Y0446685D01*
X0642917Y0446689D01*
X0642898Y0446691D01*
X0642878Y0446694D01*
X0642838Y04467D01*
X0642798Y0446706D01*
X0641828Y0446877D01*
X0641759Y0446891D01*
X064171Y0446902D01*
X0641623Y0446925D01*
X0641593Y0446933D01*
X0641593Y0446933D01*
D01*
X0641589Y0446935D01*
X0641479Y0446972D01*
X0641367Y0447017D01*
X0641258Y044707D01*
X0641258D01*
X0641258Y044707D01*
X0641152Y0447128D01*
X064105Y0447193D01*
X0641006Y0447225D01*
X0640952Y0447264D01*
X0640859Y0447341D01*
X0640846Y0447353D01*
X064077Y0447423D01*
X0640726Y044747D01*
X0640687Y044751D01*
X0640609Y0447603D01*
X0640537Y04477D01*
X0640471Y0447801D01*
X064041Y0447906D01*
X064041Y0447906D01*
D01*
X0640357Y0448014D01*
X064031Y0448125D01*
X0640298Y0448159D01*
X064027Y0448239D01*
X064025Y0448306D01*
X0640236Y0448355D01*
X064021Y0448474D01*
X0640191Y0448593D01*
X0640179Y0448713D01*
X0640175Y0448825D01*
X0640175Y0448834D01*
Y0448834D01*
Y0448834D01*
X0640178Y0448955D01*
X0640188Y0449075D01*
X0640193Y044911D01*
X0640205Y0449195D01*
X0640205Y0449195D01*
X0641231Y0455011D01*
X0641255Y0455129D01*
X0641287Y0455246D01*
X0641326Y045536D01*
X0641371Y0455472D01*
X0641396Y0455524D01*
X0641423Y0455581D01*
X0641482Y0455687D01*
X0641547Y0455789D01*
X0641567Y0455816D01*
X0641618Y0455887D01*
X0641695Y045598D01*
X0641771Y0456062D01*
X0641777Y0456069D01*
X0641777Y0456069D01*
D01*
X0641864Y0456152D01*
X0641879Y0456164D01*
X0641957Y045623D01*
X0642029Y0456284D01*
X0642054Y0456302D01*
X0642155Y0456369D01*
X064226Y0456429D01*
X0642332Y0456464D01*
X0642368Y0456482D01*
X0642479Y0456529D01*
X0642593Y0456569D01*
X0642709Y0456603D01*
X0642827Y0456629D01*
X0642947Y0456648D01*
X0643067Y045666D01*
X0643188Y0456664D01*
X0643188D01*
D01*
X0643191Y0456664D01*
D02*
G37*
G36*
X0628696Y03879D02*
X0628817Y0387892D01*
X0628937Y0387876D01*
X0629006Y0387862D01*
X0629056Y0387853D01*
X0629082Y0387846D01*
X0629173Y0387823D01*
X0629288Y0387786D01*
X0629383Y0387749D01*
X06294Y0387742D01*
X0629418Y0387733D01*
X062951Y0387691D01*
X0629616Y0387634D01*
X0630469Y0387141D01*
X0630503Y038712D01*
X0630538Y0387099D01*
X0630555Y0387088D01*
X0630572Y0387078D01*
X0630605Y0387054D01*
X0630639Y0387032D01*
X0630654Y038702D01*
X063067Y0387008D01*
X0630702Y0386983D01*
X0630734Y0386958D01*
X0630749Y0386945D01*
X0630765Y0386933D01*
X0630795Y0386906D01*
X0630826Y0386879D01*
X063084Y0386865D01*
X0630854Y0386852D01*
X0630883Y0386822D01*
X0630912Y0386794D01*
X0630925Y0386779D01*
X0630939Y0386765D01*
X0630966Y0386735D01*
X0630993Y0386704D01*
X0631005Y0386689D01*
X0631018Y0386674D01*
X0631043Y0386642D01*
X0631068Y038661D01*
X063108Y0386594D01*
X0631092Y0386578D01*
X0631115Y0386544D01*
X0631138Y0386511D01*
X0632351Y0384675D01*
X0632371Y0384641D01*
X0632393Y0384608D01*
X0632403Y038459D01*
X0632413Y0384573D01*
X0632433Y0384572D01*
X0632454Y0384573D01*
X0632493Y0384571D01*
X0632533Y0384569D01*
X063473Y0384437D01*
X063477Y0384434D01*
X0634811Y0384431D01*
X0634831Y0384428D01*
X063485Y0384427D01*
X063489Y038442D01*
X0634931Y0384415D01*
X063495Y0384411D01*
X063497Y0384408D01*
X0635009Y03844D01*
X0635049Y0384392D01*
X0635069Y0384387D01*
X0635088Y0384383D01*
X0635127Y0384372D01*
X0635167Y0384362D01*
X0635185Y0384356D01*
X0635204Y0384351D01*
X0635243Y0384337D01*
X0635282Y0384325D01*
X06353Y0384318D01*
X0635319Y0384311D01*
X0635356Y0384296D01*
X0635394Y0384281D01*
X0635412Y0384273D01*
X063543Y0384265D01*
X0635466Y0384247D01*
X0635504Y038423D01*
X0635521Y0384221D01*
X0635539Y0384212D01*
X0635574Y0384192D01*
X063561Y0384173D01*
X0636463Y0383681D01*
X0636565Y0383617D01*
X0636664Y0383548D01*
X0636759Y0383472D01*
X0636848Y0383391D01*
X0636933Y0383305D01*
X0637012Y0383213D01*
X0637086Y0383118D01*
X0637153Y0383017D01*
X0637215Y0382913D01*
X063727Y0382806D01*
X0637297Y0382744D01*
X0637318Y0382695D01*
X063736Y0382582D01*
X0637395Y0382466D01*
X0637423Y0382348D01*
X0637443Y0382229D01*
X0637457Y0382109D01*
X0637463Y0381988D01*
X0637462Y0381868D01*
X0637453Y0381747D01*
X0637437Y0381627D01*
X0637414Y0381508D01*
X0637384Y0381391D01*
X0637347Y0381276D01*
X0637303Y0381164D01*
X0637287Y0381129D01*
X0637252Y0381054D01*
X0637195Y0380948D01*
X0637195Y0380947D01*
X0634242Y0375833D01*
X0634179Y037573D01*
X0634109Y0375632D01*
X0634064Y0375575D01*
X0634034Y0375537D01*
X0634018Y037552D01*
X0633953Y0375448D01*
X0633866Y0375363D01*
X0633775Y0375284D01*
X063373Y037525D01*
X0633679Y037521D01*
X0633644Y0375186D01*
X0633579Y0375143D01*
X0633494Y0375092D01*
X0633475Y0375081D01*
X0633367Y0375026D01*
D01*
X0633367Y0375026D01*
X0633256Y0374977D01*
X0633227Y0374967D01*
X0633143Y0374936D01*
X0633027Y0374901D01*
X063291Y0374873D01*
X0632848Y0374863D01*
X0632791Y0374853D01*
X0632711Y0374844D01*
X063267Y0374839D01*
X063255Y0374833D01*
X063255D01*
D01*
X0632429Y0374834D01*
X0632411Y0374836D01*
X0632308Y0374843D01*
X0632189Y0374859D01*
X0632116Y0374873D01*
X063207Y0374882D01*
X063201Y0374897D01*
X0631953Y0374912D01*
X0631838Y0374949D01*
X0631725Y0374993D01*
X0631615Y0375044D01*
X0631517Y0375097D01*
X0631509Y0375101D01*
X0631509Y0375101D01*
X0630657Y0375593D01*
X0630622Y0375614D01*
X0630587Y0375635D01*
X0630571Y0375646D01*
X0630554Y0375657D01*
X063052Y037568D01*
X0630487Y0375703D01*
X0630471Y0375715D01*
X0630455Y0375726D01*
X0630423Y0375752D01*
X0630391Y0375777D01*
X0630376Y037579D01*
X0630361Y0375802D01*
X0630331Y0375829D01*
X06303Y0375856D01*
X0630286Y0375869D01*
X0630271Y0375883D01*
X0630242Y0375912D01*
X0630213Y037594D01*
X06302Y0375955D01*
X0630186Y0375969D01*
X063016Y0376D01*
X0630132Y037603D01*
X063012Y0376046D01*
X0630107Y037606D01*
X0630082Y0376093D01*
X0630057Y0376125D01*
X0630046Y0376141D01*
X0630034Y0376156D01*
X0630011Y037619D01*
X0629987Y0376223D01*
X0628775Y037806D01*
X0628754Y0378094D01*
X0628733Y0378127D01*
X0628722Y0378145D01*
X0628712Y0378162D01*
X0628692Y0378162D01*
X0628671Y0378162D01*
X0628632Y0378164D01*
X0628592Y0378165D01*
X0626396Y0378297D01*
X0626355Y0378301D01*
X0626314Y0378304D01*
X0626295Y0378306D01*
X0626275Y0378308D01*
X0626235Y0378314D01*
X0626194Y0378319D01*
X0626175Y0378323D01*
X0626156Y0378326D01*
X0626116Y0378334D01*
X0626076Y0378342D01*
X0626057Y0378347D01*
X0626038Y0378351D01*
X0625998Y0378362D01*
X0625959Y0378372D01*
X062594Y0378379D01*
X0625921Y0378384D01*
X0625882Y0378397D01*
X0625844Y037841D01*
X0625826Y0378417D01*
X0625807Y0378423D01*
X0625769Y0378439D01*
X0625731Y0378453D01*
X0625713Y0378462D01*
X0625695Y0378469D01*
X0625659Y0378487D01*
X0625622Y0378504D01*
X0625604Y0378514D01*
X0625587Y0378522D01*
X0625551Y0378542D01*
X0625515Y0378561D01*
X0624663Y0379054D01*
X0624638Y0379069D01*
X062456Y0379117D01*
X0624461Y0379187D01*
X0624423Y0379217D01*
X0624367Y0379262D01*
X0624329Y0379297D01*
X0624277Y0379343D01*
X0624194Y0379428D01*
X0624192Y037943D01*
X062418Y0379444D01*
X0624113Y0379521D01*
X0624074Y0379572D01*
X062404Y0379617D01*
X0623972Y0379717D01*
X0623911Y0379821D01*
X0623857Y0379926D01*
X0623855Y0379929D01*
D01*
X0623855Y0379929D01*
X0623807Y0380039D01*
X0623765Y0380153D01*
X062373Y0380269D01*
X0623703Y0380386D01*
X0623689Y0380464D01*
X0623682Y0380505D01*
X0623669Y0380625D01*
X0623668Y0380638D01*
X0623663Y0380746D01*
X0623664Y0380867D01*
X0623672Y0380988D01*
X0623676Y0381019D01*
X0623688Y0381107D01*
X0623702Y038118D01*
X0623711Y0381226D01*
X0623741Y0381343D01*
X0623765Y0381417D01*
X0623778Y0381458D01*
X0623822Y0381571D01*
X0623826Y0381579D01*
X0623873Y038168D01*
X062393Y0381787D01*
X062393Y0381787D01*
X0626883Y0386901D01*
X0626883Y0386901D01*
X0626937Y0386989D01*
X0626947Y0387004D01*
X0626947Y0387004D01*
X0626947Y0387004D01*
X0627016Y0387103D01*
X0627054Y038715D01*
X0627092Y0387197D01*
X0627173Y0387287D01*
X0627173Y0387287D01*
D01*
X0627259Y0387371D01*
X062735Y0387451D01*
X0627446Y0387524D01*
X0627485Y038755D01*
X0627546Y0387592D01*
X0627627Y0387639D01*
X062765Y0387653D01*
X0627758Y0387708D01*
X0627834Y0387742D01*
X0627869Y0387757D01*
X0627982Y0387799D01*
X0627982D01*
X0627982Y0387799D01*
X0628098Y0387833D01*
X0628216Y0387861D01*
X0628273Y0387871D01*
X0628335Y0387882D01*
X0628375Y0387886D01*
X0628455Y0387895D01*
X0628576Y0387901D01*
X0628696Y03879D01*
D02*
G37*
G36*
X0594329Y0331025D02*
X0594449Y0331011D01*
X0594492Y0331003D01*
X0594568Y033099D01*
X0594628Y0330975D01*
X0594686Y0330961D01*
X0594757Y0330939D01*
X0594801Y0330925D01*
X0594914Y0330883D01*
X0594926Y0330878D01*
X0595024Y0330834D01*
X0595132Y0330778D01*
X0595166Y0330757D01*
X0595235Y0330716D01*
X0595281Y0330684D01*
X0595335Y0330647D01*
X0595431Y0330573D01*
X0595509Y0330504D01*
X0595521Y0330493D01*
X0595607Y0330408D01*
D01*
X0595607Y0330408D01*
X0595687Y0330318D01*
X0595687Y0330318D01*
X059632Y0329564D01*
X0596345Y0329532D01*
X0596371Y0329501D01*
X0596383Y0329485D01*
X0596395Y0329469D01*
X0596418Y0329436D01*
X0596442Y0329403D01*
X0596453Y0329386D01*
X0596464Y032937D01*
X0596485Y0329335D01*
X0596507Y0329301D01*
X0596517Y0329283D01*
X0596527Y0329267D01*
X0596546Y0329231D01*
X0596566Y0329195D01*
X0596574Y0329177D01*
X0596583Y032916D01*
X05966Y0329123D01*
X0596618Y0329086D01*
X0596625Y0329068D01*
X0596633Y032905D01*
X0596648Y0329012D01*
X0596663Y0328974D01*
X0596669Y0328955D01*
X0596677Y0328937D01*
X0596689Y0328898D01*
X0596702Y0328859D01*
X0596707Y032884D01*
X0596713Y0328822D01*
X0596723Y0328782D01*
X0596734Y0328743D01*
X0597245Y0326602D01*
X0597253Y0326564D01*
X0597262Y0326525D01*
X0597265Y0326504D01*
X0597269Y0326485D01*
X0597287Y0326478D01*
X0597307Y0326471D01*
X0597344Y0326455D01*
X059738Y0326441D01*
X0599399Y0325566D01*
X0599436Y0325548D01*
X0599473Y0325532D01*
X0599491Y0325523D01*
X0599509Y0325514D01*
X0599545Y0325495D01*
X0599581Y0325476D01*
X0599597Y0325466D01*
X0599615Y0325456D01*
X0599649Y0325435D01*
X0599684Y0325414D01*
X0599701Y0325403D01*
X0599717Y0325392D01*
X059975Y0325369D01*
X0599784Y0325345D01*
X0599799Y0325333D01*
X0599816Y0325322D01*
X0599847Y0325296D01*
X0599879Y0325271D01*
X0599894Y0325258D01*
X0599909Y0325246D01*
X0599939Y0325218D01*
X059997Y0325191D01*
X0599984Y0325178D01*
X0599999Y0325164D01*
X0600027Y0325135D01*
X0600056Y0325106D01*
X0600069Y0325092D01*
X0600083Y0325077D01*
X0600109Y0325046D01*
X0600136Y0325016D01*
X0600769Y0324262D01*
X0600769Y0324262D01*
X0600804Y0324218D01*
X0600844Y0324167D01*
X0600913Y0324068D01*
X0600976Y0323965D01*
X0601025Y0323871D01*
X0601032Y0323858D01*
Y0323858D01*
X0601032Y0323858D01*
X0601042Y0323835D01*
X0601082Y0323748D01*
X0601125Y0323635D01*
X0601125Y0323635D01*
Y0323635D01*
X0601127Y0323629D01*
X0601162Y032352D01*
X0601191Y0323402D01*
X0601203Y0323336D01*
X0601213Y0323284D01*
X0601223Y0323208D01*
X0601228Y0323164D01*
X0601236Y0323043D01*
X0601236Y0322922D01*
D01*
Y0322922D01*
X0601229Y0322801D01*
X0601225Y0322759D01*
X0601215Y0322681D01*
X0601194Y0322563D01*
X0601186Y0322531D01*
X0601165Y0322445D01*
X0601132Y0322338D01*
X060113Y0322329D01*
Y0322329D01*
X060113Y0322329D01*
X0601087Y0322216D01*
X060105Y0322133D01*
X0601038Y0322106D01*
X0601038Y0322106D01*
Y0322106D01*
X0601036Y0322101D01*
X0600982Y0321999D01*
X0600933Y0321916D01*
X060092Y0321895D01*
X0600852Y0321795D01*
X060082Y0321754D01*
X0600778Y03217D01*
X0600698Y0321609D01*
X0600613Y0321523D01*
X0600522Y0321443D01*
X0595998Y0317647D01*
X0595998Y0317647D01*
X0595903Y0317572D01*
X0595804Y0317503D01*
X0595701Y031744D01*
X0595594Y0317384D01*
X0595484Y0317334D01*
X0595441Y0317318D01*
X0595371Y0317291D01*
X0595256Y0317254D01*
X0595139Y0317225D01*
X059502Y0317203D01*
X05949Y0317188D01*
X0594779Y031718D01*
X0594659Y031718D01*
D01*
X0594659D01*
X0594538Y0317187D01*
X0594418Y0317201D01*
X0594299Y0317222D01*
X0594261Y0317231D01*
X0594181Y0317251D01*
X0594137Y0317264D01*
X0594066Y0317286D01*
X0593981Y0317318D01*
X0593953Y0317329D01*
X0593931Y0317338D01*
X0593842Y0317378D01*
X0593787Y0317407D01*
X0593735Y0317434D01*
X0593632Y0317496D01*
X0593532Y0317564D01*
X0593436Y0317638D01*
X0593346Y0317718D01*
X059326Y0317804D01*
D01*
X059326Y0317804D01*
X059325Y0317814D01*
X059318Y0317894D01*
X0593179Y0317894D01*
X0592547Y0318648D01*
X0592522Y031868D01*
X0592496Y0318711D01*
X0592484Y0318727D01*
X0592472Y0318743D01*
X0592449Y0318776D01*
X0592425Y0318809D01*
X0592414Y0318826D01*
X0592403Y0318842D01*
X0592382Y0318877D01*
X059236Y0318911D01*
X059235Y0318928D01*
X059234Y0318945D01*
X0592321Y0318981D01*
X0592301Y0319017D01*
X0592293Y0319035D01*
X0592284Y0319052D01*
X0592267Y0319089D01*
X0592249Y0319126D01*
X0592242Y0319144D01*
X0592234Y0319162D01*
X0592219Y03192D01*
X0592204Y0319238D01*
X0592197Y0319256D01*
X059219Y0319275D01*
X0592178Y0319314D01*
X0592165Y0319352D01*
X059216Y0319372D01*
X0592154Y031939D01*
X0592144Y0319429D01*
X0592134Y0319469D01*
X0591622Y032161D01*
X0591614Y0321648D01*
X0591605Y0321687D01*
X0591602Y0321708D01*
X0591598Y0321726D01*
X059158Y0321734D01*
X059156Y0321741D01*
X0591523Y0321756D01*
X0591487Y0321771D01*
X0589468Y0322646D01*
X0589431Y0322663D01*
X0589394Y032268D01*
X0589376Y0322689D01*
X0589358Y0322697D01*
X0589323Y0322717D01*
X0589286Y0322736D01*
X0589269Y0322746D01*
X0589252Y0322755D01*
X0589218Y0322777D01*
X0589183Y0322798D01*
X0589166Y0322809D01*
X058915Y0322819D01*
X0589116Y0322843D01*
X0589083Y0322866D01*
X0589068Y0322878D01*
X0589051Y032289D01*
X0589019Y0322916D01*
X0588988Y032294D01*
X0588973Y0322953D01*
X0588958Y0322966D01*
X0588927Y0322993D01*
X0588897Y032302D01*
X0588883Y0323034D01*
X0588868Y0323047D01*
X058884Y0323077D01*
X0588811Y0323106D01*
X0588798Y032312D01*
X0588784Y0323134D01*
X0588758Y0323165D01*
X0588731Y0323196D01*
X0588098Y032395D01*
X0588098Y032395D01*
X0588039Y0324025D01*
X0588023Y0324045D01*
X0588002Y0324075D01*
X0587954Y0324144D01*
X0587891Y0324247D01*
X0587835Y0324354D01*
X0587785Y0324464D01*
X0587742Y0324577D01*
X0587705Y0324692D01*
X0587676Y0324809D01*
X0587658Y0324906D01*
X0587654Y0324928D01*
X0587639Y0325048D01*
X0587631Y0325169D01*
X0587631Y032529D01*
D01*
Y032529D01*
X0587637Y032541D01*
X0587652Y032553D01*
X0587673Y0325649D01*
X0587679Y0325672D01*
X0587702Y0325767D01*
X0587737Y0325882D01*
X058778Y0325995D01*
X0587829Y0326106D01*
X0587856Y0326157D01*
X0587885Y0326213D01*
X0587922Y0326275D01*
X0587947Y0326317D01*
X0587968Y0326348D01*
X0588015Y0326416D01*
X0588089Y0326512D01*
X058816Y0326591D01*
X0588169Y0326602D01*
X058817Y0326603D01*
X0588254Y0326688D01*
X0588345Y0326769D01*
X0592869Y0330565D01*
X0592963Y033064D01*
X0593063Y0330709D01*
X0593143Y0330758D01*
X0593166Y0330771D01*
X0593273Y0330828D01*
X0593273D01*
X0593273Y0330828D01*
X0593383Y0330878D01*
X0593409Y0330888D01*
X0593496Y0330921D01*
X0593568Y0330944D01*
X0593611Y0330957D01*
X0593728Y0330987D01*
X0593802Y0331001D01*
X0593847Y0331009D01*
X0593877Y0331013D01*
X0593967Y0331024D01*
X0594072Y0331031D01*
X0594088Y0331032D01*
X0594208Y0331032D01*
D01*
X0594208D01*
X0594329Y0331025D01*
D02*
G37*
G36*
X0539392Y0292084D02*
X0539512Y0292072D01*
X0539631Y0292052D01*
X0539722Y0292031D01*
X0539749Y0292025D01*
X0539783Y0292015D01*
X0539865Y0291991D01*
X0539979Y029195D01*
X054009Y0291902D01*
X0540198Y0291848D01*
X0540241Y0291823D01*
X0540302Y0291787D01*
X0540342Y029176D01*
X0540403Y029172D01*
X0540458Y0291679D01*
X0540499Y0291647D01*
X0540578Y029158D01*
X0540591Y0291569D01*
X0540678Y0291485D01*
X0540753Y0291403D01*
X054076Y0291395D01*
X0540774Y0291378D01*
X0540836Y0291302D01*
X0540906Y0291203D01*
X054097Y0291101D01*
X0541028Y0290995D01*
X054108Y0290885D01*
X0541124Y0290773D01*
X0541461Y0289848D01*
X0541474Y0289809D01*
X0541487Y0289771D01*
X0541493Y0289752D01*
X0541499Y0289734D01*
X0541509Y0289694D01*
X0541521Y0289655D01*
X0541525Y0289636D01*
X054153Y0289617D01*
X0541538Y0289577D01*
X0541547Y0289537D01*
X054155Y0289517D01*
X0541553Y0289498D01*
X0541559Y0289458D01*
X0541566Y0289418D01*
X0541567Y0289398D01*
X054157Y0289378D01*
X0541573Y0289338D01*
X0541577Y0289297D01*
X0541578Y0289278D01*
X0541579Y0289258D01*
X054158Y0289217D01*
X0541582Y0289177D01*
X0541581Y0289157D01*
X0541581Y0289137D01*
X054158Y0289096D01*
X0541579Y0289056D01*
X0541577Y0289036D01*
X0541576Y0289016D01*
X0541572Y0288976D01*
X0541569Y0288935D01*
X0541317Y0286749D01*
X0541311Y028671D01*
X0541306Y0286671D01*
X0541302Y028665D01*
X05413Y0286631D01*
X0541314Y0286617D01*
X0541331Y0286604D01*
X0541359Y0286577D01*
X0541389Y0286551D01*
X0542987Y0285038D01*
X0543016Y0285009D01*
X0543045Y0284981D01*
X0543058Y0284966D01*
X0543072Y0284952D01*
X0543099Y0284922D01*
X0543127Y0284892D01*
X0543139Y0284876D01*
X0543152Y0284862D01*
X0543177Y028483D01*
X0543203Y0284798D01*
X0543215Y0284782D01*
X0543226Y0284766D01*
X0543249Y0284733D01*
X0543273Y0284699D01*
X0543284Y0284683D01*
X0543295Y0284667D01*
X0543316Y0284631D01*
X0543337Y0284597D01*
X0543347Y028458D01*
X0543357Y0284563D01*
X0543376Y0284527D01*
X0543395Y0284491D01*
X0543404Y0284473D01*
X0543413Y0284456D01*
X0543429Y0284419D01*
X0543447Y0284382D01*
X0543454Y0284363D01*
X0543462Y0284345D01*
X0543476Y0284307D01*
X0543492Y0284269D01*
X0543828Y0283345D01*
X0543866Y028323D01*
X0543872Y0283206D01*
X0543897Y0283113D01*
X0543911Y0283042D01*
X0543921Y0282994D01*
X0543937Y0282875D01*
X0543945Y0282782D01*
X0543947Y0282754D01*
X0543949Y0282633D01*
X0543944Y0282528D01*
X0543943Y0282512D01*
X0543939Y0282475D01*
X0543931Y0282392D01*
X0543911Y0282273D01*
X0543884Y0282155D01*
X054385Y0282039D01*
X054385Y0282039D01*
Y0282039D01*
X0543848Y0282032D01*
X0543809Y0281926D01*
X0543771Y0281837D01*
X0543761Y0281815D01*
X0543743Y0281778D01*
X0543707Y0281707D01*
X0543646Y0281602D01*
X0543579Y0281502D01*
D01*
X0543579Y0281501D01*
X0543553Y0281467D01*
X0543506Y0281405D01*
X0543428Y0281313D01*
X0543344Y0281226D01*
X0543255Y0281145D01*
X0543161Y0281069D01*
X0543062Y0280998D01*
X0543062Y0280998D01*
X0543062Y0280998D01*
X054305Y0280991D01*
X054296Y0280934D01*
X0542854Y0280876D01*
X0542745Y0280825D01*
X0542632Y028078D01*
X0537083Y027876D01*
X0537083Y027876D01*
X0536968Y0278722D01*
X0536851Y0278691D01*
X0536733Y0278667D01*
X0536613Y0278651D01*
X0536493Y0278642D01*
X0536372Y027864D01*
D01*
X0536372D01*
X0536251Y0278645D01*
X0536131Y0278657D01*
X0536012Y0278677D01*
X0535894Y0278704D01*
X0535778Y0278738D01*
X0535664Y0278779D01*
X0535553Y0278827D01*
X0535445Y0278881D01*
X053534Y0278942D01*
X05353Y0278969D01*
X053524Y0279009D01*
X0535144Y0279082D01*
X0535052Y0279161D01*
X0534965Y0279245D01*
X0534883Y0279334D01*
X0534807Y0279428D01*
X0534737Y0279526D01*
X0534672Y0279628D01*
X0534615Y0279734D01*
X0534563Y0279844D01*
X0534518Y0279956D01*
X0534182Y0280881D01*
X0534169Y028092D01*
X0534155Y0280958D01*
X053415Y0280977D01*
X0534144Y0280996D01*
X0534133Y0281035D01*
X0534122Y0281074D01*
X0534118Y0281093D01*
X0534113Y0281113D01*
X0534105Y0281152D01*
X0534096Y0281192D01*
X0534093Y0281212D01*
X0534089Y0281231D01*
X0534084Y0281271D01*
X0534077Y0281312D01*
X0534075Y0281331D01*
X0534073Y0281351D01*
X0534069Y0281392D01*
X0534065Y0281432D01*
X0534065Y0281452D01*
X0534063Y0281471D01*
X0534063Y0281512D01*
X0534061Y0281553D01*
X0534061Y0281572D01*
X0534061Y0281592D01*
X0534063Y0281633D01*
X0534064Y0281674D01*
X0534066Y0281693D01*
X0534066Y0281713D01*
X0534071Y0281753D01*
X0534074Y0281794D01*
X0534326Y028398D01*
X0534331Y0284019D01*
X0534336Y0284058D01*
X053434Y0284079D01*
X0534343Y0284099D01*
X0534328Y0284112D01*
X0534312Y0284125D01*
X0534283Y0284152D01*
X0534254Y0284178D01*
X0532656Y0285691D01*
X0532627Y028572D01*
X0532598Y0285748D01*
X0532584Y0285763D01*
X0532571Y0285777D01*
X0532544Y0285807D01*
X0532516Y0285838D01*
X0532504Y0285853D01*
X0532491Y0285868D01*
X0532466Y02859D01*
X053244Y0285931D01*
X0532428Y0285947D01*
X0532416Y0285963D01*
X0532393Y0285997D01*
X053237Y028603D01*
X0532359Y0286046D01*
X0532348Y0286063D01*
X0532327Y0286098D01*
X0532305Y0286132D01*
X0532296Y0286149D01*
X0532286Y0286166D01*
X0532267Y0286203D01*
X0532247Y0286238D01*
X0532239Y0286256D01*
X053223Y0286273D01*
X0532213Y0286311D01*
X0532196Y0286348D01*
X0532189Y0286366D01*
X0532181Y0286384D01*
X0532166Y0286422D01*
X0532151Y028646D01*
X0531814Y0287385D01*
X0531814Y0287385D01*
X0531777Y0287499D01*
X0531746Y0287616D01*
X0531722Y0287735D01*
X0531705Y0287855D01*
X0531696Y0287975D01*
X0531694Y0288096D01*
D01*
Y0288096D01*
X0531699Y0288217D01*
X0531712Y0288337D01*
X0531732Y0288456D01*
X0531759Y0288574D01*
X0531793Y028869D01*
X0531834Y0288804D01*
X0531881Y0288915D01*
X0531936Y0289023D01*
X0531996Y0289127D01*
X0532063Y0289228D01*
X0532136Y0289324D01*
X0532215Y0289416D01*
X0532299Y0289503D01*
X0532388Y0289584D01*
X0532482Y0289661D01*
X053258Y0289731D01*
X0532683Y0289795D01*
X0532789Y0289853D01*
X0532898Y0289905D01*
X053301Y0289949D01*
X0533011Y0289949D01*
X053856Y0291969D01*
X053856Y0291969D01*
X0538674Y0292007D01*
X0538791Y0292038D01*
X053891Y0292062D01*
X053903Y0292078D01*
X053915Y0292088D01*
X0539271Y029209D01*
X0539392Y0292084D01*
D02*
G37*
G36*
X0474574Y0288434D02*
X0474694Y0288423D01*
X0474813Y0288405D01*
X0474932Y028838D01*
X0475048Y0288347D01*
X0475162Y0288308D01*
X0475274Y0288262D01*
X0475383Y0288209D01*
X0475488Y0288149D01*
X0475589Y0288084D01*
X0475687Y0288012D01*
X047578Y0287935D01*
X0475868Y0287852D01*
X047595Y0287764D01*
X0476028Y0287671D01*
X0476099Y0287574D01*
X0476165Y0287472D01*
X0476225Y0287367D01*
X0476277Y0287258D01*
X0476324Y0287146D01*
X0476363Y0287032D01*
X0476396Y0286916D01*
X0476421Y0286798D01*
X0476439Y0286678D01*
X047645Y0286558D01*
X0476454Y0286437D01*
Y0285453D01*
X0476452Y0285412D01*
X0476452Y0285371D01*
X0476451Y0285352D01*
X047645Y0285332D01*
X0476446Y0285291D01*
X0476443Y0285251D01*
X0476441Y0285231D01*
X0476439Y0285212D01*
X0476433Y0285172D01*
X0476428Y0285131D01*
X0476424Y0285111D01*
X0476421Y0285092D01*
X0476412Y0285052D01*
X0476405Y0285012D01*
X04764Y0284993D01*
X0476396Y0284974D01*
X0476384Y0284934D01*
X0476374Y0284895D01*
X0476368Y0284877D01*
X0476363Y0284858D01*
X047635Y0284819D01*
X0476337Y028478D01*
X047633Y0284762D01*
X0476324Y0284743D01*
X0476308Y0284706D01*
X0476293Y0284668D01*
X0476285Y028465D01*
X0476277Y0284632D01*
X047626Y0284595D01*
X0476242Y0284558D01*
X0475258Y0282589D01*
X047524Y0282555D01*
X0475222Y028252D01*
X0475211Y0282501D01*
X0475202Y0282484D01*
X0475211Y0282467D01*
X0475222Y0282449D01*
X047524Y0282413D01*
X0475258Y0282379D01*
X0476242Y0280411D01*
X047626Y0280374D01*
X0476277Y0280337D01*
X0476285Y0280319D01*
X0476293Y0280301D01*
X0476308Y0280263D01*
X0476324Y0280225D01*
X047633Y0280207D01*
X0476337Y0280188D01*
X047635Y028015D01*
X0476363Y0280111D01*
X0476368Y0280092D01*
X0476374Y0280073D01*
X0476384Y0280034D01*
X0476396Y0279995D01*
X04764Y0279975D01*
X0476405Y0279956D01*
X0476412Y0279916D01*
X0476421Y0279876D01*
X0476424Y0279857D01*
X0476428Y0279838D01*
X0476433Y0279797D01*
X0476439Y0279757D01*
X0476441Y0279737D01*
X0476443Y0279718D01*
X0476446Y0279678D01*
X047645Y0279637D01*
X0476451Y0279617D01*
X0476452Y0279597D01*
X0476452Y0279556D01*
X0476454Y0279516D01*
Y0278532D01*
X047645Y0278411D01*
X0476439Y027829D01*
X0476421Y0278171D01*
X0476396Y0278053D01*
X0476363Y0277936D01*
X0476324Y0277822D01*
X0476277Y027771D01*
X0476225Y0277602D01*
X0476165Y0277496D01*
X0476099Y0277395D01*
X0476028Y0277297D01*
X047595Y0277205D01*
X0475868Y0277117D01*
X047578Y0277034D01*
X0475687Y0276956D01*
X0475589Y0276885D01*
X0475488Y0276819D01*
X0475383Y027676D01*
X0475274Y0276707D01*
X0475162Y0276661D01*
X0475048Y0276621D01*
X0474932Y0276589D01*
X0474813Y0276563D01*
X0474694Y0276545D01*
X0474574Y0276534D01*
X0474453Y0276531D01*
X0468547D01*
X0468426Y0276534D01*
X0468306Y0276545D01*
X0468187Y0276563D01*
X0468068Y0276589D01*
X0467952Y0276621D01*
X0467838Y0276661D01*
X0467726Y0276707D01*
X0467617Y027676D01*
X0467512Y0276819D01*
X0467411Y0276885D01*
X0467313Y0276956D01*
X046722Y0277034D01*
X0467132Y0277117D01*
X046705Y0277205D01*
X0466972Y0277297D01*
X04669Y0277395D01*
X0466835Y0277496D01*
X0466776Y0277602D01*
X0466723Y027771D01*
X0466676Y0277822D01*
X0466637Y0277936D01*
X0466605Y0278053D01*
X0466579Y0278171D01*
X0466561Y027829D01*
X046655Y0278411D01*
X0466546Y0278532D01*
Y0279516D01*
X0466548Y0279556D01*
X0466548Y0279597D01*
X0466549Y0279617D01*
X046655Y0279637D01*
X0466554Y0279677D01*
X0466557Y0279718D01*
X0466559Y0279737D01*
X0466561Y0279757D01*
X0466567Y0279797D01*
X0466572Y0279838D01*
X0466576Y0279857D01*
X0466579Y0279876D01*
X0466588Y0279916D01*
X0466595Y0279956D01*
X04666Y0279975D01*
X0466605Y0279995D01*
X0466615Y0280034D01*
X0466626Y0280073D01*
X0466632Y0280092D01*
X0466637Y0280111D01*
X046665Y028015D01*
X0466663Y0280188D01*
X046667Y0280207D01*
X0466676Y0280225D01*
X0466692Y0280263D01*
X0466707Y0280301D01*
X0466715Y0280319D01*
X0466723Y0280337D01*
X0466741Y0280374D01*
X0466758Y0280411D01*
X0467742Y0282379D01*
X046776Y0282414D01*
X0467778Y0282449D01*
X0467789Y0282467D01*
X0467798Y0282484D01*
X0467789Y0282501D01*
X0467778Y028252D01*
X046776Y0282555D01*
X0467742Y0282589D01*
X0466758Y0284558D01*
X0466741Y0284595D01*
X0466723Y0284632D01*
X0466715Y028465D01*
X0466707Y0284668D01*
X0466692Y0284706D01*
X0466676Y0284743D01*
X046667Y0284762D01*
X0466663Y028478D01*
X046665Y0284819D01*
X0466637Y0284858D01*
X0466632Y0284877D01*
X0466626Y0284895D01*
X0466615Y0284934D01*
X0466605Y0284974D01*
X04666Y0284993D01*
X0466595Y0285012D01*
X0466588Y0285052D01*
X0466579Y0285092D01*
X0466576Y0285111D01*
X0466572Y0285131D01*
X0466567Y0285171D01*
X0466561Y0285212D01*
X0466559Y0285231D01*
X0466557Y0285251D01*
X0466554Y0285291D01*
X046655Y0285332D01*
X0466549Y0285352D01*
X0466548Y0285371D01*
X0466548Y0285412D01*
X0466546Y0285453D01*
Y0286437D01*
X046655Y0286558D01*
X0466561Y0286678D01*
X0466579Y0286798D01*
X0466605Y0286916D01*
X0466637Y0287032D01*
X0466676Y0287146D01*
X0466723Y0287258D01*
X0466776Y0287367D01*
X0466835Y0287472D01*
X04669Y0287574D01*
X0466972Y0287671D01*
X046705Y0287764D01*
X0467132Y0287852D01*
X046722Y0287935D01*
X0467313Y0288012D01*
X0467411Y0288084D01*
X0467512Y0288149D01*
X0467617Y0288209D01*
X0467726Y0288262D01*
X0467838Y0288308D01*
X0467952Y0288347D01*
X0468068Y028838D01*
X0468187Y0288405D01*
X0468306Y0288423D01*
X0468426Y0288434D01*
X0468547Y0288438D01*
X0474453D01*
X0474574Y0288434D01*
D02*
G37*
D17*
X0504787Y0669366D02*
D03*
D18*
X0436Y0684248D02*
D03*
X04715Y0286437D02*
D03*
D19*
X0564856Y0633863D02*
D03*
D20*
X0611139Y0582092D02*
D03*
D21*
X0642689Y0451755D02*
D03*
D22*
X063818Y0519D02*
D03*
D73*
X0591893Y0327134D02*
D03*
D74*
X0536469Y0289079D02*
D03*
D75*
X062714Y0383344D02*
D03*
D99*
X0502078Y026509D02*
D03*
X0505714Y0255101D02*
D03*
X05175Y02695D02*
D03*
X0513864Y0279489D02*
D03*
D100*
X0507864Y027697D02*
D03*
D101*
X0499166Y0273804D02*
D03*
D102*
X0525376Y0284408D02*
D03*
D103*
X0528542Y027571D02*
D03*
D104*
X055093Y0295305D02*
D03*
X0543901Y0292747D02*
D03*
X0558462Y0274613D02*
D03*
X0551432Y0272055D02*
D03*
D105*
X0507491Y0676795D02*
D03*
D106*
X0436Y0692154D02*
D03*
X04715Y0278532D02*
D03*
D107*
X0569938Y0639919D02*
D03*
D108*
X0617986Y0586044D02*
D03*
D109*
X0650474Y0450383D02*
D03*
D110*
X0645965Y0520373D02*
D03*
D111*
X048624Y0265736D02*
D03*
X047876D02*
D03*
X042026Y0705705D02*
D03*
X042774D02*
D03*
X048624Y0287756D02*
D03*
X047876D02*
D03*
X042026Y0683685D02*
D03*
X042774D02*
D03*
D112*
X0617742Y0320815D02*
D03*
X0612012Y0316006D02*
D03*
X0603588Y0337683D02*
D03*
X0597858Y0332874D02*
D03*
D113*
X0653592Y0386247D02*
D03*
X0649852Y0379768D02*
D03*
X0634522Y0397256D02*
D03*
X0630782Y0390778D02*
D03*
D114*
X0666552Y046353D02*
D03*
X0665254Y0456164D02*
D03*
X0644867Y0467354D02*
D03*
X0643568Y0459987D02*
D03*
D115*
X0656577Y0538227D02*
D03*
X0657876Y0530861D02*
D03*
X0634892Y0534404D02*
D03*
X0636191Y0527037D02*
D03*
D116*
X0566591Y0660417D02*
D03*
X0572321Y0655609D02*
D03*
X0552437Y0643549D02*
D03*
X0558167Y0638741D02*
D03*
D117*
X0497335Y0694913D02*
D03*
X0504364Y0692354D02*
D03*
X0489804Y0674221D02*
D03*
X0496833Y0671662D02*
D03*
D118*
X04535Y0236047D02*
D03*
Y0241953D02*
D03*
D119*
X0446535Y023526D02*
D03*
Y024274D02*
D03*
X0438465Y0239D02*
D03*
D120*
X04585Y0286256D02*
D03*
X0448Y0685185D02*
D03*
D121*
X04585Y0277D02*
D03*
X0448Y0694441D02*
D03*
D122*
X0583302Y0318703D02*
D03*
D123*
X0589252Y0311612D02*
D03*
D124*
X0621951Y0372483D02*
D03*
D125*
X0629967Y0367855D02*
D03*
D126*
X0641528Y0439775D02*
D03*
D127*
X0650643Y0438168D02*
D03*
D128*
X0641186Y0507345D02*
D03*
D129*
X0650302Y0508953D02*
D03*
D130*
X0574651Y0626867D02*
D03*
D131*
X0580601Y0633957D02*
D03*
D132*
X0516384Y0666143D02*
D03*
D133*
X051955Y067484D02*
D03*
D134*
X04395Y0285256D02*
D03*
X0467Y0686185D02*
D03*
D135*
X0430244Y0285256D02*
D03*
X0476256Y0686185D02*
D03*
D136*
X056939Y0305724D02*
D03*
D137*
X05623Y0299774D02*
D03*
D138*
X0613317Y0355528D02*
D03*
D139*
X0608689Y0347513D02*
D03*
D140*
X0639213Y042089D02*
D03*
D141*
X0637606Y0411775D02*
D03*
D142*
X0645471Y0488808D02*
D03*
D143*
X0647078Y0479692D02*
D03*
D144*
X0589849Y061542D02*
D03*
D145*
X0596939Y0609471D02*
D03*
D146*
X053458Y0660584D02*
D03*
D147*
X0543278Y0657418D02*
D03*
D148*
X0446Y0274941D02*
D03*
Y0285571D02*
D03*
X04605Y06965D02*
D03*
Y068587D02*
D03*
X043Y0276071D02*
D03*
Y0265441D02*
D03*
X04765Y069537D02*
D03*
Y0706D02*
D03*
D149*
X0581Y0302D02*
D03*
X0574167Y0310143D02*
D03*
X0568017Y0292581D02*
D03*
X057485Y0284438D02*
D03*
D150*
X06255Y0356D02*
D03*
X0616294Y0361315D02*
D03*
X0616522Y0342709D02*
D03*
X0625727Y0337394D02*
D03*
D151*
X06505Y04255D02*
D03*
X0640031Y0427346D02*
D03*
X0646609Y0409939D02*
D03*
X0657077Y0408093D02*
D03*
D152*
X06545Y0497D02*
D03*
X0644032Y0495154D02*
D03*
X0656166Y0481047D02*
D03*
X0666634Y0482893D02*
D03*
D153*
X05915Y06275D02*
D03*
X0584667Y0619357D02*
D03*
X060303Y061635D02*
D03*
X0609863Y0624493D02*
D03*
D154*
X0532Y06725D02*
D03*
X0528364Y0662511D02*
D03*
X0546649Y0665966D02*
D03*
X0550284Y0675955D02*
D03*
D155*
X0621851Y0606451D02*
D03*
X0625592Y0599973D02*
D03*
X0602782Y0595441D02*
D03*
X0606522Y0588963D02*
D03*
D156*
X0617951Y0572168D02*
D03*
D157*
X0625967Y0576796D02*
D03*
D158*
X0628317Y0556213D02*
D03*
D159*
X0632945Y0548198D02*
D03*
D160*
X0634Y0567D02*
D03*
X0624794Y0561685D02*
D03*
X0641021Y0552579D02*
D03*
X0650227Y0557894D02*
D03*
D161*
X0596974Y0321078D02*
D03*
D162*
X0539173Y028165D02*
D03*
D163*
X0633986Y0379391D02*
D03*
D164*
X0403185Y02385D02*
D03*
X0413815D02*
D03*
Y02505D02*
D03*
X0403185D02*
D03*
D165*
X04205Y0239154D02*
D03*
Y02425D02*
D03*
Y0245847D02*
D03*
X0432311D02*
D03*
Y02425D02*
D03*
Y0239154D02*
D03*
D166*
X0481069Y0412431D02*
D03*
X04245Y0389D02*
D03*
X0367932Y0412431D02*
D03*
Y0525568D02*
D03*
X04245Y0549D02*
D03*
X0481069Y0525568D02*
D03*
X03445Y0469D02*
D03*
X05045D02*
D03*
X0439807Y0432045D02*
D03*
X0387545Y0453693D02*
D03*
X0409193Y0505955D02*
D03*
X0461455Y0484307D02*
D03*
D167*
X054251Y0270957D02*
D03*
X047Y0267756D02*
D03*
X0604003Y0311923D02*
D03*
X0643722Y0373192D02*
D03*
X0661743Y0447888D02*
D03*
X0657408Y0521883D02*
D03*
X0577733Y0648431D02*
D03*
X0511905Y068746D02*
D03*
X04365Y0703685D02*
D03*
X04445Y0226D02*
D03*
X04045D02*
D03*
X0628222Y0591377D02*
D03*
X04785Y0236D02*
D03*
X02955Y03425D02*
D03*
D168*
X04195Y02255D02*
D03*
D169*
X04295D02*
D03*
D170*
X04915Y06307D02*
D03*
X05862Y0536D02*
D03*
Y0402D02*
D03*
X04915Y03073D02*
D03*
X03575D02*
D03*
X02628Y0402D02*
D03*
Y0536D02*
D03*
X03575Y06307D02*
D03*
D171*
X04245Y0469D02*
D03*
D172*
X045974Y023526D02*
D03*
D173*
X0603588Y0337683D02*
D03*
X0616Y03565D02*
D03*
X06345Y0398D02*
D03*
X0641Y0423D02*
D03*
X0645Y0467D02*
D03*
X0646Y04915D02*
D03*
X0635Y05345D02*
D03*
X06285Y05585D02*
D03*
X0603Y05955D02*
D03*
X0589Y0618D02*
D03*
X05525Y06435D02*
D03*
X04895Y06745D02*
D03*
X0465Y0687D02*
D03*
X048624Y0287756D02*
D03*
X0572151Y0306323D02*
D03*
X055093Y0295305D02*
D03*
X0510663Y0276589D02*
D03*
X0533Y06625D02*
D03*
X04115Y02235D02*
D03*
M02*
