G04 Layer_Color=32768*
%FSTAX25Y25*%
%MOIN*%
G70*
G01*
G75*
%ADD174C,0.00394*%
D174*
X0502046Y0259422D02*
X0505746Y0260768D01*
X0503223Y0261945D02*
X0504569Y0258245D01*
X050481Y0268807D02*
X0510196Y0254009D01*
X0497596Y0266181D02*
X0502982Y0251383D01*
X0497596Y0266181D02*
X050481Y0268807D01*
X0502982Y0251383D02*
X0510196Y0254009D01*
X0513832Y0273821D02*
X0517532Y0275168D01*
X0515009Y0276344D02*
X0516355Y0272645D01*
X0509382Y0280581D02*
X0514768Y0265782D01*
X0516596Y0283207D02*
X0521982Y0268408D01*
X0514768Y0265782D02*
X0521982Y0268408D01*
X0509382Y0280581D02*
X0516596Y0283207D01*
X0546742Y0295876D02*
X0548089Y0292176D01*
X0545566Y0293353D02*
X0549266Y0294699D01*
X0543028Y0289391D02*
X0553756Y0293296D01*
X0541075Y0294756D02*
X0551804Y029866D01*
X0553756Y0293296D01*
X0541075Y0294756D02*
X0543028Y0289391D01*
X0554274Y0275184D02*
X055562Y0271484D01*
X0553097Y0272661D02*
X0556797Y0274007D01*
X0550559Y02687D02*
X0561288Y0272604D01*
X0548606Y0274064D02*
X0559335Y0277969D01*
X0561288Y0272604D01*
X0548606Y0274064D02*
X0550559Y02687D01*
X04825Y0263768D02*
Y0267705D01*
X0480532Y0265736D02*
X0484469D01*
X0476791Y0262882D02*
X0488209D01*
X0476791Y026859D02*
X0488209D01*
Y0262882D02*
Y026859D01*
X0476791Y0262882D02*
Y026859D01*
X0613612Y0319918D02*
X0616143Y0316903D01*
X0613369Y0317145D02*
X0616385Y0319676D01*
X0612339Y0312555D02*
X0621085Y0319893D01*
X060867Y0316928D02*
X0617416Y0324267D01*
X0621085Y0319893D01*
X060867Y0316928D02*
X0612339Y0312555D01*
X0650017Y0383992D02*
X0653426Y0382023D01*
X0650737Y0381303D02*
X0652706Y0384712D01*
X0651339Y0376637D02*
X0657048Y0386524D01*
X0646395Y0379491D02*
X0652104Y0389379D01*
X0657048Y0386524D01*
X0646395Y0379491D02*
X0651339Y0376637D01*
X0663965Y0460189D02*
X0667842Y0459505D01*
X0665561Y0457908D02*
X0666245Y0461786D01*
X0667723Y0453729D02*
X0669705Y0464973D01*
X0662101Y0454721D02*
X0664083Y0465965D01*
X0669705Y0464973D01*
X0662101Y0454721D02*
X0667723Y0453729D01*
X0655288Y0534202D02*
X0659165Y0534886D01*
X0656885Y0536482D02*
X0657569Y0532605D01*
X0659046Y0540661D02*
X0661029Y0529418D01*
X0653425Y053967D02*
X0655407Y0528426D01*
X0653425Y053967D02*
X0659046Y0540661D01*
X0655407Y0528426D02*
X0661029Y0529418D01*
X0568191Y0656505D02*
X0570721Y0659521D01*
X0567948Y0659278D02*
X0570964Y0656748D01*
X0566918Y0663869D02*
X0575664Y065653D01*
X0563248Y0659496D02*
X0571994Y0652157D01*
X0563248Y0659496D02*
X0566918Y0663869D01*
X0571994Y0652157D02*
X0575664Y065653D01*
X0500176Y0691784D02*
X0501523Y0695483D01*
X0499Y0694307D02*
X0502699Y069296D01*
X0496461Y0698268D02*
X050719Y0694363D01*
X0494509Y0692904D02*
X0505238Y0688999D01*
X0494509Y0692904D02*
X0496461Y0698268D01*
X0505238Y0688999D02*
X050719Y0694363D01*
X0424Y0703736D02*
Y0707673D01*
X0422031Y0705705D02*
X0425969D01*
X0418291Y0708559D02*
X0429709D01*
X0418291Y070285D02*
X0429709D01*
X0418291D02*
Y0708559D01*
X0429709Y070285D02*
Y0708559D01*
X04825Y0285787D02*
Y0289724D01*
X0480532Y0287756D02*
X0484469D01*
X0476791Y0284902D02*
X0488209D01*
X0476791Y029061D02*
X0488209D01*
Y0284902D02*
Y029061D01*
X0476791Y0284902D02*
Y029061D01*
X0599458Y0336787D02*
X0601989Y0333771D01*
X0599215Y0334013D02*
X0602231Y0336544D01*
X0598185Y0329423D02*
X0606931Y0336761D01*
X0594516Y0333796D02*
X0603262Y0341135D01*
X0606931Y0336761D01*
X0594516Y0333796D02*
X0598185Y0329423D01*
X0630947Y0395002D02*
X0634357Y0393033D01*
X0631668Y0392313D02*
X0633636Y0395722D01*
X0632269Y0387646D02*
X0637978Y0397534D01*
X0627326Y0390501D02*
X0633034Y0400388D01*
X0637978Y0397534D01*
X0627326Y0390501D02*
X0632269Y0387646D01*
X0642279Y0464013D02*
X0646157Y0463329D01*
X0643876Y0461732D02*
X064456Y0465609D01*
X0646038Y0457553D02*
X064802Y0468797D01*
X0640416Y0458544D02*
X0642398Y0469788D01*
X064802Y0468797D01*
X0640416Y0458544D02*
X0646038Y0457553D01*
X0633603Y0530378D02*
X063748Y0531062D01*
X06352Y0532659D02*
X0635883Y0528782D01*
X0637361Y0536838D02*
X0639344Y0525594D01*
X0631739Y0535847D02*
X0633722Y0524603D01*
X0631739Y0535847D02*
X0637361Y0536838D01*
X0633722Y0524603D02*
X0639344Y0525594D01*
X0554037Y0639637D02*
X0556567Y0642653D01*
X0553794Y064241D02*
X055681Y063988D01*
X0552764Y0647001D02*
X056151Y0639662D01*
X0549094Y0642628D02*
X055784Y0635289D01*
X0549094Y0642628D02*
X0552764Y0647001D01*
X055784Y0635289D02*
X056151Y0639662D01*
X0492645Y0671092D02*
X0493992Y0674791D01*
X0491468Y0673615D02*
X0495168Y0672268D01*
X048893Y0677576D02*
X0499659Y0673671D01*
X0486978Y0672212D02*
X0497706Y0668307D01*
X0486978Y0672212D02*
X048893Y0677576D01*
X0497706Y0668307D02*
X0499659Y0673671D01*
X0424Y0681716D02*
Y0685653D01*
X0422031Y0683685D02*
X0425969D01*
X0418291Y0686539D02*
X0429709D01*
X0418291Y0680831D02*
X0429709D01*
X0418291D02*
Y0686539D01*
X0429709Y0680831D02*
Y0686539D01*
X045163Y0239D02*
X045537D01*
X04535Y023713D02*
Y024087D01*
X0451335Y0234177D02*
Y0243823D01*
X0455665Y0234177D02*
Y0243823D01*
X0451335Y0234177D02*
X0455665D01*
X0451335Y0243823D02*
X0455665D01*
X0448799Y0232622D02*
Y0245378D01*
X0436201Y0232622D02*
Y0245378D01*
Y0232622D02*
X0448799D01*
X0436201Y0245378D02*
X0448799D01*
X0440531Y0239D02*
X0444468D01*
X04425Y0237032D02*
Y0240968D01*
X0444031Y0280256D02*
X0447968D01*
X0446Y0278287D02*
Y0282224D01*
X0442161Y0272382D02*
Y028813D01*
X0449839Y0272382D02*
Y028813D01*
X0442161Y0272382D02*
X0449839D01*
X0442161Y028813D02*
X0449839D01*
X0576076Y0304806D02*
X0579092Y0307337D01*
X0576318Y0307579D02*
X0578849Y0304563D01*
X0569582Y0309636D02*
X0579704Y0297572D01*
X0575463Y0314571D02*
X0585585Y0302507D01*
X0579704Y0297572D02*
X0585585Y0302507D01*
X0569582Y0309636D02*
X0575463Y0314571D01*
X0619913Y0356953D02*
X0621881Y0360362D01*
X0619192Y0359642D02*
X0622602Y0357673D01*
X0612159Y035927D02*
X0625797Y0351396D01*
X0615997Y0365919D02*
X0629635Y0358045D01*
X0625797Y0351396D02*
X0629635Y0358045D01*
X0612159Y035927D02*
X0615997Y0365919D01*
X0644924Y0424484D02*
X0645608Y0428362D01*
X0643327Y0426765D02*
X0647204Y0426081D01*
X0636845Y042401D02*
X0652354Y0421275D01*
X0638178Y043157D02*
X0653687Y0428836D01*
X0652354Y0421275D02*
X0653687Y0428836D01*
X0636845Y042401D02*
X0638178Y043157D01*
X0648924Y0498016D02*
X0649608Y0494138D01*
X0647327Y0495735D02*
X0651204Y0496419D01*
X0642178Y049093D02*
X0657687Y0493664D01*
X0640845Y049849D02*
X0656354Y0501225D01*
X0657687Y0493664D01*
X0640845Y049849D02*
X0642178Y049093D01*
X0586576Y0624694D02*
X0589592Y0622163D01*
X0586818Y062192D02*
X0589349Y0624936D01*
X0585963Y0614929D02*
X0596085Y0626993D01*
X0580082Y0619864D02*
X0590204Y0631928D01*
X0596085Y0626993D01*
X0580082Y0619864D02*
X0585963Y0614929D01*
X0528332Y0668179D02*
X0532032Y0666832D01*
X0529509Y0665656D02*
X0530855Y0669355D01*
X0531096Y0658793D02*
X0536482Y0673592D01*
X0523882Y0661419D02*
X0529268Y0676218D01*
X0536482Y0673592D01*
X0523882Y0661419D02*
X0531096Y0658793D01*
X0458532Y0691185D02*
X0462468D01*
X04605Y0689217D02*
Y0693153D01*
X0464339Y0683311D02*
Y0699059D01*
X0456661Y0683311D02*
Y0699059D01*
X0464339D01*
X0456661Y0683311D02*
X0464339D01*
X0428031Y0270756D02*
X0431968D01*
X043Y0268787D02*
Y0272724D01*
X0433839Y0262882D02*
Y027863D01*
X0426161Y0262882D02*
Y027863D01*
X0433839D01*
X0426161Y0262882D02*
X0433839D01*
X0569925Y0287244D02*
X0572941Y0289775D01*
X0570168Y0290017D02*
X0572699Y0287001D01*
X0569313Y0297009D02*
X0579435Y0284945D01*
X0563432Y0292074D02*
X0573554Y028001D01*
X0563432Y0292074D02*
X0569313Y0297009D01*
X0573554Y028001D02*
X0579435Y0284945D01*
X062014Y0338346D02*
X0622109Y0341756D01*
X061942Y0341035D02*
X0622829Y0339067D01*
X0616224Y0347312D02*
X0629863Y0339438D01*
X0612386Y0340664D02*
X0626024Y033279D01*
X0612386Y0340664D02*
X0616224Y0347312D01*
X0626024Y033279D02*
X0629863Y0339438D01*
X0651501Y0407078D02*
X0652185Y0410955D01*
X0649904Y0409358D02*
X0653782Y0408674D01*
X0644755Y0414164D02*
X0660264Y0411429D01*
X0643422Y0406603D02*
X0658931Y0403869D01*
X0643422Y0406603D02*
X0644755Y0414164D01*
X0658931Y0403869D02*
X0660264Y0411429D01*
X0661058Y0483908D02*
X0661742Y0480031D01*
X0659461Y0481628D02*
X0663338Y0482312D01*
X0652979Y0484383D02*
X0668488Y0487117D01*
X0654312Y0476822D02*
X0669821Y0479557D01*
X0652979Y0484383D02*
X0654312Y0476822D01*
X0668488Y0487117D02*
X0669821Y0479557D01*
X0604939Y0621687D02*
X0607955Y0619156D01*
X0605182Y0618913D02*
X0607712Y0621929D01*
X0598445Y0616857D02*
X0608568Y0628921D01*
X0604326Y0611922D02*
X0614449Y0623986D01*
X0598445Y0616857D02*
X0604326Y0611922D01*
X0608568Y0628921D02*
X0614449Y0623986D01*
X0546617Y0671634D02*
X0550316Y0670287D01*
X0547793Y066911D02*
X054914Y067281D01*
X0542166Y0664874D02*
X0547552Y0679672D01*
X054938Y0662248D02*
X0554767Y0677047D01*
X0542166Y0664874D02*
X054938Y0662248D01*
X0547552Y0679672D02*
X0554767Y0677047D01*
X0474532Y0700685D02*
X0478469D01*
X04765Y0698716D02*
Y0702654D01*
X0472661Y0692811D02*
Y0708559D01*
X0480339Y0692811D02*
Y0708559D01*
X0472661Y0692811D02*
X0480339D01*
X0472661Y0708559D02*
X0480339D01*
X0622017Y0602228D02*
X0625426Y0604197D01*
X0622737Y0604917D02*
X0624706Y0601508D01*
X0623339Y0609583D02*
X0629048Y0599696D01*
X0618395Y0606729D02*
X0624104Y0596841D01*
X0618395Y0606729D02*
X0623339Y0609583D01*
X0624104Y0596841D02*
X0629048Y0599696D01*
X0602947Y0591218D02*
X0606357Y0593187D01*
X0603668Y0593907D02*
X0605636Y0590498D01*
X060427Y0598573D02*
X0609978Y0588686D01*
X0599326Y0595719D02*
X0605034Y0585831D01*
X0599326Y0595719D02*
X060427Y0598573D01*
X0605034Y0585831D02*
X0609978Y0588686D01*
X0628413Y0566047D02*
X0630381Y0562638D01*
X0627692Y0563358D02*
X0631102Y0565327D01*
X0624497Y0557081D02*
X0638135Y0564955D01*
X0620659Y056373D02*
X0634297Y0571604D01*
X0638135Y0564955D01*
X0620659Y056373D02*
X0624497Y0557081D01*
X064464Y0556941D02*
X0646609Y0553531D01*
X064392Y0554252D02*
X0647329Y055622D01*
X0636886Y0554623D02*
X0650524Y0562497D01*
X0640725Y0547975D02*
X0654363Y0555849D01*
X0636886Y0554623D02*
X0640725Y0547975D01*
X0650524Y0562497D02*
X0654363Y0555849D01*
X04085Y0236531D02*
Y0240469D01*
X0406531Y02385D02*
X0410468D01*
X0400626Y0244012D02*
X0416374D01*
X0400626Y0232988D02*
X0416374D01*
X0400626D02*
Y0244012D01*
X0416374Y0232988D02*
Y0244012D01*
Y0244988D02*
Y0256012D01*
X0400626Y0244988D02*
Y0256012D01*
Y0244988D02*
X0416374D01*
X0400626Y0256012D02*
X0416374D01*
X0406531Y02505D02*
X0410468D01*
X04085Y0248532D02*
Y0252468D01*
M02*
