G04 Layer_Color=8421504*
%FSTAX25Y25*%
%MOIN*%
G70*
G01*
G75*
G04:AMPARAMS|DCode=11|XSize=68.9mil|YSize=43.31mil|CornerRadius=10.83mil|HoleSize=0mil|Usage=FLASHONLY|Rotation=200.000|XOffset=0mil|YOffset=0mil|HoleType=Round|Shape=RoundedRectangle|*
%AMROUNDEDRECTD11*
21,1,0.06890,0.02165,0,0,200.0*
21,1,0.04724,0.04331,0,0,200.0*
1,1,0.02165,-0.02590,0.00210*
1,1,0.02165,0.01849,0.01825*
1,1,0.02165,0.02590,-0.00210*
1,1,0.02165,-0.01849,-0.01825*
%
%ADD11ROUNDEDRECTD11*%
G04:AMPARAMS|DCode=12|XSize=30mil|YSize=50mil|CornerRadius=7.5mil|HoleSize=0mil|Usage=FLASHONLY|Rotation=20.000|XOffset=0mil|YOffset=0mil|HoleType=Round|Shape=RoundedRectangle|*
%AMROUNDEDRECTD12*
21,1,0.03000,0.03500,0,0,20.0*
21,1,0.01500,0.05000,0,0,20.0*
1,1,0.01500,0.01303,-0.01388*
1,1,0.01500,-0.00106,-0.01901*
1,1,0.01500,-0.01303,0.01388*
1,1,0.01500,0.00106,0.01901*
%
%ADD12ROUNDEDRECTD12*%
G04:AMPARAMS|DCode=13|XSize=100mil|YSize=105.12mil|CornerRadius=25mil|HoleSize=0mil|Usage=FLASHONLY|Rotation=20.000|XOffset=0mil|YOffset=0mil|HoleType=Round|Shape=RoundedRectangle|*
%AMROUNDEDRECTD13*
21,1,0.10000,0.05512,0,0,20.0*
21,1,0.05000,0.10512,0,0,20.0*
1,1,0.05000,0.03292,-0.01735*
1,1,0.05000,-0.01407,-0.03445*
1,1,0.05000,-0.03292,0.01735*
1,1,0.05000,0.01407,0.03445*
%
%ADD13ROUNDEDRECTD13*%
G04:AMPARAMS|DCode=14|XSize=30mil|YSize=50mil|CornerRadius=7.5mil|HoleSize=0mil|Usage=FLASHONLY|Rotation=110.000|XOffset=0mil|YOffset=0mil|HoleType=Round|Shape=RoundedRectangle|*
%AMROUNDEDRECTD14*
21,1,0.03000,0.03500,0,0,110.0*
21,1,0.01500,0.05000,0,0,110.0*
1,1,0.01500,0.01388,0.01303*
1,1,0.01500,0.01901,-0.00106*
1,1,0.01500,-0.01388,-0.01303*
1,1,0.01500,-0.01901,0.00106*
%
%ADD14ROUNDEDRECTD14*%
G04:AMPARAMS|DCode=15|XSize=100mil|YSize=105.12mil|CornerRadius=25mil|HoleSize=0mil|Usage=FLASHONLY|Rotation=110.000|XOffset=0mil|YOffset=0mil|HoleType=Round|Shape=RoundedRectangle|*
%AMROUNDEDRECTD15*
21,1,0.10000,0.05512,0,0,110.0*
21,1,0.05000,0.10512,0,0,110.0*
1,1,0.05000,0.01735,0.03292*
1,1,0.05000,0.03445,-0.01407*
1,1,0.05000,-0.01735,-0.03292*
1,1,0.05000,-0.03445,0.01407*
%
%ADD15ROUNDEDRECTD15*%
G04:AMPARAMS|DCode=16|XSize=49.21mil|YSize=31.5mil|CornerRadius=7.87mil|HoleSize=0mil|Usage=FLASHONLY|Rotation=110.000|XOffset=0mil|YOffset=0mil|HoleType=Round|Shape=RoundedRectangle|*
%AMROUNDEDRECTD16*
21,1,0.04921,0.01575,0,0,110.0*
21,1,0.03347,0.03150,0,0,110.0*
1,1,0.01575,0.00168,0.01842*
1,1,0.01575,0.01312,-0.01303*
1,1,0.01575,-0.00168,-0.01842*
1,1,0.01575,-0.01312,0.01303*
%
%ADD16ROUNDEDRECTD16*%
G04:AMPARAMS|DCode=17|XSize=20mil|YSize=50mil|CornerRadius=5mil|HoleSize=0mil|Usage=FLASHONLY|Rotation=70.000|XOffset=0mil|YOffset=0mil|HoleType=Round|Shape=RoundedRectangle|*
%AMROUNDEDRECTD17*
21,1,0.02000,0.04000,0,0,70.0*
21,1,0.01000,0.05000,0,0,70.0*
1,1,0.01000,0.02050,-0.00214*
1,1,0.01000,0.01708,-0.01154*
1,1,0.01000,-0.02050,0.00214*
1,1,0.01000,-0.01708,0.01154*
%
%ADD17ROUNDEDRECTD17*%
G04:AMPARAMS|DCode=18|XSize=20mil|YSize=50mil|CornerRadius=5mil|HoleSize=0mil|Usage=FLASHONLY|Rotation=90.000|XOffset=0mil|YOffset=0mil|HoleType=Round|Shape=RoundedRectangle|*
%AMROUNDEDRECTD18*
21,1,0.02000,0.04000,0,0,90.0*
21,1,0.01000,0.05000,0,0,90.0*
1,1,0.01000,0.02000,0.00500*
1,1,0.01000,0.02000,-0.00500*
1,1,0.01000,-0.02000,-0.00500*
1,1,0.01000,-0.02000,0.00500*
%
%ADD18ROUNDEDRECTD18*%
G04:AMPARAMS|DCode=19|XSize=20mil|YSize=50mil|CornerRadius=5mil|HoleSize=0mil|Usage=FLASHONLY|Rotation=50.000|XOffset=0mil|YOffset=0mil|HoleType=Round|Shape=RoundedRectangle|*
%AMROUNDEDRECTD19*
21,1,0.02000,0.04000,0,0,50.0*
21,1,0.01000,0.05000,0,0,50.0*
1,1,0.01000,0.01853,-0.00903*
1,1,0.01000,0.01211,-0.01669*
1,1,0.01000,-0.01853,0.00903*
1,1,0.01000,-0.01211,0.01669*
%
%ADD19ROUNDEDRECTD19*%
G04:AMPARAMS|DCode=20|XSize=20mil|YSize=50mil|CornerRadius=5mil|HoleSize=0mil|Usage=FLASHONLY|Rotation=30.000|XOffset=0mil|YOffset=0mil|HoleType=Round|Shape=RoundedRectangle|*
%AMROUNDEDRECTD20*
21,1,0.02000,0.04000,0,0,30.0*
21,1,0.01000,0.05000,0,0,30.0*
1,1,0.01000,0.01433,-0.01482*
1,1,0.01000,0.00567,-0.01982*
1,1,0.01000,-0.01433,0.01482*
1,1,0.01000,-0.00567,0.01982*
%
%ADD20ROUNDEDRECTD20*%
G04:AMPARAMS|DCode=21|XSize=20mil|YSize=50mil|CornerRadius=5mil|HoleSize=0mil|Usage=FLASHONLY|Rotation=350.000|XOffset=0mil|YOffset=0mil|HoleType=Round|Shape=RoundedRectangle|*
%AMROUNDEDRECTD21*
21,1,0.02000,0.04000,0,0,350.0*
21,1,0.01000,0.05000,0,0,350.0*
1,1,0.01000,0.00145,-0.02056*
1,1,0.01000,-0.00840,-0.01883*
1,1,0.01000,-0.00145,0.02056*
1,1,0.01000,0.00840,0.01883*
%
%ADD21ROUNDEDRECTD21*%
G04:AMPARAMS|DCode=22|XSize=20mil|YSize=50mil|CornerRadius=5mil|HoleSize=0mil|Usage=FLASHONLY|Rotation=10.000|XOffset=0mil|YOffset=0mil|HoleType=Round|Shape=RoundedRectangle|*
%AMROUNDEDRECTD22*
21,1,0.02000,0.04000,0,0,10.0*
21,1,0.01000,0.05000,0,0,10.0*
1,1,0.01000,0.00840,-0.01883*
1,1,0.01000,-0.00145,-0.02056*
1,1,0.01000,-0.00840,0.01883*
1,1,0.01000,0.00145,0.02056*
%
%ADD22ROUNDEDRECTD22*%
G04:AMPARAMS|DCode=23|XSize=49.21mil|YSize=31.5mil|CornerRadius=7.87mil|HoleSize=0mil|Usage=FLASHONLY|Rotation=90.000|XOffset=0mil|YOffset=0mil|HoleType=Round|Shape=RoundedRectangle|*
%AMROUNDEDRECTD23*
21,1,0.04921,0.01575,0,0,90.0*
21,1,0.03347,0.03150,0,0,90.0*
1,1,0.01575,0.00787,0.01673*
1,1,0.01575,0.00787,-0.01673*
1,1,0.01575,-0.00787,-0.01673*
1,1,0.01575,-0.00787,0.01673*
%
%ADD23ROUNDEDRECTD23*%
G04:AMPARAMS|DCode=24|XSize=49.21mil|YSize=31.5mil|CornerRadius=7.87mil|HoleSize=0mil|Usage=FLASHONLY|Rotation=130.000|XOffset=0mil|YOffset=0mil|HoleType=Round|Shape=RoundedRectangle|*
%AMROUNDEDRECTD24*
21,1,0.04921,0.01575,0,0,130.0*
21,1,0.03347,0.03150,0,0,130.0*
1,1,0.01575,-0.00472,0.01788*
1,1,0.01575,0.01679,-0.00776*
1,1,0.01575,0.00472,-0.01788*
1,1,0.01575,-0.01679,0.00776*
%
%ADD24ROUNDEDRECTD24*%
G04:AMPARAMS|DCode=25|XSize=49.21mil|YSize=31.5mil|CornerRadius=7.87mil|HoleSize=0mil|Usage=FLASHONLY|Rotation=150.000|XOffset=0mil|YOffset=0mil|HoleType=Round|Shape=RoundedRectangle|*
%AMROUNDEDRECTD25*
21,1,0.04921,0.01575,0,0,150.0*
21,1,0.03347,0.03150,0,0,150.0*
1,1,0.01575,-0.01055,0.01519*
1,1,0.01575,0.01843,-0.00155*
1,1,0.01575,0.01055,-0.01519*
1,1,0.01575,-0.01843,0.00155*
%
%ADD25ROUNDEDRECTD25*%
G04:AMPARAMS|DCode=26|XSize=49.21mil|YSize=31.5mil|CornerRadius=7.87mil|HoleSize=0mil|Usage=FLASHONLY|Rotation=170.000|XOffset=0mil|YOffset=0mil|HoleType=Round|Shape=RoundedRectangle|*
%AMROUNDEDRECTD26*
21,1,0.04921,0.01575,0,0,170.0*
21,1,0.03347,0.03150,0,0,170.0*
1,1,0.01575,-0.01511,0.01066*
1,1,0.01575,0.01784,0.00485*
1,1,0.01575,0.01511,-0.01066*
1,1,0.01575,-0.01784,-0.00485*
%
%ADD26ROUNDEDRECTD26*%
G04:AMPARAMS|DCode=27|XSize=49.21mil|YSize=31.5mil|CornerRadius=7.87mil|HoleSize=0mil|Usage=FLASHONLY|Rotation=190.000|XOffset=0mil|YOffset=0mil|HoleType=Round|Shape=RoundedRectangle|*
%AMROUNDEDRECTD27*
21,1,0.04921,0.01575,0,0,190.0*
21,1,0.03347,0.03150,0,0,190.0*
1,1,0.01575,-0.01784,0.00485*
1,1,0.01575,0.01511,0.01066*
1,1,0.01575,0.01784,-0.00485*
1,1,0.01575,-0.01511,-0.01066*
%
%ADD27ROUNDEDRECTD27*%
G04:AMPARAMS|DCode=28|XSize=49.21mil|YSize=31.5mil|CornerRadius=7.87mil|HoleSize=0mil|Usage=FLASHONLY|Rotation=230.000|XOffset=0mil|YOffset=0mil|HoleType=Round|Shape=RoundedRectangle|*
%AMROUNDEDRECTD28*
21,1,0.04921,0.01575,0,0,230.0*
21,1,0.03347,0.03150,0,0,230.0*
1,1,0.01575,-0.01679,-0.00776*
1,1,0.01575,0.00472,0.01788*
1,1,0.01575,0.01679,0.00776*
1,1,0.01575,-0.00472,-0.01788*
%
%ADD28ROUNDEDRECTD28*%
G04:AMPARAMS|DCode=29|XSize=49.21mil|YSize=31.5mil|CornerRadius=7.87mil|HoleSize=0mil|Usage=FLASHONLY|Rotation=250.000|XOffset=0mil|YOffset=0mil|HoleType=Round|Shape=RoundedRectangle|*
%AMROUNDEDRECTD29*
21,1,0.04921,0.01575,0,0,250.0*
21,1,0.03347,0.03150,0,0,250.0*
1,1,0.01575,-0.01312,-0.01303*
1,1,0.01575,-0.00168,0.01842*
1,1,0.01575,0.01312,0.01303*
1,1,0.01575,0.00168,-0.01842*
%
%ADD29ROUNDEDRECTD29*%
G04:AMPARAMS|DCode=30|XSize=35.43mil|YSize=31.5mil|CornerRadius=7.87mil|HoleSize=0mil|Usage=FLASHONLY|Rotation=0.000|XOffset=0mil|YOffset=0mil|HoleType=Round|Shape=RoundedRectangle|*
%AMROUNDEDRECTD30*
21,1,0.03543,0.01575,0,0,0.0*
21,1,0.01968,0.03150,0,0,0.0*
1,1,0.01575,0.00984,-0.00787*
1,1,0.01575,-0.00984,-0.00787*
1,1,0.01575,-0.00984,0.00787*
1,1,0.01575,0.00984,0.00787*
%
%ADD30ROUNDEDRECTD30*%
G04:AMPARAMS|DCode=31|XSize=23.62mil|YSize=37.4mil|CornerRadius=5.91mil|HoleSize=0mil|Usage=FLASHONLY|Rotation=270.000|XOffset=0mil|YOffset=0mil|HoleType=Round|Shape=RoundedRectangle|*
%AMROUNDEDRECTD31*
21,1,0.02362,0.02559,0,0,270.0*
21,1,0.01181,0.03740,0,0,270.0*
1,1,0.01181,-0.01279,-0.00591*
1,1,0.01181,-0.01279,0.00591*
1,1,0.01181,0.01279,0.00591*
1,1,0.01181,0.01279,-0.00591*
%
%ADD31ROUNDEDRECTD31*%
G04:AMPARAMS|DCode=32|XSize=30mil|YSize=50mil|CornerRadius=7.5mil|HoleSize=0mil|Usage=FLASHONLY|Rotation=90.000|XOffset=0mil|YOffset=0mil|HoleType=Round|Shape=RoundedRectangle|*
%AMROUNDEDRECTD32*
21,1,0.03000,0.03500,0,0,90.0*
21,1,0.01500,0.05000,0,0,90.0*
1,1,0.01500,0.01750,0.00750*
1,1,0.01500,0.01750,-0.00750*
1,1,0.01500,-0.01750,-0.00750*
1,1,0.01500,-0.01750,0.00750*
%
%ADD32ROUNDEDRECTD32*%
G04:AMPARAMS|DCode=33|XSize=100mil|YSize=105.12mil|CornerRadius=25mil|HoleSize=0mil|Usage=FLASHONLY|Rotation=90.000|XOffset=0mil|YOffset=0mil|HoleType=Round|Shape=RoundedRectangle|*
%AMROUNDEDRECTD33*
21,1,0.10000,0.05512,0,0,90.0*
21,1,0.05000,0.10512,0,0,90.0*
1,1,0.05000,0.02756,0.02500*
1,1,0.05000,0.02756,-0.02500*
1,1,0.05000,-0.02756,-0.02500*
1,1,0.05000,-0.02756,0.02500*
%
%ADD33ROUNDEDRECTD33*%
G04:AMPARAMS|DCode=34|XSize=30mil|YSize=50mil|CornerRadius=7.5mil|HoleSize=0mil|Usage=FLASHONLY|Rotation=130.000|XOffset=0mil|YOffset=0mil|HoleType=Round|Shape=RoundedRectangle|*
%AMROUNDEDRECTD34*
21,1,0.03000,0.03500,0,0,130.0*
21,1,0.01500,0.05000,0,0,130.0*
1,1,0.01500,0.00859,0.01699*
1,1,0.01500,0.01823,0.00550*
1,1,0.01500,-0.00859,-0.01699*
1,1,0.01500,-0.01823,-0.00550*
%
%ADD34ROUNDEDRECTD34*%
G04:AMPARAMS|DCode=35|XSize=100mil|YSize=105.12mil|CornerRadius=25mil|HoleSize=0mil|Usage=FLASHONLY|Rotation=130.000|XOffset=0mil|YOffset=0mil|HoleType=Round|Shape=RoundedRectangle|*
%AMROUNDEDRECTD35*
21,1,0.10000,0.05512,0,0,130.0*
21,1,0.05000,0.10512,0,0,130.0*
1,1,0.05000,0.00504,0.03687*
1,1,0.05000,0.03718,-0.00144*
1,1,0.05000,-0.00504,-0.03687*
1,1,0.05000,-0.03718,0.00144*
%
%ADD35ROUNDEDRECTD35*%
G04:AMPARAMS|DCode=36|XSize=30mil|YSize=50mil|CornerRadius=7.5mil|HoleSize=0mil|Usage=FLASHONLY|Rotation=150.000|XOffset=0mil|YOffset=0mil|HoleType=Round|Shape=RoundedRectangle|*
%AMROUNDEDRECTD36*
21,1,0.03000,0.03500,0,0,150.0*
21,1,0.01500,0.05000,0,0,150.0*
1,1,0.01500,0.00226,0.01891*
1,1,0.01500,0.01524,0.01141*
1,1,0.01500,-0.00226,-0.01891*
1,1,0.01500,-0.01524,-0.01141*
%
%ADD36ROUNDEDRECTD36*%
G04:AMPARAMS|DCode=37|XSize=100mil|YSize=105.12mil|CornerRadius=25mil|HoleSize=0mil|Usage=FLASHONLY|Rotation=150.000|XOffset=0mil|YOffset=0mil|HoleType=Round|Shape=RoundedRectangle|*
%AMROUNDEDRECTD37*
21,1,0.10000,0.05512,0,0,150.0*
21,1,0.05000,0.10512,0,0,150.0*
1,1,0.05000,-0.00787,0.03637*
1,1,0.05000,0.03543,0.01137*
1,1,0.05000,0.00787,-0.03637*
1,1,0.05000,-0.03543,-0.01137*
%
%ADD37ROUNDEDRECTD37*%
G04:AMPARAMS|DCode=38|XSize=30mil|YSize=50mil|CornerRadius=7.5mil|HoleSize=0mil|Usage=FLASHONLY|Rotation=170.000|XOffset=0mil|YOffset=0mil|HoleType=Round|Shape=RoundedRectangle|*
%AMROUNDEDRECTD38*
21,1,0.03000,0.03500,0,0,170.0*
21,1,0.01500,0.05000,0,0,170.0*
1,1,0.01500,-0.00435,0.01854*
1,1,0.01500,0.01043,0.01593*
1,1,0.01500,0.00435,-0.01854*
1,1,0.01500,-0.01043,-0.01593*
%
%ADD38ROUNDEDRECTD38*%
G04:AMPARAMS|DCode=39|XSize=100mil|YSize=105.12mil|CornerRadius=25mil|HoleSize=0mil|Usage=FLASHONLY|Rotation=170.000|XOffset=0mil|YOffset=0mil|HoleType=Round|Shape=RoundedRectangle|*
%AMROUNDEDRECTD39*
21,1,0.10000,0.05512,0,0,170.0*
21,1,0.05000,0.10512,0,0,170.0*
1,1,0.05000,-0.01984,0.03148*
1,1,0.05000,0.02941,0.02280*
1,1,0.05000,0.01984,-0.03148*
1,1,0.05000,-0.02941,-0.02280*
%
%ADD39ROUNDEDRECTD39*%
G04:AMPARAMS|DCode=40|XSize=30mil|YSize=50mil|CornerRadius=7.5mil|HoleSize=0mil|Usage=FLASHONLY|Rotation=190.000|XOffset=0mil|YOffset=0mil|HoleType=Round|Shape=RoundedRectangle|*
%AMROUNDEDRECTD40*
21,1,0.03000,0.03500,0,0,190.0*
21,1,0.01500,0.05000,0,0,190.0*
1,1,0.01500,-0.01043,0.01593*
1,1,0.01500,0.00435,0.01854*
1,1,0.01500,0.01043,-0.01593*
1,1,0.01500,-0.00435,-0.01854*
%
%ADD40ROUNDEDRECTD40*%
G04:AMPARAMS|DCode=41|XSize=100mil|YSize=105.12mil|CornerRadius=25mil|HoleSize=0mil|Usage=FLASHONLY|Rotation=190.000|XOffset=0mil|YOffset=0mil|HoleType=Round|Shape=RoundedRectangle|*
%AMROUNDEDRECTD41*
21,1,0.10000,0.05512,0,0,190.0*
21,1,0.05000,0.10512,0,0,190.0*
1,1,0.05000,-0.02941,0.02280*
1,1,0.05000,0.01984,0.03148*
1,1,0.05000,0.02941,-0.02280*
1,1,0.05000,-0.01984,-0.03148*
%
%ADD41ROUNDEDRECTD41*%
G04:AMPARAMS|DCode=42|XSize=30mil|YSize=50mil|CornerRadius=7.5mil|HoleSize=0mil|Usage=FLASHONLY|Rotation=230.000|XOffset=0mil|YOffset=0mil|HoleType=Round|Shape=RoundedRectangle|*
%AMROUNDEDRECTD42*
21,1,0.03000,0.03500,0,0,230.0*
21,1,0.01500,0.05000,0,0,230.0*
1,1,0.01500,-0.01823,0.00550*
1,1,0.01500,-0.00859,0.01699*
1,1,0.01500,0.01823,-0.00550*
1,1,0.01500,0.00859,-0.01699*
%
%ADD42ROUNDEDRECTD42*%
G04:AMPARAMS|DCode=43|XSize=100mil|YSize=105.12mil|CornerRadius=25mil|HoleSize=0mil|Usage=FLASHONLY|Rotation=230.000|XOffset=0mil|YOffset=0mil|HoleType=Round|Shape=RoundedRectangle|*
%AMROUNDEDRECTD43*
21,1,0.10000,0.05512,0,0,230.0*
21,1,0.05000,0.10512,0,0,230.0*
1,1,0.05000,-0.03718,-0.00144*
1,1,0.05000,-0.00504,0.03687*
1,1,0.05000,0.03718,0.00144*
1,1,0.05000,0.00504,-0.03687*
%
%ADD43ROUNDEDRECTD43*%
G04:AMPARAMS|DCode=44|XSize=30mil|YSize=50mil|CornerRadius=7.5mil|HoleSize=0mil|Usage=FLASHONLY|Rotation=250.000|XOffset=0mil|YOffset=0mil|HoleType=Round|Shape=RoundedRectangle|*
%AMROUNDEDRECTD44*
21,1,0.03000,0.03500,0,0,250.0*
21,1,0.01500,0.05000,0,0,250.0*
1,1,0.01500,-0.01901,-0.00106*
1,1,0.01500,-0.01388,0.01303*
1,1,0.01500,0.01901,0.00106*
1,1,0.01500,0.01388,-0.01303*
%
%ADD44ROUNDEDRECTD44*%
G04:AMPARAMS|DCode=45|XSize=100mil|YSize=105.12mil|CornerRadius=25mil|HoleSize=0mil|Usage=FLASHONLY|Rotation=250.000|XOffset=0mil|YOffset=0mil|HoleType=Round|Shape=RoundedRectangle|*
%AMROUNDEDRECTD45*
21,1,0.10000,0.05512,0,0,250.0*
21,1,0.05000,0.10512,0,0,250.0*
1,1,0.05000,-0.03445,-0.01407*
1,1,0.05000,-0.01735,0.03292*
1,1,0.05000,0.03445,0.01407*
1,1,0.05000,0.01735,-0.03292*
%
%ADD45ROUNDEDRECTD45*%
G04:AMPARAMS|DCode=46|XSize=30mil|YSize=50mil|CornerRadius=7.5mil|HoleSize=0mil|Usage=FLASHONLY|Rotation=0.000|XOffset=0mil|YOffset=0mil|HoleType=Round|Shape=RoundedRectangle|*
%AMROUNDEDRECTD46*
21,1,0.03000,0.03500,0,0,0.0*
21,1,0.01500,0.05000,0,0,0.0*
1,1,0.01500,0.00750,-0.01750*
1,1,0.01500,-0.00750,-0.01750*
1,1,0.01500,-0.00750,0.01750*
1,1,0.01500,0.00750,0.01750*
%
%ADD46ROUNDEDRECTD46*%
G04:AMPARAMS|DCode=47|XSize=100mil|YSize=105.12mil|CornerRadius=25mil|HoleSize=0mil|Usage=FLASHONLY|Rotation=0.000|XOffset=0mil|YOffset=0mil|HoleType=Round|Shape=RoundedRectangle|*
%AMROUNDEDRECTD47*
21,1,0.10000,0.05512,0,0,0.0*
21,1,0.05000,0.10512,0,0,0.0*
1,1,0.05000,0.02500,-0.02756*
1,1,0.05000,-0.02500,-0.02756*
1,1,0.05000,-0.02500,0.02756*
1,1,0.05000,0.02500,0.02756*
%
%ADD47ROUNDEDRECTD47*%
G04:AMPARAMS|DCode=48|XSize=30mil|YSize=50mil|CornerRadius=7.5mil|HoleSize=0mil|Usage=FLASHONLY|Rotation=40.000|XOffset=0mil|YOffset=0mil|HoleType=Round|Shape=RoundedRectangle|*
%AMROUNDEDRECTD48*
21,1,0.03000,0.03500,0,0,40.0*
21,1,0.01500,0.05000,0,0,40.0*
1,1,0.01500,0.01699,-0.00859*
1,1,0.01500,0.00550,-0.01823*
1,1,0.01500,-0.01699,0.00859*
1,1,0.01500,-0.00550,0.01823*
%
%ADD48ROUNDEDRECTD48*%
G04:AMPARAMS|DCode=49|XSize=100mil|YSize=105.12mil|CornerRadius=25mil|HoleSize=0mil|Usage=FLASHONLY|Rotation=40.000|XOffset=0mil|YOffset=0mil|HoleType=Round|Shape=RoundedRectangle|*
%AMROUNDEDRECTD49*
21,1,0.10000,0.05512,0,0,40.0*
21,1,0.05000,0.10512,0,0,40.0*
1,1,0.05000,0.03687,-0.00504*
1,1,0.05000,-0.00144,-0.03718*
1,1,0.05000,-0.03687,0.00504*
1,1,0.05000,0.00144,0.03718*
%
%ADD49ROUNDEDRECTD49*%
G04:AMPARAMS|DCode=50|XSize=30mil|YSize=50mil|CornerRadius=7.5mil|HoleSize=0mil|Usage=FLASHONLY|Rotation=60.000|XOffset=0mil|YOffset=0mil|HoleType=Round|Shape=RoundedRectangle|*
%AMROUNDEDRECTD50*
21,1,0.03000,0.03500,0,0,60.0*
21,1,0.01500,0.05000,0,0,60.0*
1,1,0.01500,0.01891,-0.00226*
1,1,0.01500,0.01141,-0.01524*
1,1,0.01500,-0.01891,0.00226*
1,1,0.01500,-0.01141,0.01524*
%
%ADD50ROUNDEDRECTD50*%
G04:AMPARAMS|DCode=51|XSize=100mil|YSize=105.12mil|CornerRadius=25mil|HoleSize=0mil|Usage=FLASHONLY|Rotation=60.000|XOffset=0mil|YOffset=0mil|HoleType=Round|Shape=RoundedRectangle|*
%AMROUNDEDRECTD51*
21,1,0.10000,0.05512,0,0,60.0*
21,1,0.05000,0.10512,0,0,60.0*
1,1,0.05000,0.03637,0.00787*
1,1,0.05000,0.01137,-0.03543*
1,1,0.05000,-0.03637,-0.00787*
1,1,0.05000,-0.01137,0.03543*
%
%ADD51ROUNDEDRECTD51*%
G04:AMPARAMS|DCode=52|XSize=30mil|YSize=50mil|CornerRadius=7.5mil|HoleSize=0mil|Usage=FLASHONLY|Rotation=80.000|XOffset=0mil|YOffset=0mil|HoleType=Round|Shape=RoundedRectangle|*
%AMROUNDEDRECTD52*
21,1,0.03000,0.03500,0,0,80.0*
21,1,0.01500,0.05000,0,0,80.0*
1,1,0.01500,0.01854,0.00435*
1,1,0.01500,0.01593,-0.01043*
1,1,0.01500,-0.01854,-0.00435*
1,1,0.01500,-0.01593,0.01043*
%
%ADD52ROUNDEDRECTD52*%
G04:AMPARAMS|DCode=53|XSize=100mil|YSize=105.12mil|CornerRadius=25mil|HoleSize=0mil|Usage=FLASHONLY|Rotation=80.000|XOffset=0mil|YOffset=0mil|HoleType=Round|Shape=RoundedRectangle|*
%AMROUNDEDRECTD53*
21,1,0.10000,0.05512,0,0,80.0*
21,1,0.05000,0.10512,0,0,80.0*
1,1,0.05000,0.03148,0.01984*
1,1,0.05000,0.02280,-0.02941*
1,1,0.05000,-0.03148,-0.01984*
1,1,0.05000,-0.02280,0.02941*
%
%ADD53ROUNDEDRECTD53*%
G04:AMPARAMS|DCode=54|XSize=30mil|YSize=50mil|CornerRadius=7.5mil|HoleSize=0mil|Usage=FLASHONLY|Rotation=100.000|XOffset=0mil|YOffset=0mil|HoleType=Round|Shape=RoundedRectangle|*
%AMROUNDEDRECTD54*
21,1,0.03000,0.03500,0,0,100.0*
21,1,0.01500,0.05000,0,0,100.0*
1,1,0.01500,0.01593,0.01043*
1,1,0.01500,0.01854,-0.00435*
1,1,0.01500,-0.01593,-0.01043*
1,1,0.01500,-0.01854,0.00435*
%
%ADD54ROUNDEDRECTD54*%
G04:AMPARAMS|DCode=55|XSize=100mil|YSize=105.12mil|CornerRadius=25mil|HoleSize=0mil|Usage=FLASHONLY|Rotation=100.000|XOffset=0mil|YOffset=0mil|HoleType=Round|Shape=RoundedRectangle|*
%AMROUNDEDRECTD55*
21,1,0.10000,0.05512,0,0,100.0*
21,1,0.05000,0.10512,0,0,100.0*
1,1,0.05000,0.02280,0.02941*
1,1,0.05000,0.03148,-0.01984*
1,1,0.05000,-0.02280,-0.02941*
1,1,0.05000,-0.03148,0.01984*
%
%ADD55ROUNDEDRECTD55*%
G04:AMPARAMS|DCode=56|XSize=30mil|YSize=50mil|CornerRadius=7.5mil|HoleSize=0mil|Usage=FLASHONLY|Rotation=140.000|XOffset=0mil|YOffset=0mil|HoleType=Round|Shape=RoundedRectangle|*
%AMROUNDEDRECTD56*
21,1,0.03000,0.03500,0,0,140.0*
21,1,0.01500,0.05000,0,0,140.0*
1,1,0.01500,0.00550,0.01823*
1,1,0.01500,0.01699,0.00859*
1,1,0.01500,-0.00550,-0.01823*
1,1,0.01500,-0.01699,-0.00859*
%
%ADD56ROUNDEDRECTD56*%
G04:AMPARAMS|DCode=57|XSize=100mil|YSize=105.12mil|CornerRadius=25mil|HoleSize=0mil|Usage=FLASHONLY|Rotation=140.000|XOffset=0mil|YOffset=0mil|HoleType=Round|Shape=RoundedRectangle|*
%AMROUNDEDRECTD57*
21,1,0.10000,0.05512,0,0,140.0*
21,1,0.05000,0.10512,0,0,140.0*
1,1,0.05000,-0.00144,0.03718*
1,1,0.05000,0.03687,0.00504*
1,1,0.05000,0.00144,-0.03718*
1,1,0.05000,-0.03687,-0.00504*
%
%ADD57ROUNDEDRECTD57*%
G04:AMPARAMS|DCode=58|XSize=30mil|YSize=50mil|CornerRadius=7.5mil|HoleSize=0mil|Usage=FLASHONLY|Rotation=160.000|XOffset=0mil|YOffset=0mil|HoleType=Round|Shape=RoundedRectangle|*
%AMROUNDEDRECTD58*
21,1,0.03000,0.03500,0,0,160.0*
21,1,0.01500,0.05000,0,0,160.0*
1,1,0.01500,-0.00106,0.01901*
1,1,0.01500,0.01303,0.01388*
1,1,0.01500,0.00106,-0.01901*
1,1,0.01500,-0.01303,-0.01388*
%
%ADD58ROUNDEDRECTD58*%
G04:AMPARAMS|DCode=59|XSize=100mil|YSize=105.12mil|CornerRadius=25mil|HoleSize=0mil|Usage=FLASHONLY|Rotation=160.000|XOffset=0mil|YOffset=0mil|HoleType=Round|Shape=RoundedRectangle|*
%AMROUNDEDRECTD59*
21,1,0.10000,0.05512,0,0,160.0*
21,1,0.05000,0.10512,0,0,160.0*
1,1,0.05000,-0.01407,0.03445*
1,1,0.05000,0.03292,0.01735*
1,1,0.05000,0.01407,-0.03445*
1,1,0.05000,-0.03292,-0.01735*
%
%ADD59ROUNDEDRECTD59*%
G04:AMPARAMS|DCode=60|XSize=68.9mil|YSize=43.31mil|CornerRadius=10.83mil|HoleSize=0mil|Usage=FLASHONLY|Rotation=0.000|XOffset=0mil|YOffset=0mil|HoleType=Round|Shape=RoundedRectangle|*
%AMROUNDEDRECTD60*
21,1,0.06890,0.02165,0,0,0.0*
21,1,0.04724,0.04331,0,0,0.0*
1,1,0.02165,0.02362,-0.01083*
1,1,0.02165,-0.02362,-0.01083*
1,1,0.02165,-0.02362,0.01083*
1,1,0.02165,0.02362,0.01083*
%
%ADD60ROUNDEDRECTD60*%
G04:AMPARAMS|DCode=61|XSize=68.9mil|YSize=43.31mil|CornerRadius=10.83mil|HoleSize=0mil|Usage=FLASHONLY|Rotation=40.000|XOffset=0mil|YOffset=0mil|HoleType=Round|Shape=RoundedRectangle|*
%AMROUNDEDRECTD61*
21,1,0.06890,0.02165,0,0,40.0*
21,1,0.04724,0.04331,0,0,40.0*
1,1,0.02165,0.02506,0.00689*
1,1,0.02165,-0.01114,-0.02348*
1,1,0.02165,-0.02506,-0.00689*
1,1,0.02165,0.01114,0.02348*
%
%ADD61ROUNDEDRECTD61*%
G04:AMPARAMS|DCode=62|XSize=68.9mil|YSize=43.31mil|CornerRadius=10.83mil|HoleSize=0mil|Usage=FLASHONLY|Rotation=60.000|XOffset=0mil|YOffset=0mil|HoleType=Round|Shape=RoundedRectangle|*
%AMROUNDEDRECTD62*
21,1,0.06890,0.02165,0,0,60.0*
21,1,0.04724,0.04331,0,0,60.0*
1,1,0.02165,0.02119,0.01504*
1,1,0.02165,-0.00244,-0.02587*
1,1,0.02165,-0.02119,-0.01504*
1,1,0.02165,0.00244,0.02587*
%
%ADD62ROUNDEDRECTD62*%
G04:AMPARAMS|DCode=63|XSize=68.9mil|YSize=43.31mil|CornerRadius=10.83mil|HoleSize=0mil|Usage=FLASHONLY|Rotation=80.000|XOffset=0mil|YOffset=0mil|HoleType=Round|Shape=RoundedRectangle|*
%AMROUNDEDRECTD63*
21,1,0.06890,0.02165,0,0,80.0*
21,1,0.04724,0.04331,0,0,80.0*
1,1,0.02165,0.01476,0.02138*
1,1,0.02165,0.00656,-0.02514*
1,1,0.02165,-0.01476,-0.02138*
1,1,0.02165,-0.00656,0.02514*
%
%ADD63ROUNDEDRECTD63*%
G04:AMPARAMS|DCode=64|XSize=68.9mil|YSize=43.31mil|CornerRadius=10.83mil|HoleSize=0mil|Usage=FLASHONLY|Rotation=100.000|XOffset=0mil|YOffset=0mil|HoleType=Round|Shape=RoundedRectangle|*
%AMROUNDEDRECTD64*
21,1,0.06890,0.02165,0,0,100.0*
21,1,0.04724,0.04331,0,0,100.0*
1,1,0.02165,0.00656,0.02514*
1,1,0.02165,0.01476,-0.02138*
1,1,0.02165,-0.00656,-0.02514*
1,1,0.02165,-0.01476,0.02138*
%
%ADD64ROUNDEDRECTD64*%
G04:AMPARAMS|DCode=65|XSize=68.9mil|YSize=43.31mil|CornerRadius=10.83mil|HoleSize=0mil|Usage=FLASHONLY|Rotation=140.000|XOffset=0mil|YOffset=0mil|HoleType=Round|Shape=RoundedRectangle|*
%AMROUNDEDRECTD65*
21,1,0.06890,0.02165,0,0,140.0*
21,1,0.04724,0.04331,0,0,140.0*
1,1,0.02165,-0.01114,0.02348*
1,1,0.02165,0.02506,-0.00689*
1,1,0.02165,0.01114,-0.02348*
1,1,0.02165,-0.02506,0.00689*
%
%ADD65ROUNDEDRECTD65*%
G04:AMPARAMS|DCode=66|XSize=68.9mil|YSize=43.31mil|CornerRadius=10.83mil|HoleSize=0mil|Usage=FLASHONLY|Rotation=160.000|XOffset=0mil|YOffset=0mil|HoleType=Round|Shape=RoundedRectangle|*
%AMROUNDEDRECTD66*
21,1,0.06890,0.02165,0,0,160.0*
21,1,0.04724,0.04331,0,0,160.0*
1,1,0.02165,-0.01849,0.01825*
1,1,0.02165,0.02590,0.00210*
1,1,0.02165,0.01849,-0.01825*
1,1,0.02165,-0.02590,-0.00210*
%
%ADD66ROUNDEDRECTD66*%
G04:AMPARAMS|DCode=67|XSize=49.21mil|YSize=31.5mil|CornerRadius=7.87mil|HoleSize=0mil|Usage=FLASHONLY|Rotation=210.000|XOffset=0mil|YOffset=0mil|HoleType=Round|Shape=RoundedRectangle|*
%AMROUNDEDRECTD67*
21,1,0.04921,0.01575,0,0,210.0*
21,1,0.03347,0.03150,0,0,210.0*
1,1,0.01575,-0.01843,-0.00155*
1,1,0.01575,0.01055,0.01519*
1,1,0.01575,0.01843,0.00155*
1,1,0.01575,-0.01055,-0.01519*
%
%ADD67ROUNDEDRECTD67*%
G04:AMPARAMS|DCode=68|XSize=30mil|YSize=50mil|CornerRadius=7.5mil|HoleSize=0mil|Usage=FLASHONLY|Rotation=210.000|XOffset=0mil|YOffset=0mil|HoleType=Round|Shape=RoundedRectangle|*
%AMROUNDEDRECTD68*
21,1,0.03000,0.03500,0,0,210.0*
21,1,0.01500,0.05000,0,0,210.0*
1,1,0.01500,-0.01524,0.01141*
1,1,0.01500,-0.00226,0.01891*
1,1,0.01500,0.01524,-0.01141*
1,1,0.01500,0.00226,-0.01891*
%
%ADD68ROUNDEDRECTD68*%
G04:AMPARAMS|DCode=69|XSize=100mil|YSize=105.12mil|CornerRadius=25mil|HoleSize=0mil|Usage=FLASHONLY|Rotation=210.000|XOffset=0mil|YOffset=0mil|HoleType=Round|Shape=RoundedRectangle|*
%AMROUNDEDRECTD69*
21,1,0.10000,0.05512,0,0,210.0*
21,1,0.05000,0.10512,0,0,210.0*
1,1,0.05000,-0.03543,0.01137*
1,1,0.05000,0.00787,0.03637*
1,1,0.05000,0.03543,-0.01137*
1,1,0.05000,-0.00787,-0.03637*
%
%ADD69ROUNDEDRECTD69*%
G04:AMPARAMS|DCode=70|XSize=30mil|YSize=50mil|CornerRadius=7.5mil|HoleSize=0mil|Usage=FLASHONLY|Rotation=120.000|XOffset=0mil|YOffset=0mil|HoleType=Round|Shape=RoundedRectangle|*
%AMROUNDEDRECTD70*
21,1,0.03000,0.03500,0,0,120.0*
21,1,0.01500,0.05000,0,0,120.0*
1,1,0.01500,0.01141,0.01524*
1,1,0.01500,0.01891,0.00226*
1,1,0.01500,-0.01141,-0.01524*
1,1,0.01500,-0.01891,-0.00226*
%
%ADD70ROUNDEDRECTD70*%
G04:AMPARAMS|DCode=71|XSize=100mil|YSize=105.12mil|CornerRadius=25mil|HoleSize=0mil|Usage=FLASHONLY|Rotation=120.000|XOffset=0mil|YOffset=0mil|HoleType=Round|Shape=RoundedRectangle|*
%AMROUNDEDRECTD71*
21,1,0.10000,0.05512,0,0,120.0*
21,1,0.05000,0.10512,0,0,120.0*
1,1,0.05000,0.01137,0.03543*
1,1,0.05000,0.03637,-0.00787*
1,1,0.05000,-0.01137,-0.03543*
1,1,0.05000,-0.03637,0.00787*
%
%ADD71ROUNDEDRECTD71*%
G04:AMPARAMS|DCode=72|XSize=68.9mil|YSize=43.31mil|CornerRadius=10.83mil|HoleSize=0mil|Usage=FLASHONLY|Rotation=120.000|XOffset=0mil|YOffset=0mil|HoleType=Round|Shape=RoundedRectangle|*
%AMROUNDEDRECTD72*
21,1,0.06890,0.02165,0,0,120.0*
21,1,0.04724,0.04331,0,0,120.0*
1,1,0.02165,-0.00244,0.02587*
1,1,0.02165,0.02119,-0.01504*
1,1,0.02165,0.00244,-0.02587*
1,1,0.02165,-0.02119,0.01504*
%
%ADD72ROUNDEDRECTD72*%
G04:AMPARAMS|DCode=73|XSize=20mil|YSize=50mil|CornerRadius=5mil|HoleSize=0mil|Usage=FLASHONLY|Rotation=310.000|XOffset=0mil|YOffset=0mil|HoleType=Round|Shape=RoundedRectangle|*
%AMROUNDEDRECTD73*
21,1,0.02000,0.04000,0,0,310.0*
21,1,0.01000,0.05000,0,0,310.0*
1,1,0.01000,-0.01211,-0.01669*
1,1,0.01000,-0.01853,-0.00903*
1,1,0.01000,0.01211,0.01669*
1,1,0.01000,0.01853,0.00903*
%
%ADD73ROUNDEDRECTD73*%
G04:AMPARAMS|DCode=74|XSize=20mil|YSize=50mil|CornerRadius=5mil|HoleSize=0mil|Usage=FLASHONLY|Rotation=290.000|XOffset=0mil|YOffset=0mil|HoleType=Round|Shape=RoundedRectangle|*
%AMROUNDEDRECTD74*
21,1,0.02000,0.04000,0,0,290.0*
21,1,0.01000,0.05000,0,0,290.0*
1,1,0.01000,-0.01708,-0.01154*
1,1,0.01000,-0.02050,-0.00214*
1,1,0.01000,0.01708,0.01154*
1,1,0.01000,0.02050,0.00214*
%
%ADD74ROUNDEDRECTD74*%
G04:AMPARAMS|DCode=75|XSize=20mil|YSize=50mil|CornerRadius=5mil|HoleSize=0mil|Usage=FLASHONLY|Rotation=330.000|XOffset=0mil|YOffset=0mil|HoleType=Round|Shape=RoundedRectangle|*
%AMROUNDEDRECTD75*
21,1,0.02000,0.04000,0,0,330.0*
21,1,0.01000,0.05000,0,0,330.0*
1,1,0.01000,-0.00567,-0.01982*
1,1,0.01000,-0.01433,-0.01482*
1,1,0.01000,0.00567,0.01982*
1,1,0.01000,0.01433,0.01482*
%
%ADD75ROUNDEDRECTD75*%
G04:AMPARAMS|DCode=76|XSize=102.36mil|YSize=43.31mil|CornerRadius=10.83mil|HoleSize=0mil|Usage=FLASHONLY|Rotation=270.000|XOffset=0mil|YOffset=0mil|HoleType=Round|Shape=RoundedRectangle|*
%AMROUNDEDRECTD76*
21,1,0.10236,0.02165,0,0,270.0*
21,1,0.08071,0.04331,0,0,270.0*
1,1,0.02165,-0.01083,-0.04035*
1,1,0.02165,-0.01083,0.04035*
1,1,0.02165,0.01083,0.04035*
1,1,0.02165,0.01083,-0.04035*
%
%ADD76ROUNDEDRECTD76*%
G04:AMPARAMS|DCode=77|XSize=39.37mil|YSize=21.65mil|CornerRadius=5.41mil|HoleSize=0mil|Usage=FLASHONLY|Rotation=180.000|XOffset=0mil|YOffset=0mil|HoleType=Round|Shape=RoundedRectangle|*
%AMROUNDEDRECTD77*
21,1,0.03937,0.01083,0,0,180.0*
21,1,0.02854,0.02165,0,0,180.0*
1,1,0.01083,-0.01427,0.00541*
1,1,0.01083,0.01427,0.00541*
1,1,0.01083,0.01427,-0.00541*
1,1,0.01083,-0.01427,-0.00541*
%
%ADD77ROUNDEDRECTD77*%
%ADD78C,0.01000*%
G36*
X063461Y038244D02*
X0635462Y0381948D01*
X063251Y0376834D01*
X0631657Y0377326D01*
X0630444Y0379163D01*
X0632641Y0379031D01*
X0631429Y0380867D01*
X0633626Y0380735D01*
X0632413Y0382572D01*
X063461Y038244D01*
D02*
G37*
G36*
X0594787Y0328278D02*
X0595299Y0326137D01*
X0593279Y0327012D01*
X0593791Y0324872D01*
X0591771Y0325747D01*
X0592283Y0323607D01*
X0590263Y0324482D01*
X0589631Y0325236D01*
X0594155Y0329032D01*
X0594787Y0328278D01*
D02*
G37*
G36*
X0629468Y0385409D02*
X0630681Y0383572D01*
X0628484Y0383704D01*
X0629697Y0381867D01*
X06275Y0381999D01*
X0628712Y0380163D01*
X0626515Y0380294D01*
X0625663Y0380786D01*
X0628616Y0385901D01*
X0629468Y0385409D01*
D02*
G37*
G36*
X0644171Y0454492D02*
X0645938Y0453181D01*
X0643829Y0452554D01*
X0645596Y0451243D01*
X0643487Y0450615D01*
X0645255Y0449304D01*
X0643145Y0448676D01*
X0642176Y0448847D01*
X0643201Y0454663D01*
X0644171Y0454492D01*
D02*
G37*
G36*
X0650987Y0453291D02*
X0649961Y0447475D01*
X0648992Y0447646D01*
X0647224Y0448957D01*
X0649334Y0449584D01*
X0647566Y0450895D01*
X0649676Y0451523D01*
X0647908Y0452834D01*
X0650017Y0453461D01*
X0650987Y0453291D01*
D02*
G37*
G36*
X0541611Y0283585D02*
X0541948Y028266D01*
X0536399Y028064D01*
X0536062Y0281565D01*
X0536314Y0283752D01*
X0537912Y0282239D01*
X0538163Y0284425D01*
X0539761Y0282912D01*
X0540013Y0285098D01*
X0541611Y0283585D01*
D02*
G37*
G36*
X0474453Y0279516D02*
Y0278532D01*
X0468547D01*
Y0279516D01*
X0469531Y0281484D01*
X0470516Y0279516D01*
X04715Y0281484D01*
X0472484Y0279516D01*
X0473468Y0281484D01*
X0474453Y0279516D01*
D02*
G37*
G36*
Y0285453D02*
X0473468Y0283484D01*
X0472484Y0285453D01*
X04715Y0283484D01*
X0470516Y0285453D01*
X0469531Y0283484D01*
X0468547Y0285453D01*
Y0286437D01*
X0474453D01*
Y0285453D01*
D02*
G37*
G36*
X0598603Y032373D02*
X0599236Y0322976D01*
X0594712Y031918D01*
X059408Y0319934D01*
X0593568Y0322075D01*
X0595588Y0321199D01*
X0595076Y032334D01*
X0597096Y0322464D01*
X0596584Y0324605D01*
X0598603Y032373D01*
D02*
G37*
G36*
X0539581Y0289164D02*
X0539329Y0286978D01*
X0537731Y0288491D01*
X0537479Y0286304D01*
X0535881Y0287817D01*
X053563Y0285631D01*
X0534031Y0287144D01*
X0533695Y0288069D01*
X0539244Y0290089D01*
X0539581Y0289164D01*
D02*
G37*
G36*
X0504199Y0670628D02*
X0505797Y0672141D01*
X0506049Y0669955D01*
X0507647Y0671468D01*
X0507898Y0669281D01*
X0507562Y0668357D01*
X0502012Y0670376D01*
X0502349Y0671301D01*
X0503947Y0672814D01*
X0504199Y0670628D01*
D02*
G37*
G36*
X05722Y0638021D02*
X0571567Y0637267D01*
X0569548Y0636391D01*
X0570059Y0638532D01*
X056804Y0637657D01*
X0568551Y0639797D01*
X0566532Y0638922D01*
X0567043Y0641063D01*
X0567676Y0641817D01*
X05722Y0638021D01*
D02*
G37*
G36*
X0510266Y0675785D02*
X0509929Y067486D01*
X0508331Y0673347D01*
X0508079Y0675534D01*
X0506481Y067402D01*
X0506229Y0676207D01*
X0504631Y0674694D01*
X050438Y067688D01*
X0504716Y0677805D01*
X0510266Y0675785D01*
D02*
G37*
G36*
X0438953Y0691169D02*
X0437968Y0689201D01*
X0436984Y0691169D01*
X0436Y0689201D01*
X0435016Y0691169D01*
X0434031Y0689201D01*
X0433047Y0691169D01*
Y0692154D01*
X0438953D01*
Y0691169D01*
D02*
G37*
G36*
Y0685232D02*
Y0684248D01*
X0433047D01*
Y0685232D01*
X0434031Y0687201D01*
X0435016Y0685232D01*
X0436Y0687201D01*
X0436984Y0685232D01*
X0437968Y0687201D01*
X0438953Y0685232D01*
D02*
G37*
G36*
X0646478Y0517465D02*
X0645509Y0517294D01*
X0643399Y0517922D01*
X0645167Y0519233D01*
X0643057Y051986D01*
X0644825Y0521171D01*
X0642716Y0521799D01*
X0644483Y052311D01*
X0645452Y0523281D01*
X0646478Y0517465D01*
D02*
G37*
G36*
X0640746Y0521452D02*
X0638978Y0520141D01*
X0641088Y0519513D01*
X063932Y0518202D01*
X064143Y0517574D01*
X0639662Y0516263D01*
X0638693Y0516092D01*
X0637667Y0521908D01*
X0638636Y0522079D01*
X0640746Y0521452D01*
D02*
G37*
G36*
X06115Y0583436D02*
X0613697Y0583568D01*
X0612484Y0581731D01*
X0614681Y0581863D01*
X0613468Y0580027D01*
X0612616Y0579534D01*
X0609663Y0584649D01*
X0610515Y0585141D01*
X0612712Y0585273D01*
X06115Y0583436D01*
D02*
G37*
G36*
X0564735Y0635249D02*
X0566754Y0636125D01*
X0566243Y0633984D01*
X0568262Y0634859D01*
X0567751Y0632719D01*
X0567118Y0631965D01*
X0562595Y0635761D01*
X0563227Y0636515D01*
X0565246Y063739D01*
X0564735Y0635249D01*
D02*
G37*
G36*
X0619462Y0583487D02*
X061861Y0582995D01*
X0616413Y0582863D01*
X0617626Y05847D01*
X0615429Y0584568D01*
X0616641Y0586405D01*
X0614444Y0586273D01*
X0615657Y0588109D01*
X0616509Y0588601D01*
X0619462Y0583487D01*
D02*
G37*
D11*
X0502078Y026509D02*
D03*
X0505714Y0255101D02*
D03*
X05175Y02695D02*
D03*
X0513864Y0279489D02*
D03*
D12*
X0507864Y027697D02*
D03*
D13*
X0499166Y0273804D02*
D03*
D14*
X0525376Y0284408D02*
D03*
D15*
X0528542Y027571D02*
D03*
D16*
X055093Y0295305D02*
D03*
X0543901Y0292747D02*
D03*
X0558462Y0274613D02*
D03*
X0551432Y0272055D02*
D03*
D17*
X0504787Y0669366D02*
D03*
X0507491Y0676795D02*
D03*
D18*
X0436Y0684248D02*
D03*
Y0692154D02*
D03*
X04715Y0286437D02*
D03*
Y0278532D02*
D03*
D19*
X0564856Y0633863D02*
D03*
X0569938Y0639919D02*
D03*
D20*
X0611139Y0582092D02*
D03*
X0617986Y0586044D02*
D03*
D21*
X0642689Y0451755D02*
D03*
X0650474Y0450383D02*
D03*
D22*
X063818Y0519D02*
D03*
X0645965Y0520373D02*
D03*
D23*
X048624Y0265736D02*
D03*
X047876D02*
D03*
X042026Y0705705D02*
D03*
X042774D02*
D03*
X048624Y0287756D02*
D03*
X047876D02*
D03*
X042026Y0683685D02*
D03*
X042774D02*
D03*
D24*
X0617742Y0320815D02*
D03*
X0612012Y0316006D02*
D03*
X0603588Y0337683D02*
D03*
X0597858Y0332874D02*
D03*
D25*
X0653592Y0386247D02*
D03*
X0649852Y0379768D02*
D03*
X0634522Y0397256D02*
D03*
X0630782Y0390778D02*
D03*
D26*
X0666552Y046353D02*
D03*
X0665254Y0456164D02*
D03*
X0644867Y0467354D02*
D03*
X0643568Y0459987D02*
D03*
D27*
X0656577Y0538227D02*
D03*
X0657876Y0530861D02*
D03*
X0634892Y0534404D02*
D03*
X0636191Y0527037D02*
D03*
D28*
X0566591Y0660417D02*
D03*
X0572321Y0655609D02*
D03*
X0552437Y0643549D02*
D03*
X0558167Y0638741D02*
D03*
D29*
X0497335Y0694913D02*
D03*
X0504364Y0692354D02*
D03*
X0489804Y0674221D02*
D03*
X0496833Y0671662D02*
D03*
D30*
X04535Y0236047D02*
D03*
Y0241953D02*
D03*
D31*
X0446535Y023526D02*
D03*
Y024274D02*
D03*
X0438465Y0239D02*
D03*
D32*
X04585Y0286256D02*
D03*
X0448Y0685185D02*
D03*
D33*
X04585Y0277D02*
D03*
X0448Y0694441D02*
D03*
D34*
X0583302Y0318703D02*
D03*
D35*
X0589252Y0311612D02*
D03*
D36*
X0621951Y0372483D02*
D03*
D37*
X0629967Y0367855D02*
D03*
D38*
X0641528Y0439775D02*
D03*
D39*
X0650643Y0438168D02*
D03*
D40*
X0641186Y0507345D02*
D03*
D41*
X0650302Y0508953D02*
D03*
D42*
X0574651Y0626867D02*
D03*
D43*
X0580601Y0633957D02*
D03*
D44*
X0516384Y0666143D02*
D03*
D45*
X051955Y067484D02*
D03*
D46*
X04395Y0285256D02*
D03*
X0467Y0686185D02*
D03*
D47*
X0430244Y0285256D02*
D03*
X0476256Y0686185D02*
D03*
D48*
X056939Y0305724D02*
D03*
D49*
X05623Y0299774D02*
D03*
D50*
X0613317Y0355528D02*
D03*
D51*
X0608689Y0347513D02*
D03*
D52*
X0639213Y042089D02*
D03*
D53*
X0637606Y0411775D02*
D03*
D54*
X0645471Y0488808D02*
D03*
D55*
X0647078Y0479692D02*
D03*
D56*
X0589849Y061542D02*
D03*
D57*
X0596939Y0609471D02*
D03*
D58*
X053458Y0660584D02*
D03*
D59*
X0543278Y0657418D02*
D03*
D60*
X0446Y0274941D02*
D03*
Y0285571D02*
D03*
X04605Y06965D02*
D03*
Y068587D02*
D03*
X043Y0276071D02*
D03*
Y0265441D02*
D03*
X04765Y069537D02*
D03*
Y0706D02*
D03*
D61*
X0581Y0302D02*
D03*
X0574167Y0310143D02*
D03*
X0568017Y0292581D02*
D03*
X057485Y0284438D02*
D03*
D62*
X06255Y0356D02*
D03*
X0616294Y0361315D02*
D03*
X0616522Y0342709D02*
D03*
X0625727Y0337394D02*
D03*
D63*
X06505Y04255D02*
D03*
X0640031Y0427346D02*
D03*
X0646609Y0409939D02*
D03*
X0657077Y0408093D02*
D03*
D64*
X06545Y0497D02*
D03*
X0644032Y0495154D02*
D03*
X0656166Y0481047D02*
D03*
X0666634Y0482893D02*
D03*
D65*
X05915Y06275D02*
D03*
X0584667Y0619357D02*
D03*
X060303Y061635D02*
D03*
X0609863Y0624493D02*
D03*
D66*
X0532Y06725D02*
D03*
X0528364Y0662511D02*
D03*
X0546649Y0665966D02*
D03*
X0550284Y0675955D02*
D03*
D67*
X0621851Y0606451D02*
D03*
X0625592Y0599973D02*
D03*
X0602782Y0595441D02*
D03*
X0606522Y0588963D02*
D03*
D68*
X0617951Y0572168D02*
D03*
D69*
X0625967Y0576796D02*
D03*
D70*
X0628317Y0556213D02*
D03*
D71*
X0632945Y0548198D02*
D03*
D72*
X0634Y0567D02*
D03*
X0624794Y0561685D02*
D03*
X0641021Y0552579D02*
D03*
X0650227Y0557894D02*
D03*
D73*
X0591893Y0327134D02*
D03*
X0596974Y0321078D02*
D03*
D74*
X0536469Y0289079D02*
D03*
X0539173Y028165D02*
D03*
D75*
X062714Y0383344D02*
D03*
X0633986Y0379391D02*
D03*
D76*
X0403185Y02385D02*
D03*
X0413815D02*
D03*
Y02505D02*
D03*
X0403185D02*
D03*
D77*
X04205Y0239154D02*
D03*
Y02425D02*
D03*
Y0245847D02*
D03*
X0432311D02*
D03*
Y02425D02*
D03*
Y0239154D02*
D03*
D78*
X0502012Y0670376D02*
X0502349Y0671301D01*
X0503947Y0672814D01*
X0504199Y0670628D01*
X0505797Y0672141D01*
X0506049Y0669955D01*
X0507647Y0671468D01*
X0507898Y0669281D01*
X0507562Y0668357D02*
X0507898Y0669281D01*
X0502012Y0670376D02*
X0507562Y0668357D01*
X0504716Y0677805D02*
X0510266Y0675785D01*
X050438Y067688D02*
X0504716Y0677805D01*
X050438Y067688D02*
X0504631Y0674694D01*
X0506229Y0676207D01*
X0506481Y067402D01*
X0508079Y0675534D01*
X0508331Y0673347D01*
X0509929Y067486D01*
X0510266Y0675785D01*
X0433047Y0684248D02*
Y0685232D01*
X0434031Y0687201D01*
X0435016Y0685232D01*
X0436Y0687201D01*
X0436984Y0685232D01*
X0437968Y0687201D01*
X0438953Y0685232D01*
Y0684248D02*
Y0685232D01*
X0433047Y0684248D02*
X0438953D01*
X0433047Y0692154D02*
X0438953D01*
X0433047Y0691169D02*
Y0692154D01*
Y0691169D02*
X0434031Y0689201D01*
X0435016Y0691169D01*
X0436Y0689201D01*
X0436984Y0691169D01*
X0437968Y0689201D01*
X0438953Y0691169D01*
Y0692154D01*
X0562595Y0635761D02*
X0563227Y0636515D01*
X0565246Y063739D01*
X0564735Y0635249D02*
X0565246Y063739D01*
X0564735Y0635249D02*
X0566754Y0636125D01*
X0566243Y0633984D02*
X0566754Y0636125D01*
X0566243Y0633984D02*
X0568262Y0634859D01*
X0567751Y0632719D02*
X0568262Y0634859D01*
X0567118Y0631965D02*
X0567751Y0632719D01*
X0562595Y0635761D02*
X0567118Y0631965D01*
X0567676Y0641817D02*
X05722Y0638021D01*
X0567043Y0641063D02*
X0567676Y0641817D01*
X0566532Y0638922D02*
X0567043Y0641063D01*
X0566532Y0638922D02*
X0568551Y0639797D01*
X056804Y0637657D02*
X0568551Y0639797D01*
X056804Y0637657D02*
X0570059Y0638532D01*
X0569548Y0636391D02*
X0570059Y0638532D01*
X0569548Y0636391D02*
X0571567Y0637267D01*
X05722Y0638021D01*
X0609663Y0584649D02*
X0610515Y0585141D01*
X0612712Y0585273D01*
X06115Y0583436D02*
X0612712Y0585273D01*
X06115Y0583436D02*
X0613697Y0583568D01*
X0612484Y0581731D02*
X0613697Y0583568D01*
X0612484Y0581731D02*
X0614681Y0581863D01*
X0613468Y0580027D02*
X0614681Y0581863D01*
X0612616Y0579534D02*
X0613468Y0580027D01*
X0609663Y0584649D02*
X0612616Y0579534D01*
X0616509Y0588601D02*
X0619462Y0583487D01*
X0615657Y0588109D02*
X0616509Y0588601D01*
X0614444Y0586273D02*
X0615657Y0588109D01*
X0614444Y0586273D02*
X0616641Y0586405D01*
X0615429Y0584568D02*
X0616641Y0586405D01*
X0615429Y0584568D02*
X0617626Y05847D01*
X0616413Y0582863D02*
X0617626Y05847D01*
X0616413Y0582863D02*
X061861Y0582995D01*
X0619462Y0583487D01*
X0643201Y0454663D02*
X0644171Y0454492D01*
X0645938Y0453181D01*
X0643829Y0452554D02*
X0645938Y0453181D01*
X0643829Y0452554D02*
X0645596Y0451243D01*
X0643487Y0450615D02*
X0645596Y0451243D01*
X0643487Y0450615D02*
X0645255Y0449304D01*
X0643145Y0448676D02*
X0645255Y0449304D01*
X0642176Y0448847D02*
X0643145Y0448676D01*
X0642176Y0448847D02*
X0643201Y0454663D01*
X0649961Y0447475D02*
X0650987Y0453291D01*
X0650017Y0453461D02*
X0650987Y0453291D01*
X0647908Y0452834D02*
X0650017Y0453461D01*
X0647908Y0452834D02*
X0649676Y0451523D01*
X0647566Y0450895D02*
X0649676Y0451523D01*
X0647566Y0450895D02*
X0649334Y0449584D01*
X0647224Y0448957D02*
X0649334Y0449584D01*
X0647224Y0448957D02*
X0648992Y0447646D01*
X0649961Y0447475D01*
X0637667Y0521908D02*
X0638636Y0522079D01*
X0640746Y0521452D01*
X0638978Y0520141D02*
X0640746Y0521452D01*
X0638978Y0520141D02*
X0641088Y0519513D01*
X063932Y0518202D02*
X0641088Y0519513D01*
X063932Y0518202D02*
X064143Y0517574D01*
X0639662Y0516263D02*
X064143Y0517574D01*
X0638693Y0516092D02*
X0639662Y0516263D01*
X0637667Y0521908D02*
X0638693Y0516092D01*
X0645452Y0523281D02*
X0646478Y0517465D01*
X0644483Y052311D02*
X0645452Y0523281D01*
X0642716Y0521799D02*
X0644483Y052311D01*
X0642716Y0521799D02*
X0644825Y0521171D01*
X0643057Y051986D02*
X0644825Y0521171D01*
X0643057Y051986D02*
X0645167Y0519233D01*
X0643399Y0517922D02*
X0645167Y0519233D01*
X0643399Y0517922D02*
X0645509Y0517294D01*
X0646478Y0517465D01*
X0593279Y0327012D02*
X0595299Y0326137D01*
X0593279Y0327012D02*
X0593791Y0324872D01*
X0591771Y0325747D02*
X0593791Y0324872D01*
X0591771Y0325747D02*
X0592283Y0323607D01*
X0596584Y0324605D02*
X0597096Y0322464D01*
X0595076Y032334D02*
X0597096Y0322464D01*
X0595076Y032334D02*
X0595588Y0321199D01*
X0593568Y0322075D02*
X0595588Y0321199D01*
X0594712Y031918D02*
X0596974Y0321078D01*
X0599236Y0322976D01*
X0589631Y0325236D02*
X0591893Y0327134D01*
X0594155Y0329032D01*
X0537731Y0288491D02*
X0539329Y0286978D01*
X0537479Y0286304D02*
X0537731Y0288491D01*
X0535881Y0287817D02*
X0537479Y0286304D01*
X053563Y0285631D02*
X0535881Y0287817D01*
X0539761Y0282912D02*
X0540013Y0285098D01*
X0538163Y0284425D02*
X0539761Y0282912D01*
X0537912Y0282239D02*
X0538163Y0284425D01*
X0536314Y0283752D02*
X0537912Y0282239D01*
X0539173Y028165D02*
X0541948Y028266D01*
X0536399Y028064D02*
X0539173Y028165D01*
X0536469Y0289079D02*
X0539244Y0290089D01*
X0533695Y0288069D02*
X0536469Y0289079D01*
X0474453Y0285453D02*
Y0286437D01*
X0473468Y0283484D02*
X0474453Y0285453D01*
X0472484D02*
X0473468Y0283484D01*
X04715D02*
X0472484Y0285453D01*
X0470516D02*
X04715Y0283484D01*
X0469531D02*
X0470516Y0285453D01*
X0468547D02*
X0469531Y0283484D01*
X0468547Y0285453D02*
Y0286437D01*
X0474453D01*
X0468547Y0278532D02*
X0474453D01*
Y0279516D01*
X0473468Y0281484D02*
X0474453Y0279516D01*
X0472484D02*
X0473468Y0281484D01*
X04715D02*
X0472484Y0279516D01*
X0470516D02*
X04715Y0281484D01*
X0469531D02*
X0470516Y0279516D01*
X0468547D02*
X0469531Y0281484D01*
X0468547Y0278532D02*
Y0279516D01*
X0628616Y0385901D02*
X0629468Y0385409D01*
X0630681Y0383572D01*
X0628484Y0383704D02*
X0630681Y0383572D01*
X0628484Y0383704D02*
X0629697Y0381867D01*
X06275Y0381999D02*
X0629697Y0381867D01*
X06275Y0381999D02*
X0628712Y0380163D01*
X0626515Y0380294D02*
X0628712Y0380163D01*
X0625663Y0380786D02*
X0626515Y0380294D01*
X0625663Y0380786D02*
X0628616Y0385901D01*
X063251Y0376834D02*
X0635462Y0381948D01*
X063461Y038244D02*
X0635462Y0381948D01*
X0632413Y0382572D02*
X063461Y038244D01*
X0632413Y0382572D02*
X0633626Y0380735D01*
X0631429Y0380867D02*
X0633626Y0380735D01*
X0631429Y0380867D02*
X0632641Y0379031D01*
X0630444Y0379163D02*
X0632641Y0379031D01*
X0630444Y0379163D02*
X0631657Y0377326D01*
X063251Y0376834D01*
X0594155Y0329032D02*
X0594787Y0328278D01*
X0539244Y0290089D02*
X0539581Y0289164D01*
X0541611Y0283585D02*
X0541948Y028266D01*
X0533695Y0288069D02*
X0534031Y0287144D01*
X0589631Y0325236D02*
X0590263Y0324482D01*
X0594712Y031918D02*
Y031918D01*
X0598603Y032373D02*
X0599236Y0322976D01*
X0536062Y0281565D02*
X0536112Y0282002D01*
X0536314Y0283752D01*
X0540013Y0285098D02*
X0541292Y0283888D01*
X0541611Y0283585D01*
X0593977Y0320362D02*
X059408Y0319934D01*
X0593568Y0322075D02*
X0593977Y0320362D01*
X0596584Y0324605D02*
X05982Y0323905D01*
X0598603Y032373D01*
X0534031Y0287144D02*
X0534351Y0286842D01*
X053563Y0285631D01*
X0539329Y0286978D02*
X053953Y0288727D01*
X0539581Y0289164D01*
X0590263Y0324482D02*
X0590667Y0324307D01*
X0592283Y0323607D01*
X059489Y032785D02*
X0595299Y0326137D01*
X0594787Y0328278D02*
X059489Y032785D01*
X0536062Y0281565D02*
X0536399Y028064D01*
X059408Y0319934D02*
X0594712Y031918D01*
M02*
