G04 Layer_Color=32896*
%FSTAX25Y25*%
%MOIN*%
G70*
G01*
G75*
%ADD78C,0.01000*%
D78*
X0389Y0628311D02*
X0390999D01*
X0391666Y0627644D01*
X0390999Y0626978D01*
X0389666D01*
X0389Y0626311D01*
X0389666Y0625645D01*
X0391666D01*
X0393665Y0628311D02*
X0394998D01*
X0395665Y0627644D01*
Y0626311D01*
X0394998Y0625645D01*
X0393665D01*
X0392999Y0626311D01*
Y0627644D01*
X0393665Y0628311D01*
X0400996D02*
Y0625645D01*
X0401663D01*
X0402329Y0626311D01*
Y0628311D01*
Y0626311D01*
X0402995Y0625645D01*
X0403662Y0626311D01*
Y0628311D01*
X0404995Y0625645D02*
Y0627644D01*
X0405661Y0628311D01*
X0407661D01*
Y0625645D01*
X0411659D02*
X040966D01*
X0408994Y0626311D01*
Y0627644D01*
X040966Y0628311D01*
X0411659D01*
X0412992Y0624312D02*
Y0628311D01*
Y0626311D01*
X0413659Y0625645D01*
X0414992D01*
X0415658Y0626311D01*
Y0628311D01*
X042099Y0625645D02*
X0422323Y0628311D01*
X0423656Y0625645D01*
X0425655Y0628311D02*
X0426988D01*
X0427654Y0627644D01*
Y0626311D01*
X0426988Y0625645D01*
X0425655D01*
X0424988Y0626311D01*
Y0627644D01*
X0425655Y0628311D01*
X0428987D02*
X043032D01*
X0429654D01*
Y0624312D01*
X0428987D01*
X0432986Y0624978D02*
Y0625645D01*
X0432319D01*
X0433652D01*
X0432986D01*
Y0627644D01*
X0433652Y0628311D01*
X0435652D02*
X0437651D01*
X0438317Y0627644D01*
X0437651Y0626978D01*
X0436318D01*
X0435652Y0626311D01*
X0436318Y0625645D01*
X0438317D01*
X0389Y0635509D02*
X0390999D01*
X0391666Y0634843D01*
X0390999Y0634176D01*
X0389666D01*
X0389Y063351D01*
X0389666Y0632843D01*
X0391666D01*
X0393665Y0635509D02*
X0394998D01*
X0395665Y0634843D01*
Y063351D01*
X0394998Y0632843D01*
X0393665D01*
X0392999Y063351D01*
Y0634843D01*
X0393665Y0635509D01*
X0400996D02*
Y0632843D01*
X0401663D01*
X0402329Y063351D01*
Y0635509D01*
Y063351D01*
X0402995Y0632843D01*
X0403662Y063351D01*
Y0635509D01*
X0405661Y0632843D02*
X0406994D01*
X0407661Y063351D01*
Y0635509D01*
X0405661D01*
X0404995Y0634843D01*
X0405661Y0634176D01*
X0407661D01*
X0408994Y0635509D02*
Y0632843D01*
X0410993D01*
X0411659Y063351D01*
Y0635509D01*
X0412992Y0632843D02*
Y0634843D01*
X0413659Y0635509D01*
X0415658D01*
Y0636175D01*
X0414992Y0636842D01*
X0414325D01*
X0415658Y0635509D02*
Y0632843D01*
X0423656D02*
X0421656D01*
X042099Y063351D01*
Y0634843D01*
X0421656Y0635509D01*
X0423656D01*
X0425655D02*
X0426988D01*
X0427654Y0634843D01*
Y063351D01*
X0426988Y0632843D01*
X0425655D01*
X0424988Y063351D01*
Y0634843D01*
X0425655Y0635509D01*
X0428987D02*
Y0632843D01*
X0430986D01*
X0431653Y063351D01*
Y0635509D01*
X0435652Y063151D02*
Y0635509D01*
X0433652D01*
X0432986Y0634843D01*
Y063351D01*
X0433652Y0632843D01*
X0435652D01*
X0436984D02*
Y0634843D01*
X0437651Y0635509D01*
X043965D01*
Y0632843D01*
X0443649D02*
X044165D01*
X0440983Y063351D01*
Y0634843D01*
X044165Y0635509D01*
X0443649D01*
X0445648Y0632177D02*
Y0632843D01*
X0444982D01*
X0446315D01*
X0445648D01*
Y0634843D01*
X0446315Y0635509D01*
X0448314D02*
X0449647D01*
X0448981D01*
Y0632843D01*
X0448314D01*
X0451647D02*
X0452979Y0635509D01*
X0454312Y0632843D01*
X0455645Y0635509D02*
X0456978D01*
X0456312D01*
Y0632843D01*
X0455645D01*
X0459644Y0632177D02*
Y0632843D01*
X0458977D01*
X046031D01*
X0459644D01*
Y0634843D01*
X046031Y0635509D01*
X046231Y0632843D02*
Y0634843D01*
X0462976Y0635509D01*
X0464976D01*
Y0636175D01*
X0464309Y0636842D01*
X0463643D01*
X0464976Y0635509D02*
Y0632843D01*
X0389Y064404D02*
X0390999D01*
X0391666Y0643374D01*
X0390999Y0642707D01*
X0389666D01*
X0389Y0642041D01*
X0389666Y0641375D01*
X0391666D01*
X0393665Y064404D02*
X0394998D01*
X0395665Y0643374D01*
Y0642041D01*
X0394998Y0641375D01*
X0393665D01*
X0392999Y0642041D01*
Y0643374D01*
X0393665Y064404D01*
X0400996D02*
Y0641375D01*
X0401663D01*
X0402329Y0642041D01*
Y064404D01*
Y0642041D01*
X0402995Y0641375D01*
X0403662Y0642041D01*
Y064404D01*
X0404995Y0641375D02*
Y0643374D01*
X0405661Y064404D01*
X0407661D01*
Y0641375D01*
X0411659D02*
X040966D01*
X0408994Y0642041D01*
Y0643374D01*
X040966Y064404D01*
X0411659D01*
X0412992Y0640042D02*
Y064404D01*
Y0642041D01*
X0413659Y0641375D01*
X0414992D01*
X0415658Y0642041D01*
Y064404D01*
X042099Y0641375D02*
X0422323Y064404D01*
X0423656Y0641375D01*
X0425655Y064404D02*
X0426988D01*
X0427654Y0643374D01*
Y0642041D01*
X0426988Y0641375D01*
X0425655D01*
X0424988Y0642041D01*
Y0643374D01*
X0425655Y064404D01*
X0428987D02*
X043032D01*
X0429654D01*
Y0640042D01*
X0428987D01*
X0432986Y0640708D02*
Y0641375D01*
X0432319D01*
X0433652D01*
X0432986D01*
Y0643374D01*
X0433652Y064404D01*
X0435652D02*
X0437651D01*
X0438317Y0643374D01*
X0437651Y0642707D01*
X0436318D01*
X0435652Y0642041D01*
X0436318Y0641375D01*
X0438317D01*
X0389Y0651239D02*
X0390999D01*
X0391666Y0650572D01*
X0390999Y0649906D01*
X0389666D01*
X0389Y0649239D01*
X0389666Y0648573D01*
X0391666D01*
X0393665Y0651239D02*
X0394998D01*
X0395665Y0650572D01*
Y0649239D01*
X0394998Y0648573D01*
X0393665D01*
X0392999Y0649239D01*
Y0650572D01*
X0393665Y0651239D01*
X0400996D02*
Y0648573D01*
X0401663D01*
X0402329Y0649239D01*
Y0651239D01*
Y0649239D01*
X0402995Y0648573D01*
X0403662Y0649239D01*
Y0651239D01*
X0405661Y0648573D02*
X0406994D01*
X0407661Y0649239D01*
Y0651239D01*
X0405661D01*
X0404995Y0650572D01*
X0405661Y0649906D01*
X0407661D01*
X0408994Y0651239D02*
Y0648573D01*
X0410993D01*
X0411659Y0649239D01*
Y0651239D01*
X0412992Y0648573D02*
Y0650572D01*
X0413659Y0651239D01*
X0415658D01*
Y0651905D01*
X0414992Y0652572D01*
X0414325D01*
X0415658Y0651239D02*
Y0648573D01*
X0423656D02*
X0421656D01*
X042099Y0649239D01*
Y0650572D01*
X0421656Y0651239D01*
X0423656D01*
X0425655D02*
X0426988D01*
X0427654Y0650572D01*
Y0649239D01*
X0426988Y0648573D01*
X0425655D01*
X0424988Y0649239D01*
Y0650572D01*
X0425655Y0651239D01*
X0428987D02*
Y0648573D01*
X0430986D01*
X0431653Y0649239D01*
Y0651239D01*
X0435652Y064724D02*
Y0651239D01*
X0433652D01*
X0432986Y0650572D01*
Y0649239D01*
X0433652Y0648573D01*
X0435652D01*
X0436984D02*
Y0650572D01*
X0437651Y0651239D01*
X043965D01*
Y0648573D01*
X0443649D02*
X044165D01*
X0440983Y0649239D01*
Y0650572D01*
X044165Y0651239D01*
X0443649D01*
X0445648Y0647907D02*
Y0648573D01*
X0444982D01*
X0446315D01*
X0445648D01*
Y0650572D01*
X0446315Y0651239D01*
X0448314D02*
X0449647D01*
X0448981D01*
Y0648573D01*
X0448314D01*
X0451647D02*
X0452979Y0651239D01*
X0454312Y0648573D01*
X0455645Y0651239D02*
X0456978D01*
X0456312D01*
Y0648573D01*
X0455645D01*
X0459644Y0647907D02*
Y0648573D01*
X0458977D01*
X046031D01*
X0459644D01*
Y0650572D01*
X046031Y0651239D01*
X046231Y0648573D02*
Y0650572D01*
X0462976Y0651239D01*
X0464976D01*
Y0651905D01*
X0464309Y0652572D01*
X0463643D01*
X0464976Y0651239D02*
Y0648573D01*
X0389Y065977D02*
X0390999D01*
X0391666Y0659104D01*
X0390999Y0658437D01*
X0389666D01*
X0389Y0657771D01*
X0389666Y0657104D01*
X0391666D01*
X0393665Y065977D02*
X0394998D01*
X0395665Y0659104D01*
Y0657771D01*
X0394998Y0657104D01*
X0393665D01*
X0392999Y0657771D01*
Y0659104D01*
X0393665Y065977D01*
X0400996D02*
Y0657104D01*
X0401663D01*
X0402329Y0657771D01*
Y065977D01*
Y0657771D01*
X0402995Y0657104D01*
X0403662Y0657771D01*
Y065977D01*
X0404995Y0657104D02*
Y0659104D01*
X0405661Y065977D01*
X0407661D01*
Y0657104D01*
X0411659D02*
X040966D01*
X0408994Y0657771D01*
Y0659104D01*
X040966Y065977D01*
X0411659D01*
X0412992Y0655771D02*
Y065977D01*
Y0657771D01*
X0413659Y0657104D01*
X0414992D01*
X0415658Y0657771D01*
Y065977D01*
X042099Y0657104D02*
X0422323Y065977D01*
X0423656Y0657104D01*
X0425655Y065977D02*
X0426988D01*
X0427654Y0659104D01*
Y0657771D01*
X0426988Y0657104D01*
X0425655D01*
X0424988Y0657771D01*
Y0659104D01*
X0425655Y065977D01*
X0428987D02*
X043032D01*
X0429654D01*
Y0655771D01*
X0428987D01*
X0432986Y0656438D02*
Y0657104D01*
X0432319D01*
X0433652D01*
X0432986D01*
Y0659104D01*
X0433652Y065977D01*
X0435652D02*
X0437651D01*
X0438317Y0659104D01*
X0437651Y0658437D01*
X0436318D01*
X0435652Y0657771D01*
X0436318Y0657104D01*
X0438317D01*
X0389Y0666969D02*
X0390999D01*
X0391666Y0666302D01*
X0390999Y0665636D01*
X0389666D01*
X0389Y0664969D01*
X0389666Y0664303D01*
X0391666D01*
X0393665Y0666969D02*
X0394998D01*
X0395665Y0666302D01*
Y0664969D01*
X0394998Y0664303D01*
X0393665D01*
X0392999Y0664969D01*
Y0666302D01*
X0393665Y0666969D01*
X0400996D02*
Y0664303D01*
X0401663D01*
X0402329Y0664969D01*
Y0666969D01*
Y0664969D01*
X0402995Y0664303D01*
X0403662Y0664969D01*
Y0666969D01*
X0405661Y0664303D02*
X0406994D01*
X0407661Y0664969D01*
Y0666969D01*
X0405661D01*
X0404995Y0666302D01*
X0405661Y0665636D01*
X0407661D01*
X0408994Y0666969D02*
Y0664303D01*
X0410993D01*
X0411659Y0664969D01*
Y0666969D01*
X0412992Y0664303D02*
Y0666302D01*
X0413659Y0666969D01*
X0415658D01*
Y0667635D01*
X0414992Y0668302D01*
X0414325D01*
X0415658Y0666969D02*
Y0664303D01*
X0423656D02*
X0421656D01*
X042099Y0664969D01*
Y0666302D01*
X0421656Y0666969D01*
X0423656D01*
X0425655D02*
X0426988D01*
X0427654Y0666302D01*
Y0664969D01*
X0426988Y0664303D01*
X0425655D01*
X0424988Y0664969D01*
Y0666302D01*
X0425655Y0666969D01*
X0428987D02*
Y0664303D01*
X0430986D01*
X0431653Y0664969D01*
Y0666969D01*
X0435652Y066297D02*
Y0666969D01*
X0433652D01*
X0432986Y0666302D01*
Y0664969D01*
X0433652Y0664303D01*
X0435652D01*
X0436984D02*
Y0666302D01*
X0437651Y0666969D01*
X043965D01*
Y0664303D01*
X0443649D02*
X044165D01*
X0440983Y0664969D01*
Y0666302D01*
X044165Y0666969D01*
X0443649D01*
X0445648Y0663636D02*
Y0664303D01*
X0444982D01*
X0446315D01*
X0445648D01*
Y0666302D01*
X0446315Y0666969D01*
X0448314D02*
X0449647D01*
X0448981D01*
Y0664303D01*
X0448314D01*
X0451647D02*
X0452979Y0666969D01*
X0454312Y0664303D01*
X0455645Y0666969D02*
X0456978D01*
X0456312D01*
Y0664303D01*
X0455645D01*
X0459644Y0663636D02*
Y0664303D01*
X0458977D01*
X046031D01*
X0459644D01*
Y0666302D01*
X046031Y0666969D01*
X046231Y0664303D02*
Y0666302D01*
X0462976Y0666969D01*
X0464976D01*
Y0667635D01*
X0464309Y0668302D01*
X0463643D01*
X0464976Y0666969D02*
Y0664303D01*
X0389Y06755D02*
X0390999D01*
X0391666Y0674834D01*
X0390999Y0674167D01*
X0389666D01*
X0389Y0673501D01*
X0389666Y0672834D01*
X0391666D01*
X0393665Y06755D02*
X0394998D01*
X0395665Y0674834D01*
Y0673501D01*
X0394998Y0672834D01*
X0393665D01*
X0392999Y0673501D01*
Y0674834D01*
X0393665Y06755D01*
X0400996D02*
Y0672834D01*
X0401663D01*
X0402329Y0673501D01*
Y06755D01*
Y0673501D01*
X0402995Y0672834D01*
X0403662Y0673501D01*
Y06755D01*
X0404995Y0672834D02*
Y0674834D01*
X0405661Y06755D01*
X0407661D01*
Y0672834D01*
X0411659D02*
X040966D01*
X0408994Y0673501D01*
Y0674834D01*
X040966Y06755D01*
X0411659D01*
X0412992Y0671501D02*
Y06755D01*
Y0673501D01*
X0413659Y0672834D01*
X0414992D01*
X0415658Y0673501D01*
Y06755D01*
X042099Y0672834D02*
X0422323Y06755D01*
X0423656Y0672834D01*
X0425655Y06755D02*
X0426988D01*
X0427654Y0674834D01*
Y0673501D01*
X0426988Y0672834D01*
X0425655D01*
X0424988Y0673501D01*
Y0674834D01*
X0425655Y06755D01*
X0428987D02*
X043032D01*
X0429654D01*
Y0671501D01*
X0428987D01*
X0432986Y0672168D02*
Y0672834D01*
X0432319D01*
X0433652D01*
X0432986D01*
Y0674834D01*
X0433652Y06755D01*
X0435652D02*
X0437651D01*
X0438317Y0674834D01*
X0437651Y0674167D01*
X0436318D01*
X0435652Y0673501D01*
X0436318Y0672834D01*
X0438317D01*
X0265189Y04335D02*
Y0435499D01*
X0265856Y0436166D01*
X0266522Y0435499D01*
Y0434166D01*
X0267189Y04335D01*
X0267855Y0434166D01*
Y0436166D01*
X0265189Y0438165D02*
Y0439498D01*
X0265856Y0440165D01*
X0267189D01*
X0267855Y0439498D01*
Y0438165D01*
X0267189Y0437499D01*
X0265856D01*
X0265189Y0438165D01*
Y0445496D02*
X0267855D01*
Y0446163D01*
X0267189Y0446829D01*
X0265189D01*
X0267189D01*
X0267855Y0447496D01*
X0267189Y0448162D01*
X0265189D01*
X0267855Y0449495D02*
X0265856D01*
X0265189Y0450161D01*
Y0452161D01*
X0267855D01*
Y0456159D02*
Y045416D01*
X0267189Y0453493D01*
X0265856D01*
X0265189Y045416D01*
Y0456159D01*
X0269188Y0457492D02*
X0265189D01*
X0267189D01*
X0267855Y0458159D01*
Y0459492D01*
X0267189Y0460158D01*
X0265189D01*
X0267855Y046549D02*
X0265189Y0466823D01*
X0267855Y0468155D01*
X0265189Y0470155D02*
Y0471488D01*
X0265856Y0472154D01*
X0267189D01*
X0267855Y0471488D01*
Y0470155D01*
X0267189Y0469488D01*
X0265856D01*
X0265189Y0470155D01*
Y0473487D02*
Y047482D01*
Y0474154D01*
X0269188D01*
Y0473487D01*
X0268522Y0477486D02*
X0267855D01*
Y0476819D01*
Y0478152D01*
Y0477486D01*
X0265856D01*
X0265189Y0478152D01*
Y0480152D02*
Y0482151D01*
X0265856Y0482817D01*
X0266522Y0482151D01*
Y0480818D01*
X0267189Y0480152D01*
X0267855Y0480818D01*
Y0482817D01*
X0257991Y04335D02*
Y0435499D01*
X0258657Y0436166D01*
X0259324Y0435499D01*
Y0434166D01*
X025999Y04335D01*
X0260657Y0434166D01*
Y0436166D01*
X0257991Y0438165D02*
Y0439498D01*
X0258657Y0440165D01*
X025999D01*
X0260657Y0439498D01*
Y0438165D01*
X025999Y0437499D01*
X0258657D01*
X0257991Y0438165D01*
Y0445496D02*
X0260657D01*
Y0446163D01*
X025999Y0446829D01*
X0257991D01*
X025999D01*
X0260657Y0447496D01*
X025999Y0448162D01*
X0257991D01*
X0260657Y0450161D02*
Y0451494D01*
X025999Y0452161D01*
X0257991D01*
Y0450161D01*
X0258657Y0449495D01*
X0259324Y0450161D01*
Y0452161D01*
X0257991Y0453493D02*
X0260657D01*
Y0455493D01*
X025999Y0456159D01*
X0257991D01*
X0260657Y0457492D02*
X0258657D01*
X0257991Y0458159D01*
Y0460158D01*
X0257325D01*
X0256658Y0459492D01*
Y0458825D01*
X0257991Y0460158D02*
X0260657D01*
Y0468155D02*
Y0466156D01*
X025999Y046549D01*
X0258657D01*
X0257991Y0466156D01*
Y0468155D01*
Y0470155D02*
Y0471488D01*
X0258657Y0472154D01*
X025999D01*
X0260657Y0471488D01*
Y0470155D01*
X025999Y0469488D01*
X0258657D01*
X0257991Y0470155D01*
Y0473487D02*
X0260657D01*
Y0475486D01*
X025999Y0476153D01*
X0257991D01*
X026199Y0480152D02*
X0257991D01*
Y0478152D01*
X0258657Y0477486D01*
X025999D01*
X0260657Y0478152D01*
Y0480152D01*
Y0481485D02*
X0258657D01*
X0257991Y0482151D01*
Y048415D01*
X0260657D01*
Y0488149D02*
Y048615D01*
X025999Y0485483D01*
X0258657D01*
X0257991Y048615D01*
Y0488149D01*
X0261323Y0490148D02*
X0260657D01*
Y0489482D01*
Y0490815D01*
Y0490148D01*
X0258657D01*
X0257991Y0490815D01*
Y0492814D02*
Y0494147D01*
Y0493481D01*
X0260657D01*
Y0492814D01*
Y0496146D02*
X0257991Y0497479D01*
X0260657Y0498812D01*
X0257991Y0500145D02*
Y0501478D01*
Y0500812D01*
X0260657D01*
Y0500145D01*
X0261323Y0504144D02*
X0260657D01*
Y0503477D01*
Y050481D01*
Y0504144D01*
X0258657D01*
X0257991Y050481D01*
X0260657Y050681D02*
X0258657D01*
X0257991Y0507476D01*
Y0509476D01*
X0257325D01*
X0256658Y0508809D01*
Y0508143D01*
X0257991Y0509476D02*
X0260657D01*
X024946Y04335D02*
Y0435499D01*
X0250126Y0436166D01*
X0250793Y0435499D01*
Y0434166D01*
X0251459Y04335D01*
X0252125Y0434166D01*
Y0436166D01*
X024946Y0438165D02*
Y0439498D01*
X0250126Y0440165D01*
X0251459D01*
X0252125Y0439498D01*
Y0438165D01*
X0251459Y0437499D01*
X0250126D01*
X024946Y0438165D01*
Y0445496D02*
X0252125D01*
Y0446163D01*
X0251459Y0446829D01*
X024946D01*
X0251459D01*
X0252125Y0447496D01*
X0251459Y0448162D01*
X024946D01*
X0252125Y0449495D02*
X0250126D01*
X024946Y0450161D01*
Y0452161D01*
X0252125D01*
Y0456159D02*
Y045416D01*
X0251459Y0453493D01*
X0250126D01*
X024946Y045416D01*
Y0456159D01*
X0253458Y0457492D02*
X024946D01*
X0251459D01*
X0252125Y0458159D01*
Y0459492D01*
X0251459Y0460158D01*
X024946D01*
X0252125Y046549D02*
X024946Y0466823D01*
X0252125Y0468155D01*
X024946Y0470155D02*
Y0471488D01*
X0250126Y0472154D01*
X0251459D01*
X0252125Y0471488D01*
Y0470155D01*
X0251459Y0469488D01*
X0250126D01*
X024946Y0470155D01*
Y0473487D02*
Y047482D01*
Y0474154D01*
X0253458D01*
Y0473487D01*
X0252792Y0477486D02*
X0252125D01*
Y0476819D01*
Y0478152D01*
Y0477486D01*
X0250126D01*
X024946Y0478152D01*
Y0480152D02*
Y0482151D01*
X0250126Y0482817D01*
X0250793Y0482151D01*
Y0480818D01*
X0251459Y0480152D01*
X0252125Y0480818D01*
Y0482817D01*
X0242261Y04335D02*
Y0435499D01*
X0242928Y0436166D01*
X0243594Y0435499D01*
Y0434166D01*
X0244261Y04335D01*
X0244927Y0434166D01*
Y0436166D01*
X0242261Y0438165D02*
Y0439498D01*
X0242928Y0440165D01*
X0244261D01*
X0244927Y0439498D01*
Y0438165D01*
X0244261Y0437499D01*
X0242928D01*
X0242261Y0438165D01*
Y0445496D02*
X0244927D01*
Y0446163D01*
X0244261Y0446829D01*
X0242261D01*
X0244261D01*
X0244927Y0447496D01*
X0244261Y0448162D01*
X0242261D01*
X0244927Y0450161D02*
Y0451494D01*
X0244261Y0452161D01*
X0242261D01*
Y0450161D01*
X0242928Y0449495D01*
X0243594Y0450161D01*
Y0452161D01*
X0242261Y0453493D02*
X0244927D01*
Y0455493D01*
X0244261Y0456159D01*
X0242261D01*
X0244927Y0457492D02*
X0242928D01*
X0242261Y0458159D01*
Y0460158D01*
X0241595D01*
X0240928Y0459492D01*
Y0458825D01*
X0242261Y0460158D02*
X0244927D01*
Y0468155D02*
Y0466156D01*
X0244261Y046549D01*
X0242928D01*
X0242261Y0466156D01*
Y0468155D01*
Y0470155D02*
Y0471488D01*
X0242928Y0472154D01*
X0244261D01*
X0244927Y0471488D01*
Y0470155D01*
X0244261Y0469488D01*
X0242928D01*
X0242261Y0470155D01*
Y0473487D02*
X0244927D01*
Y0475486D01*
X0244261Y0476153D01*
X0242261D01*
X024626Y0480152D02*
X0242261D01*
Y0478152D01*
X0242928Y0477486D01*
X0244261D01*
X0244927Y0478152D01*
Y0480152D01*
Y0481485D02*
X0242928D01*
X0242261Y0482151D01*
Y048415D01*
X0244927D01*
Y0488149D02*
Y048615D01*
X0244261Y0485483D01*
X0242928D01*
X0242261Y048615D01*
Y0488149D01*
X0245593Y0490148D02*
X0244927D01*
Y0489482D01*
Y0490815D01*
Y0490148D01*
X0242928D01*
X0242261Y0490815D01*
Y0492814D02*
Y0494147D01*
Y0493481D01*
X0244927D01*
Y0492814D01*
Y0496146D02*
X0242261Y0497479D01*
X0244927Y0498812D01*
X0242261Y0500145D02*
Y0501478D01*
Y0500812D01*
X0244927D01*
Y0500145D01*
X0245593Y0504144D02*
X0244927D01*
Y0503477D01*
Y050481D01*
Y0504144D01*
X0242928D01*
X0242261Y050481D01*
X0244927Y050681D02*
X0242928D01*
X0242261Y0507476D01*
Y0509476D01*
X0241595D01*
X0240928Y0508809D01*
Y0508143D01*
X0242261Y0509476D02*
X0244927D01*
X023373Y04335D02*
Y0435499D01*
X0234396Y0436166D01*
X0235063Y0435499D01*
Y0434166D01*
X0235729Y04335D01*
X0236396Y0434166D01*
Y0436166D01*
X023373Y0438165D02*
Y0439498D01*
X0234396Y0440165D01*
X0235729D01*
X0236396Y0439498D01*
Y0438165D01*
X0235729Y0437499D01*
X0234396D01*
X023373Y0438165D01*
Y0445496D02*
X0236396D01*
Y0446163D01*
X0235729Y0446829D01*
X023373D01*
X0235729D01*
X0236396Y0447496D01*
X0235729Y0448162D01*
X023373D01*
X0236396Y0449495D02*
X0234396D01*
X023373Y0450161D01*
Y0452161D01*
X0236396D01*
Y0456159D02*
Y045416D01*
X0235729Y0453493D01*
X0234396D01*
X023373Y045416D01*
Y0456159D01*
X0237729Y0457492D02*
X023373D01*
X0235729D01*
X0236396Y0458159D01*
Y0459492D01*
X0235729Y0460158D01*
X023373D01*
X0236396Y046549D02*
X023373Y0466823D01*
X0236396Y0468155D01*
X023373Y0470155D02*
Y0471488D01*
X0234396Y0472154D01*
X0235729D01*
X0236396Y0471488D01*
Y0470155D01*
X0235729Y0469488D01*
X0234396D01*
X023373Y0470155D01*
Y0473487D02*
Y047482D01*
Y0474154D01*
X0237729D01*
Y0473487D01*
X0237062Y0477486D02*
X0236396D01*
Y0476819D01*
Y0478152D01*
Y0477486D01*
X0234396D01*
X023373Y0478152D01*
Y0480152D02*
Y0482151D01*
X0234396Y0482817D01*
X0235063Y0482151D01*
Y0480818D01*
X0235729Y0480152D01*
X0236396Y0480818D01*
Y0482817D01*
X0226531Y04335D02*
Y0435499D01*
X0227198Y0436166D01*
X0227864Y0435499D01*
Y0434166D01*
X0228531Y04335D01*
X0229197Y0434166D01*
Y0436166D01*
X0226531Y0438165D02*
Y0439498D01*
X0227198Y0440165D01*
X0228531D01*
X0229197Y0439498D01*
Y0438165D01*
X0228531Y0437499D01*
X0227198D01*
X0226531Y0438165D01*
Y0445496D02*
X0229197D01*
Y0446163D01*
X0228531Y0446829D01*
X0226531D01*
X0228531D01*
X0229197Y0447496D01*
X0228531Y0448162D01*
X0226531D01*
X0229197Y0450161D02*
Y0451494D01*
X0228531Y0452161D01*
X0226531D01*
Y0450161D01*
X0227198Y0449495D01*
X0227864Y0450161D01*
Y0452161D01*
X0226531Y0453493D02*
X0229197D01*
Y0455493D01*
X0228531Y0456159D01*
X0226531D01*
X0229197Y0457492D02*
X0227198D01*
X0226531Y0458159D01*
Y0460158D01*
X0225865D01*
X0225199Y0459492D01*
Y0458825D01*
X0226531Y0460158D02*
X0229197D01*
Y0468155D02*
Y0466156D01*
X0228531Y046549D01*
X0227198D01*
X0226531Y0466156D01*
Y0468155D01*
Y0470155D02*
Y0471488D01*
X0227198Y0472154D01*
X0228531D01*
X0229197Y0471488D01*
Y0470155D01*
X0228531Y0469488D01*
X0227198D01*
X0226531Y0470155D01*
Y0473487D02*
X0229197D01*
Y0475486D01*
X0228531Y0476153D01*
X0226531D01*
X023053Y0480152D02*
X0226531D01*
Y0478152D01*
X0227198Y0477486D01*
X0228531D01*
X0229197Y0478152D01*
Y0480152D01*
Y0481485D02*
X0227198D01*
X0226531Y0482151D01*
Y048415D01*
X0229197D01*
Y0488149D02*
Y048615D01*
X0228531Y0485483D01*
X0227198D01*
X0226531Y048615D01*
Y0488149D01*
X0229864Y0490148D02*
X0229197D01*
Y0489482D01*
Y0490815D01*
Y0490148D01*
X0227198D01*
X0226531Y0490815D01*
Y0492814D02*
Y0494147D01*
Y0493481D01*
X0229197D01*
Y0492814D01*
Y0496146D02*
X0226531Y0497479D01*
X0229197Y0498812D01*
X0226531Y0500145D02*
Y0501478D01*
Y0500812D01*
X0229197D01*
Y0500145D01*
X0229864Y0504144D02*
X0229197D01*
Y0503477D01*
Y050481D01*
Y0504144D01*
X0227198D01*
X0226531Y050481D01*
X0229197Y050681D02*
X0227198D01*
X0226531Y0507476D01*
Y0509476D01*
X0225865D01*
X0225199Y0508809D01*
Y0508143D01*
X0226531Y0509476D02*
X0229197D01*
X0218Y04335D02*
Y0435499D01*
X0218666Y0436166D01*
X0219333Y0435499D01*
Y0434166D01*
X0219999Y04335D01*
X0220666Y0434166D01*
Y0436166D01*
X0218Y0438165D02*
Y0439498D01*
X0218666Y0440165D01*
X0219999D01*
X0220666Y0439498D01*
Y0438165D01*
X0219999Y0437499D01*
X0218666D01*
X0218Y0438165D01*
Y0445496D02*
X0220666D01*
Y0446163D01*
X0219999Y0446829D01*
X0218D01*
X0219999D01*
X0220666Y0447496D01*
X0219999Y0448162D01*
X0218D01*
X0220666Y0449495D02*
X0218666D01*
X0218Y0450161D01*
Y0452161D01*
X0220666D01*
Y0456159D02*
Y045416D01*
X0219999Y0453493D01*
X0218666D01*
X0218Y045416D01*
Y0456159D01*
X0221999Y0457492D02*
X0218D01*
X0219999D01*
X0220666Y0458159D01*
Y0459492D01*
X0219999Y0460158D01*
X0218D01*
X0220666Y046549D02*
X0218Y0466823D01*
X0220666Y0468155D01*
X0218Y0470155D02*
Y0471488D01*
X0218666Y0472154D01*
X0219999D01*
X0220666Y0471488D01*
Y0470155D01*
X0219999Y0469488D01*
X0218666D01*
X0218Y0470155D01*
Y0473487D02*
Y047482D01*
Y0474154D01*
X0221999D01*
Y0473487D01*
X0221332Y0477486D02*
X0220666D01*
Y0476819D01*
Y0478152D01*
Y0477486D01*
X0218666D01*
X0218Y0478152D01*
Y0480152D02*
Y0482151D01*
X0218666Y0482817D01*
X0219333Y0482151D01*
Y0480818D01*
X0219999Y0480152D01*
X0220666Y0480818D01*
Y0482817D01*
X0583811Y05045D02*
Y0502501D01*
X0583144Y0501834D01*
X0582478Y0502501D01*
Y0503834D01*
X0581811Y05045D01*
X0581145Y0503834D01*
Y0501834D01*
X0583811Y0499835D02*
Y0498502D01*
X0583144Y0497835D01*
X0581811D01*
X0581145Y0498502D01*
Y0499835D01*
X0581811Y0500501D01*
X0583144D01*
X0583811Y0499835D01*
Y0492504D02*
X0581145D01*
Y0491837D01*
X0581811Y0491171D01*
X0583811D01*
X0581811D01*
X0581145Y0490505D01*
X0581811Y0489838D01*
X0583811D01*
X0581145Y0488505D02*
X0583144D01*
X0583811Y0487839D01*
Y0485839D01*
X0581145D01*
Y0481841D02*
Y048384D01*
X0581811Y0484507D01*
X0583144D01*
X0583811Y048384D01*
Y0481841D01*
X0579812Y0480508D02*
X0583811D01*
X0581811D01*
X0581145Y0479841D01*
Y0478508D01*
X0581811Y0477842D01*
X0583811D01*
X0581145Y047251D02*
X0583811Y0471177D01*
X0581145Y0469844D01*
X0583811Y0467845D02*
Y0466512D01*
X0583144Y0465846D01*
X0581811D01*
X0581145Y0466512D01*
Y0467845D01*
X0581811Y0468512D01*
X0583144D01*
X0583811Y0467845D01*
Y0464513D02*
Y046318D01*
Y0463846D01*
X0579812D01*
Y0464513D01*
X0580478Y0460514D02*
X0581145D01*
Y0461181D01*
Y0459848D01*
Y0460514D01*
X0583144D01*
X0583811Y0459848D01*
Y0457848D02*
Y0455849D01*
X0583144Y0455183D01*
X0582478Y0455849D01*
Y0457182D01*
X0581811Y0457848D01*
X0581145Y0457182D01*
Y0455183D01*
X0591009Y05045D02*
Y0502501D01*
X0590343Y0501834D01*
X0589676Y0502501D01*
Y0503834D01*
X058901Y05045D01*
X0588343Y0503834D01*
Y0501834D01*
X0591009Y0499835D02*
Y0498502D01*
X0590343Y0497835D01*
X058901D01*
X0588343Y0498502D01*
Y0499835D01*
X058901Y0500501D01*
X0590343D01*
X0591009Y0499835D01*
Y0492504D02*
X0588343D01*
Y0491837D01*
X058901Y0491171D01*
X0591009D01*
X058901D01*
X0588343Y0490505D01*
X058901Y0489838D01*
X0591009D01*
X0588343Y0487839D02*
Y0486506D01*
X058901Y0485839D01*
X0591009D01*
Y0487839D01*
X0590343Y0488505D01*
X0589676Y0487839D01*
Y0485839D01*
X0591009Y0484507D02*
X0588343D01*
Y0482507D01*
X058901Y0481841D01*
X0591009D01*
X0588343Y0480508D02*
X0590343D01*
X0591009Y0479841D01*
Y0477842D01*
X0591676D01*
X0592342Y0478508D01*
Y0479175D01*
X0591009Y0477842D02*
X0588343D01*
Y0469844D02*
Y0471844D01*
X058901Y047251D01*
X0590343D01*
X0591009Y0471844D01*
Y0469844D01*
Y0467845D02*
Y0466512D01*
X0590343Y0465846D01*
X058901D01*
X0588343Y0466512D01*
Y0467845D01*
X058901Y0468512D01*
X0590343D01*
X0591009Y0467845D01*
Y0464513D02*
X0588343D01*
Y0462514D01*
X058901Y0461847D01*
X0591009D01*
X058701Y0457848D02*
X0591009D01*
Y0459848D01*
X0590343Y0460514D01*
X058901D01*
X0588343Y0459848D01*
Y0457848D01*
Y0456516D02*
X0590343D01*
X0591009Y0455849D01*
Y045385D01*
X0588343D01*
Y0449851D02*
Y045185D01*
X058901Y0452517D01*
X0590343D01*
X0591009Y045185D01*
Y0449851D01*
X0587677Y0447852D02*
X0588343D01*
Y0448518D01*
Y0447185D01*
Y0447852D01*
X0590343D01*
X0591009Y0447185D01*
Y0445186D02*
Y0443853D01*
Y0444519D01*
X0588343D01*
Y0445186D01*
Y0441854D02*
X0591009Y0440521D01*
X0588343Y0439188D01*
X0591009Y0437855D02*
Y0436522D01*
Y0437188D01*
X0588343D01*
Y0437855D01*
X0587677Y0433856D02*
X0588343D01*
Y0434523D01*
Y043319D01*
Y0433856D01*
X0590343D01*
X0591009Y043319D01*
X0588343Y043119D02*
X0590343D01*
X0591009Y0430524D01*
Y0428524D01*
X0591676D01*
X0592342Y0429191D01*
Y0429857D01*
X0591009Y0428524D02*
X0588343D01*
X059954Y05045D02*
Y0502501D01*
X0598874Y0501834D01*
X0598208Y0502501D01*
Y0503834D01*
X0597541Y05045D01*
X0596875Y0503834D01*
Y0501834D01*
X059954Y0499835D02*
Y0498502D01*
X0598874Y0497835D01*
X0597541D01*
X0596875Y0498502D01*
Y0499835D01*
X0597541Y0500501D01*
X0598874D01*
X059954Y0499835D01*
Y0492504D02*
X0596875D01*
Y0491837D01*
X0597541Y0491171D01*
X059954D01*
X0597541D01*
X0596875Y0490505D01*
X0597541Y0489838D01*
X059954D01*
X0596875Y0488505D02*
X0598874D01*
X059954Y0487839D01*
Y0485839D01*
X0596875D01*
Y0481841D02*
Y048384D01*
X0597541Y0484507D01*
X0598874D01*
X059954Y048384D01*
Y0481841D01*
X0595542Y0480508D02*
X059954D01*
X0597541D01*
X0596875Y0479841D01*
Y0478508D01*
X0597541Y0477842D01*
X059954D01*
X0596875Y047251D02*
X059954Y0471177D01*
X0596875Y0469844D01*
X059954Y0467845D02*
Y0466512D01*
X0598874Y0465846D01*
X0597541D01*
X0596875Y0466512D01*
Y0467845D01*
X0597541Y0468512D01*
X0598874D01*
X059954Y0467845D01*
Y0464513D02*
Y046318D01*
Y0463846D01*
X0595542D01*
Y0464513D01*
X0596208Y0460514D02*
X0596875D01*
Y0461181D01*
Y0459848D01*
Y0460514D01*
X0598874D01*
X059954Y0459848D01*
Y0457848D02*
Y0455849D01*
X0598874Y0455183D01*
X0598208Y0455849D01*
Y0457182D01*
X0597541Y0457848D01*
X0596875Y0457182D01*
Y0455183D01*
X0606739Y05045D02*
Y0502501D01*
X0606072Y0501834D01*
X0605406Y0502501D01*
Y0503834D01*
X060474Y05045D01*
X0604073Y0503834D01*
Y0501834D01*
X0606739Y0499835D02*
Y0498502D01*
X0606072Y0497835D01*
X060474D01*
X0604073Y0498502D01*
Y0499835D01*
X060474Y0500501D01*
X0606072D01*
X0606739Y0499835D01*
Y0492504D02*
X0604073D01*
Y0491837D01*
X060474Y0491171D01*
X0606739D01*
X060474D01*
X0604073Y0490505D01*
X060474Y0489838D01*
X0606739D01*
X0604073Y0487839D02*
Y0486506D01*
X060474Y0485839D01*
X0606739D01*
Y0487839D01*
X0606072Y0488505D01*
X0605406Y0487839D01*
Y0485839D01*
X0606739Y0484507D02*
X0604073D01*
Y0482507D01*
X060474Y0481841D01*
X0606739D01*
X0604073Y0480508D02*
X0606072D01*
X0606739Y0479841D01*
Y0477842D01*
X0607405D01*
X0608072Y0478508D01*
Y0479175D01*
X0606739Y0477842D02*
X0604073D01*
Y0469844D02*
Y0471844D01*
X060474Y047251D01*
X0606072D01*
X0606739Y0471844D01*
Y0469844D01*
Y0467845D02*
Y0466512D01*
X0606072Y0465846D01*
X060474D01*
X0604073Y0466512D01*
Y0467845D01*
X060474Y0468512D01*
X0606072D01*
X0606739Y0467845D01*
Y0464513D02*
X0604073D01*
Y0462514D01*
X060474Y0461847D01*
X0606739D01*
X060274Y0457848D02*
X0606739D01*
Y0459848D01*
X0606072Y0460514D01*
X060474D01*
X0604073Y0459848D01*
Y0457848D01*
Y0456516D02*
X0606072D01*
X0606739Y0455849D01*
Y045385D01*
X0604073D01*
Y0449851D02*
Y045185D01*
X060474Y0452517D01*
X0606072D01*
X0606739Y045185D01*
Y0449851D01*
X0603407Y0447852D02*
X0604073D01*
Y0448518D01*
Y0447185D01*
Y0447852D01*
X0606072D01*
X0606739Y0447185D01*
Y0445186D02*
Y0443853D01*
Y0444519D01*
X0604073D01*
Y0445186D01*
Y0441854D02*
X0606739Y0440521D01*
X0604073Y0439188D01*
X0606739Y0437855D02*
Y0436522D01*
Y0437188D01*
X0604073D01*
Y0437855D01*
X0603407Y0433856D02*
X0604073D01*
Y0434523D01*
Y043319D01*
Y0433856D01*
X0606072D01*
X0606739Y043319D01*
X0604073Y043119D02*
X0606072D01*
X0606739Y0430524D01*
Y0428524D01*
X0607405D01*
X0608072Y0429191D01*
Y0429857D01*
X0606739Y0428524D02*
X0604073D01*
X061527Y05045D02*
Y0502501D01*
X0614604Y0501834D01*
X0613937Y0502501D01*
Y0503834D01*
X0613271Y05045D01*
X0612604Y0503834D01*
Y0501834D01*
X061527Y0499835D02*
Y0498502D01*
X0614604Y0497835D01*
X0613271D01*
X0612604Y0498502D01*
Y0499835D01*
X0613271Y0500501D01*
X0614604D01*
X061527Y0499835D01*
Y0492504D02*
X0612604D01*
Y0491837D01*
X0613271Y0491171D01*
X061527D01*
X0613271D01*
X0612604Y0490505D01*
X0613271Y0489838D01*
X061527D01*
X0612604Y0488505D02*
X0614604D01*
X061527Y0487839D01*
Y0485839D01*
X0612604D01*
Y0481841D02*
Y048384D01*
X0613271Y0484507D01*
X0614604D01*
X061527Y048384D01*
Y0481841D01*
X0611271Y0480508D02*
X061527D01*
X0613271D01*
X0612604Y0479841D01*
Y0478508D01*
X0613271Y0477842D01*
X061527D01*
X0612604Y047251D02*
X061527Y0471177D01*
X0612604Y0469844D01*
X061527Y0467845D02*
Y0466512D01*
X0614604Y0465846D01*
X0613271D01*
X0612604Y0466512D01*
Y0467845D01*
X0613271Y0468512D01*
X0614604D01*
X061527Y0467845D01*
Y0464513D02*
Y046318D01*
Y0463846D01*
X0611271D01*
Y0464513D01*
X0611938Y0460514D02*
X0612604D01*
Y0461181D01*
Y0459848D01*
Y0460514D01*
X0614604D01*
X061527Y0459848D01*
Y0457848D02*
Y0455849D01*
X0614604Y0455183D01*
X0613937Y0455849D01*
Y0457182D01*
X0613271Y0457848D01*
X0612604Y0457182D01*
Y0455183D01*
X0622469Y05045D02*
Y0502501D01*
X0621802Y0501834D01*
X0621136Y0502501D01*
Y0503834D01*
X0620469Y05045D01*
X0619803Y0503834D01*
Y0501834D01*
X0622469Y0499835D02*
Y0498502D01*
X0621802Y0497835D01*
X0620469D01*
X0619803Y0498502D01*
Y0499835D01*
X0620469Y0500501D01*
X0621802D01*
X0622469Y0499835D01*
Y0492504D02*
X0619803D01*
Y0491837D01*
X0620469Y0491171D01*
X0622469D01*
X0620469D01*
X0619803Y0490505D01*
X0620469Y0489838D01*
X0622469D01*
X0619803Y0487839D02*
Y0486506D01*
X0620469Y0485839D01*
X0622469D01*
Y0487839D01*
X0621802Y0488505D01*
X0621136Y0487839D01*
Y0485839D01*
X0622469Y0484507D02*
X0619803D01*
Y0482507D01*
X0620469Y0481841D01*
X0622469D01*
X0619803Y0480508D02*
X0621802D01*
X0622469Y0479841D01*
Y0477842D01*
X0623135D01*
X0623802Y0478508D01*
Y0479175D01*
X0622469Y0477842D02*
X0619803D01*
Y0469844D02*
Y0471844D01*
X0620469Y047251D01*
X0621802D01*
X0622469Y0471844D01*
Y0469844D01*
Y0467845D02*
Y0466512D01*
X0621802Y0465846D01*
X0620469D01*
X0619803Y0466512D01*
Y0467845D01*
X0620469Y0468512D01*
X0621802D01*
X0622469Y0467845D01*
Y0464513D02*
X0619803D01*
Y0462514D01*
X0620469Y0461847D01*
X0622469D01*
X061847Y0457848D02*
X0622469D01*
Y0459848D01*
X0621802Y0460514D01*
X0620469D01*
X0619803Y0459848D01*
Y0457848D01*
Y0456516D02*
X0621802D01*
X0622469Y0455849D01*
Y045385D01*
X0619803D01*
Y0449851D02*
Y045185D01*
X0620469Y0452517D01*
X0621802D01*
X0622469Y045185D01*
Y0449851D01*
X0619136Y0447852D02*
X0619803D01*
Y0448518D01*
Y0447185D01*
Y0447852D01*
X0621802D01*
X0622469Y0447185D01*
Y0445186D02*
Y0443853D01*
Y0444519D01*
X0619803D01*
Y0445186D01*
Y0441854D02*
X0622469Y0440521D01*
X0619803Y0439188D01*
X0622469Y0437855D02*
Y0436522D01*
Y0437188D01*
X0619803D01*
Y0437855D01*
X0619136Y0433856D02*
X0619803D01*
Y0434523D01*
Y043319D01*
Y0433856D01*
X0621802D01*
X0622469Y043319D01*
X0619803Y043119D02*
X0621802D01*
X0622469Y0430524D01*
Y0428524D01*
X0623135D01*
X0623802Y0429191D01*
Y0429857D01*
X0622469Y0428524D02*
X0619803D01*
X0631Y05045D02*
Y0502501D01*
X0630334Y0501834D01*
X0629667Y0502501D01*
Y0503834D01*
X0629001Y05045D01*
X0628334Y0503834D01*
Y0501834D01*
X0631Y0499835D02*
Y0498502D01*
X0630334Y0497835D01*
X0629001D01*
X0628334Y0498502D01*
Y0499835D01*
X0629001Y0500501D01*
X0630334D01*
X0631Y0499835D01*
Y0492504D02*
X0628334D01*
Y0491837D01*
X0629001Y0491171D01*
X0631D01*
X0629001D01*
X0628334Y0490505D01*
X0629001Y0489838D01*
X0631D01*
X0628334Y0488505D02*
X0630334D01*
X0631Y0487839D01*
Y0485839D01*
X0628334D01*
Y0481841D02*
Y048384D01*
X0629001Y0484507D01*
X0630334D01*
X0631Y048384D01*
Y0481841D01*
X0627001Y0480508D02*
X0631D01*
X0629001D01*
X0628334Y0479841D01*
Y0478508D01*
X0629001Y0477842D01*
X0631D01*
X0628334Y047251D02*
X0631Y0471177D01*
X0628334Y0469844D01*
X0631Y0467845D02*
Y0466512D01*
X0630334Y0465846D01*
X0629001D01*
X0628334Y0466512D01*
Y0467845D01*
X0629001Y0468512D01*
X0630334D01*
X0631Y0467845D01*
Y0464513D02*
Y046318D01*
Y0463846D01*
X0627001D01*
Y0464513D01*
X0627668Y0460514D02*
X0628334D01*
Y0461181D01*
Y0459848D01*
Y0460514D01*
X0630334D01*
X0631Y0459848D01*
Y0457848D02*
Y0455849D01*
X0630334Y0455183D01*
X0629667Y0455849D01*
Y0457182D01*
X0629001Y0457848D01*
X0628334Y0457182D01*
Y0455183D01*
X04605Y0310689D02*
X0458501D01*
X0457834Y0311356D01*
X0458501Y0312022D01*
X0459834D01*
X04605Y0312689D01*
X0459834Y0313355D01*
X0457834D01*
X0455835Y0310689D02*
X0454502D01*
X0453835Y0311356D01*
Y0312689D01*
X0454502Y0313355D01*
X0455835D01*
X0456501Y0312689D01*
Y0311356D01*
X0455835Y0310689D01*
X0448504D02*
Y0313355D01*
X0447837D01*
X0447171Y0312689D01*
Y0310689D01*
Y0312689D01*
X0446504Y0313355D01*
X0445838Y0312689D01*
Y0310689D01*
X0444505Y0313355D02*
Y0311356D01*
X0443839Y0310689D01*
X0441839D01*
Y0313355D01*
X0437841D02*
X043984D01*
X0440507Y0312689D01*
Y0311356D01*
X043984Y0310689D01*
X0437841D01*
X0436508Y0314688D02*
Y0310689D01*
Y0312689D01*
X0435841Y0313355D01*
X0434508D01*
X0433842Y0312689D01*
Y0310689D01*
X042851Y0313355D02*
X0427177Y0310689D01*
X0425844Y0313355D01*
X0423845Y0310689D02*
X0422512D01*
X0421846Y0311356D01*
Y0312689D01*
X0422512Y0313355D01*
X0423845D01*
X0424512Y0312689D01*
Y0311356D01*
X0423845Y0310689D01*
X0420513D02*
X041918D01*
X0419846D01*
Y0314688D01*
X0420513D01*
X0416514Y0314022D02*
Y0313355D01*
X0417181D01*
X0415848D01*
X0416514D01*
Y0311356D01*
X0415848Y0310689D01*
X0413848D02*
X0411849D01*
X0411183Y0311356D01*
X0411849Y0312022D01*
X0413182D01*
X0413848Y0312689D01*
X0413182Y0313355D01*
X0411183D01*
X04605Y0303491D02*
X0458501D01*
X0457834Y0304157D01*
X0458501Y0304824D01*
X0459834D01*
X04605Y030549D01*
X0459834Y0306157D01*
X0457834D01*
X0455835Y0303491D02*
X0454502D01*
X0453835Y0304157D01*
Y030549D01*
X0454502Y0306157D01*
X0455835D01*
X0456501Y030549D01*
Y0304157D01*
X0455835Y0303491D01*
X0448504D02*
Y0306157D01*
X0447837D01*
X0447171Y030549D01*
Y0303491D01*
Y030549D01*
X0446504Y0306157D01*
X0445838Y030549D01*
Y0303491D01*
X0443839Y0306157D02*
X0442506D01*
X0441839Y030549D01*
Y0303491D01*
X0443839D01*
X0444505Y0304157D01*
X0443839Y0304824D01*
X0441839D01*
X0440507Y0303491D02*
Y0306157D01*
X0438507D01*
X0437841Y030549D01*
Y0303491D01*
X0436508Y0306157D02*
Y0304157D01*
X0435841Y0303491D01*
X0433842D01*
Y0302824D01*
X0434508Y0302158D01*
X0435175D01*
X0433842Y0303491D02*
Y0306157D01*
X0425844D02*
X0427844D01*
X042851Y030549D01*
Y0304157D01*
X0427844Y0303491D01*
X0425844D01*
X0423845D02*
X0422512D01*
X0421846Y0304157D01*
Y030549D01*
X0422512Y0306157D01*
X0423845D01*
X0424512Y030549D01*
Y0304157D01*
X0423845Y0303491D01*
X0420513D02*
Y0306157D01*
X0418514D01*
X0417847Y030549D01*
Y0303491D01*
X0413848Y030749D02*
Y0303491D01*
X0415848D01*
X0416514Y0304157D01*
Y030549D01*
X0415848Y0306157D01*
X0413848D01*
X0412515D02*
Y0304157D01*
X0411849Y0303491D01*
X040985D01*
Y0306157D01*
X0405851D02*
X040785D01*
X0408517Y030549D01*
Y0304157D01*
X040785Y0303491D01*
X0405851D01*
X0403852Y0306823D02*
Y0306157D01*
X0404518D01*
X0403185D01*
X0403852D01*
Y0304157D01*
X0403185Y0303491D01*
X0401186D02*
X0399853D01*
X0400519D01*
Y0306157D01*
X0401186D01*
X0397853D02*
X0396521Y0303491D01*
X0395188Y0306157D01*
X0393855Y0303491D02*
X0392522D01*
X0393188D01*
Y0306157D01*
X0393855D01*
X0389856Y0306823D02*
Y0306157D01*
X0390523D01*
X038919D01*
X0389856D01*
Y0304157D01*
X038919Y0303491D01*
X038719Y0306157D02*
Y0304157D01*
X0386524Y0303491D01*
X0384524D01*
Y0302824D01*
X0385191Y0302158D01*
X0385857D01*
X0384524Y0303491D02*
Y0306157D01*
X04605Y029496D02*
X0458501D01*
X0457834Y0295626D01*
X0458501Y0296292D01*
X0459834D01*
X04605Y0296959D01*
X0459834Y0297625D01*
X0457834D01*
X0455835Y029496D02*
X0454502D01*
X0453835Y0295626D01*
Y0296959D01*
X0454502Y0297625D01*
X0455835D01*
X0456501Y0296959D01*
Y0295626D01*
X0455835Y029496D01*
X0448504D02*
Y0297625D01*
X0447837D01*
X0447171Y0296959D01*
Y029496D01*
Y0296959D01*
X0446504Y0297625D01*
X0445838Y0296959D01*
Y029496D01*
X0444505Y0297625D02*
Y0295626D01*
X0443839Y029496D01*
X0441839D01*
Y0297625D01*
X0437841D02*
X043984D01*
X0440507Y0296959D01*
Y0295626D01*
X043984Y029496D01*
X0437841D01*
X0436508Y0298958D02*
Y029496D01*
Y0296959D01*
X0435841Y0297625D01*
X0434508D01*
X0433842Y0296959D01*
Y029496D01*
X042851Y0297625D02*
X0427177Y029496D01*
X0425844Y0297625D01*
X0423845Y029496D02*
X0422512D01*
X0421846Y0295626D01*
Y0296959D01*
X0422512Y0297625D01*
X0423845D01*
X0424512Y0296959D01*
Y0295626D01*
X0423845Y029496D01*
X0420513D02*
X041918D01*
X0419846D01*
Y0298958D01*
X0420513D01*
X0416514Y0298292D02*
Y0297625D01*
X0417181D01*
X0415848D01*
X0416514D01*
Y0295626D01*
X0415848Y029496D01*
X0413848D02*
X0411849D01*
X0411183Y0295626D01*
X0411849Y0296292D01*
X0413182D01*
X0413848Y0296959D01*
X0413182Y0297625D01*
X0411183D01*
X04605Y0287761D02*
X0458501D01*
X0457834Y0288428D01*
X0458501Y0289094D01*
X0459834D01*
X04605Y028976D01*
X0459834Y0290427D01*
X0457834D01*
X0455835Y0287761D02*
X0454502D01*
X0453835Y0288428D01*
Y028976D01*
X0454502Y0290427D01*
X0455835D01*
X0456501Y028976D01*
Y0288428D01*
X0455835Y0287761D01*
X0448504D02*
Y0290427D01*
X0447837D01*
X0447171Y028976D01*
Y0287761D01*
Y028976D01*
X0446504Y0290427D01*
X0445838Y028976D01*
Y0287761D01*
X0443839Y0290427D02*
X0442506D01*
X0441839Y028976D01*
Y0287761D01*
X0443839D01*
X0444505Y0288428D01*
X0443839Y0289094D01*
X0441839D01*
X0440507Y0287761D02*
Y0290427D01*
X0438507D01*
X0437841Y028976D01*
Y0287761D01*
X0436508Y0290427D02*
Y0288428D01*
X0435841Y0287761D01*
X0433842D01*
Y0287095D01*
X0434508Y0286428D01*
X0435175D01*
X0433842Y0287761D02*
Y0290427D01*
X0425844D02*
X0427844D01*
X042851Y028976D01*
Y0288428D01*
X0427844Y0287761D01*
X0425844D01*
X0423845D02*
X0422512D01*
X0421846Y0288428D01*
Y028976D01*
X0422512Y0290427D01*
X0423845D01*
X0424512Y028976D01*
Y0288428D01*
X0423845Y0287761D01*
X0420513D02*
Y0290427D01*
X0418514D01*
X0417847Y028976D01*
Y0287761D01*
X0413848Y029176D02*
Y0287761D01*
X0415848D01*
X0416514Y0288428D01*
Y028976D01*
X0415848Y0290427D01*
X0413848D01*
X0412515D02*
Y0288428D01*
X0411849Y0287761D01*
X040985D01*
Y0290427D01*
X0405851D02*
X040785D01*
X0408517Y028976D01*
Y0288428D01*
X040785Y0287761D01*
X0405851D01*
X0403852Y0291093D02*
Y0290427D01*
X0404518D01*
X0403185D01*
X0403852D01*
Y0288428D01*
X0403185Y0287761D01*
X0401186D02*
X0399853D01*
X0400519D01*
Y0290427D01*
X0401186D01*
X0397853D02*
X0396521Y0287761D01*
X0395188Y0290427D01*
X0393855Y0287761D02*
X0392522D01*
X0393188D01*
Y0290427D01*
X0393855D01*
X0389856Y0291093D02*
Y0290427D01*
X0390523D01*
X038919D01*
X0389856D01*
Y0288428D01*
X038919Y0287761D01*
X038719Y0290427D02*
Y0288428D01*
X0386524Y0287761D01*
X0384524D01*
Y0287095D01*
X0385191Y0286428D01*
X0385857D01*
X0384524Y0287761D02*
Y0290427D01*
X04605Y027923D02*
X0458501D01*
X0457834Y0279896D01*
X0458501Y0280563D01*
X0459834D01*
X04605Y0281229D01*
X0459834Y0281896D01*
X0457834D01*
X0455835Y027923D02*
X0454502D01*
X0453835Y0279896D01*
Y0281229D01*
X0454502Y0281896D01*
X0455835D01*
X0456501Y0281229D01*
Y0279896D01*
X0455835Y027923D01*
X0448504D02*
Y0281896D01*
X0447837D01*
X0447171Y0281229D01*
Y027923D01*
Y0281229D01*
X0446504Y0281896D01*
X0445838Y0281229D01*
Y027923D01*
X0444505Y0281896D02*
Y0279896D01*
X0443839Y027923D01*
X0441839D01*
Y0281896D01*
X0437841D02*
X043984D01*
X0440507Y0281229D01*
Y0279896D01*
X043984Y027923D01*
X0437841D01*
X0436508Y0283228D02*
Y027923D01*
Y0281229D01*
X0435841Y0281896D01*
X0434508D01*
X0433842Y0281229D01*
Y027923D01*
X042851Y0281896D02*
X0427177Y027923D01*
X0425844Y0281896D01*
X0423845Y027923D02*
X0422512D01*
X0421846Y0279896D01*
Y0281229D01*
X0422512Y0281896D01*
X0423845D01*
X0424512Y0281229D01*
Y0279896D01*
X0423845Y027923D01*
X0420513D02*
X041918D01*
X0419846D01*
Y0283228D01*
X0420513D01*
X0416514Y0282562D02*
Y0281896D01*
X0417181D01*
X0415848D01*
X0416514D01*
Y0279896D01*
X0415848Y027923D01*
X0413848D02*
X0411849D01*
X0411183Y0279896D01*
X0411849Y0280563D01*
X0413182D01*
X0413848Y0281229D01*
X0413182Y0281896D01*
X0411183D01*
X04605Y0272031D02*
X0458501D01*
X0457834Y0272698D01*
X0458501Y0273364D01*
X0459834D01*
X04605Y0274031D01*
X0459834Y0274697D01*
X0457834D01*
X0455835Y0272031D02*
X0454502D01*
X0453835Y0272698D01*
Y0274031D01*
X0454502Y0274697D01*
X0455835D01*
X0456501Y0274031D01*
Y0272698D01*
X0455835Y0272031D01*
X0448504D02*
Y0274697D01*
X0447837D01*
X0447171Y0274031D01*
Y0272031D01*
Y0274031D01*
X0446504Y0274697D01*
X0445838Y0274031D01*
Y0272031D01*
X0443839Y0274697D02*
X0442506D01*
X0441839Y0274031D01*
Y0272031D01*
X0443839D01*
X0444505Y0272698D01*
X0443839Y0273364D01*
X0441839D01*
X0440507Y0272031D02*
Y0274697D01*
X0438507D01*
X0437841Y0274031D01*
Y0272031D01*
X0436508Y0274697D02*
Y0272698D01*
X0435841Y0272031D01*
X0433842D01*
Y0271365D01*
X0434508Y0270698D01*
X0435175D01*
X0433842Y0272031D02*
Y0274697D01*
X0425844D02*
X0427844D01*
X042851Y0274031D01*
Y0272698D01*
X0427844Y0272031D01*
X0425844D01*
X0423845D02*
X0422512D01*
X0421846Y0272698D01*
Y0274031D01*
X0422512Y0274697D01*
X0423845D01*
X0424512Y0274031D01*
Y0272698D01*
X0423845Y0272031D01*
X0420513D02*
Y0274697D01*
X0418514D01*
X0417847Y0274031D01*
Y0272031D01*
X0413848Y027603D02*
Y0272031D01*
X0415848D01*
X0416514Y0272698D01*
Y0274031D01*
X0415848Y0274697D01*
X0413848D01*
X0412515D02*
Y0272698D01*
X0411849Y0272031D01*
X040985D01*
Y0274697D01*
X0405851D02*
X040785D01*
X0408517Y0274031D01*
Y0272698D01*
X040785Y0272031D01*
X0405851D01*
X0403852Y0275364D02*
Y0274697D01*
X0404518D01*
X0403185D01*
X0403852D01*
Y0272698D01*
X0403185Y0272031D01*
X0401186D02*
X0399853D01*
X0400519D01*
Y0274697D01*
X0401186D01*
X0397853D02*
X0396521Y0272031D01*
X0395188Y0274697D01*
X0393855Y0272031D02*
X0392522D01*
X0393188D01*
Y0274697D01*
X0393855D01*
X0389856Y0275364D02*
Y0274697D01*
X0390523D01*
X038919D01*
X0389856D01*
Y0272698D01*
X038919Y0272031D01*
X038719Y0274697D02*
Y0272698D01*
X0386524Y0272031D01*
X0384524D01*
Y0271365D01*
X0385191Y0270698D01*
X0385857D01*
X0384524Y0272031D02*
Y0274697D01*
X04605Y02635D02*
X0458501D01*
X0457834Y0264166D01*
X0458501Y0264833D01*
X0459834D01*
X04605Y0265499D01*
X0459834Y0266166D01*
X0457834D01*
X0455835Y02635D02*
X0454502D01*
X0453835Y0264166D01*
Y0265499D01*
X0454502Y0266166D01*
X0455835D01*
X0456501Y0265499D01*
Y0264166D01*
X0455835Y02635D01*
X0448504D02*
Y0266166D01*
X0447837D01*
X0447171Y0265499D01*
Y02635D01*
Y0265499D01*
X0446504Y0266166D01*
X0445838Y0265499D01*
Y02635D01*
X0444505Y0266166D02*
Y0264166D01*
X0443839Y02635D01*
X0441839D01*
Y0266166D01*
X0437841D02*
X043984D01*
X0440507Y0265499D01*
Y0264166D01*
X043984Y02635D01*
X0437841D01*
X0436508Y0267499D02*
Y02635D01*
Y0265499D01*
X0435841Y0266166D01*
X0434508D01*
X0433842Y0265499D01*
Y02635D01*
X042851Y0266166D02*
X0427177Y02635D01*
X0425844Y0266166D01*
X0423845Y02635D02*
X0422512D01*
X0421846Y0264166D01*
Y0265499D01*
X0422512Y0266166D01*
X0423845D01*
X0424512Y0265499D01*
Y0264166D01*
X0423845Y02635D01*
X0420513D02*
X041918D01*
X0419846D01*
Y0267499D01*
X0420513D01*
X0416514Y0266832D02*
Y0266166D01*
X0417181D01*
X0415848D01*
X0416514D01*
Y0264166D01*
X0415848Y02635D01*
X0413848D02*
X0411849D01*
X0411183Y0264166D01*
X0411849Y0264833D01*
X0413182D01*
X0413848Y0265499D01*
X0413182Y0266166D01*
X0411183D01*
M02*
